%FSLAX45Y45*%
G04 Gerber Fmt 4.5, Leading zero omitted, Abs format (unit mm)*
G04 Created by KiCad (PCBNEW 6.0.0+dfsg1-2) date 2022-03-14 17:53:09*
%MOMM*%
%LPD*%
G01*
G04 APERTURE LIST*
%TA.AperFunction,Profile*%
%ADD10C,0.100000*%
%TD*%
%ADD11C,0.200000*%
G04 APERTURE END LIST*
D10*
X10845800Y-6502400D02*
X10960100Y-6616700D01*
X6667500Y-14770100D02*
X10845800Y-14770100D01*
X6553200Y-6616700D02*
X6553200Y-14655800D01*
X10960100Y-14655800D02*
X10845800Y-14770100D01*
X6667500Y-6502400D02*
X10845800Y-6502400D01*
X6553200Y-14655800D02*
X6667500Y-14770100D01*
X6553200Y-6616700D02*
X6667500Y-6502400D01*
X10960100Y-14655800D02*
X10960100Y-6616700D01*
D11*
X6805819Y-15085576D02*
X6805819Y-14885576D01*
X6853438Y-14885576D01*
X6882009Y-14895100D01*
X6901057Y-14914148D01*
X6910581Y-14933195D01*
X6920105Y-14971290D01*
X6920105Y-14999862D01*
X6910581Y-15037957D01*
X6901057Y-15057005D01*
X6882009Y-15076052D01*
X6853438Y-15085576D01*
X6805819Y-15085576D01*
X7005819Y-15085576D02*
X7005819Y-14952243D01*
X7005819Y-14990338D02*
X7015343Y-14971290D01*
X7024867Y-14961767D01*
X7043914Y-14952243D01*
X7062962Y-14952243D01*
X7129628Y-15085576D02*
X7129628Y-14952243D01*
X7129628Y-14885576D02*
X7120105Y-14895100D01*
X7129628Y-14904624D01*
X7139152Y-14895100D01*
X7129628Y-14885576D01*
X7129628Y-14904624D01*
X7253438Y-15085576D02*
X7234390Y-15076052D01*
X7224867Y-15057005D01*
X7224867Y-14885576D01*
X7358200Y-15085576D02*
X7339152Y-15076052D01*
X7329628Y-15057005D01*
X7329628Y-14885576D01*
X7586771Y-15085576D02*
X7586771Y-14885576D01*
X7653438Y-15028433D01*
X7720105Y-14885576D01*
X7720105Y-15085576D01*
X7901057Y-15085576D02*
X7901057Y-14980814D01*
X7891533Y-14961767D01*
X7872486Y-14952243D01*
X7834390Y-14952243D01*
X7815343Y-14961767D01*
X7901057Y-15076052D02*
X7882009Y-15085576D01*
X7834390Y-15085576D01*
X7815343Y-15076052D01*
X7805819Y-15057005D01*
X7805819Y-15037957D01*
X7815343Y-15018909D01*
X7834390Y-15009386D01*
X7882009Y-15009386D01*
X7901057Y-14999862D01*
X7996295Y-14952243D02*
X7996295Y-15152243D01*
X7996295Y-14961767D02*
X8015343Y-14952243D01*
X8053438Y-14952243D01*
X8072486Y-14961767D01*
X8082009Y-14971290D01*
X8091533Y-14990338D01*
X8091533Y-15047481D01*
X8082009Y-15066528D01*
X8072486Y-15076052D01*
X8053438Y-15085576D01*
X8015343Y-15085576D01*
X7996295Y-15076052D01*
X8177248Y-15066528D02*
X8186771Y-15076052D01*
X8177248Y-15085576D01*
X8167724Y-15076052D01*
X8177248Y-15066528D01*
X8177248Y-15085576D01*
X8177248Y-14961767D02*
X8186771Y-14971290D01*
X8177248Y-14980814D01*
X8167724Y-14971290D01*
X8177248Y-14961767D01*
X8177248Y-14980814D01*
M02*
