%TF.GenerationSoftware,KiCad,Pcbnew,6.0.0+dfsg1-2*%
%TF.CreationDate,2022-03-14T17:52:28-05:00*%
%TF.ProjectId,remote64-controller,72656d6f-7465-4363-942d-636f6e74726f,rev?*%
%TF.SameCoordinates,Original*%
%TF.FileFunction,Copper,L1,Top*%
%TF.FilePolarity,Positive*%
%FSLAX46Y46*%
G04 Gerber Fmt 4.6, Leading zero omitted, Abs format (unit mm)*
G04 Created by KiCad (PCBNEW 6.0.0+dfsg1-2) date 2022-03-14 17:52:28*
%MOMM*%
%LPD*%
G01*
G04 APERTURE LIST*
%TA.AperFunction,ComponentPad*%
%ADD10O,1.700000X1.700000*%
%TD*%
%TA.AperFunction,ComponentPad*%
%ADD11R,1.700000X1.700000*%
%TD*%
%TA.AperFunction,ComponentPad*%
%ADD12R,1.600000X1.600000*%
%TD*%
%TA.AperFunction,ComponentPad*%
%ADD13O,1.600000X1.600000*%
%TD*%
%TA.AperFunction,ComponentPad*%
%ADD14C,1.600000*%
%TD*%
%TA.AperFunction,ComponentPad*%
%ADD15R,2.600000X2.600000*%
%TD*%
%TA.AperFunction,ComponentPad*%
%ADD16C,2.600000*%
%TD*%
%TA.AperFunction,ComponentPad*%
%ADD17C,1.700000*%
%TD*%
%TA.AperFunction,ComponentPad*%
%ADD18C,3.500000*%
%TD*%
%TA.AperFunction,ComponentPad*%
%ADD19R,2.200000X2.200000*%
%TD*%
%TA.AperFunction,ComponentPad*%
%ADD20O,2.200000X2.200000*%
%TD*%
%TA.AperFunction,ComponentPad*%
%ADD21C,2.500000*%
%TD*%
%TA.AperFunction,ComponentPad*%
%ADD22C,2.000000*%
%TD*%
%TA.AperFunction,ComponentPad*%
%ADD23R,1.500000X1.050000*%
%TD*%
%TA.AperFunction,ComponentPad*%
%ADD24O,1.500000X1.050000*%
%TD*%
%TA.AperFunction,ViaPad*%
%ADD25C,0.800000*%
%TD*%
%TA.AperFunction,Conductor*%
%ADD26C,0.400000*%
%TD*%
%TA.AperFunction,Conductor*%
%ADD27C,0.250000*%
%TD*%
%TA.AperFunction,Conductor*%
%ADD28C,0.200000*%
%TD*%
%TA.AperFunction,Conductor*%
%ADD29C,1.500000*%
%TD*%
G04 APERTURE END LIST*
D10*
%TO.P,J3,6,Pin_6*%
%TO.N,unconnected-(J3-Pad6)*%
X69977000Y-102870000D03*
%TO.P,J3,5,Pin_5*%
%TO.N,Net-(J3-Pad5)*%
X69977000Y-105410000D03*
%TO.P,J3,4,Pin_4*%
%TO.N,Net-(J3-Pad4)*%
X69977000Y-107950000D03*
%TO.P,J3,3,Pin_3*%
%TO.N,GND*%
X69977000Y-110490000D03*
%TO.P,J3,2,Pin_2*%
%TO.N,VDD*%
X69977000Y-113030000D03*
D11*
%TO.P,J3,1,Pin_1*%
%TO.N,MCU_RESET*%
X69977000Y-115570000D03*
%TD*%
D12*
%TO.P,U2,1,Vpp/~{MCLR}/RE3*%
%TO.N,MCU_RESET*%
X88900000Y-115570000D03*
D13*
%TO.P,U2,2,RA0*%
%TO.N,3.3V_RELAY*%
X88900000Y-113030000D03*
%TO.P,U2,3,RA1*%
%TO.N,12V_RELAY*%
X88900000Y-110490000D03*
%TO.P,U2,4,RA2*%
%TO.N,unconnected-(U2-Pad4)*%
X88900000Y-107950000D03*
%TO.P,U2,5,RA3*%
%TO.N,unconnected-(U2-Pad5)*%
X88900000Y-105410000D03*
%TO.P,U2,6,RA4*%
%TO.N,unconnected-(U2-Pad6)*%
X88900000Y-102870000D03*
%TO.P,U2,7,RA5*%
%TO.N,unconnected-(U2-Pad7)*%
X88900000Y-100330000D03*
%TO.P,U2,8,RE0*%
%TO.N,unconnected-(U2-Pad8)*%
X88900000Y-97790000D03*
%TO.P,U2,9,RE1*%
%TO.N,unconnected-(U2-Pad9)*%
X88900000Y-95250000D03*
%TO.P,U2,10,RE2*%
%TO.N,unconnected-(U2-Pad10)*%
X88900000Y-92710000D03*
%TO.P,U2,11,VDD*%
%TO.N,VDD*%
X88900000Y-90170000D03*
%TO.P,U2,12,VSS*%
%TO.N,GND*%
X88900000Y-87630000D03*
%TO.P,U2,13,RA7*%
%TO.N,unconnected-(U2-Pad13)*%
X88900000Y-85090000D03*
%TO.P,U2,14,RA6*%
%TO.N,unconnected-(U2-Pad14)*%
X88900000Y-82550000D03*
%TO.P,U2,15,RC0*%
%TO.N,UART<-USB*%
X88900000Y-80010000D03*
%TO.P,U2,16,RC1*%
%TO.N,UART->USB*%
X88900000Y-77470000D03*
%TO.P,U2,17,RC2*%
%TO.N,unconnected-(U2-Pad17)*%
X88900000Y-74930000D03*
%TO.P,U2,18,RC3*%
%TO.N,unconnected-(U2-Pad18)*%
X88900000Y-72390000D03*
%TO.P,U2,19,RD0*%
%TO.N,unconnected-(U2-Pad19)*%
X88900000Y-69850000D03*
%TO.P,U2,20,RD1*%
%TO.N,unconnected-(U2-Pad20)*%
X88900000Y-67310000D03*
%TO.P,U2,21,RD2*%
%TO.N,unconnected-(U2-Pad21)*%
X73660000Y-67310000D03*
%TO.P,U2,22,RD3*%
%TO.N,unconnected-(U2-Pad22)*%
X73660000Y-69850000D03*
%TO.P,U2,23,RC4*%
%TO.N,/N64CNT1*%
X73660000Y-72390000D03*
%TO.P,U2,24,RC5*%
%TO.N,/N64CNT2*%
X73660000Y-74930000D03*
%TO.P,U2,25,RC6*%
%TO.N,/N64CNT3*%
X73660000Y-77470000D03*
%TO.P,U2,26,RC7*%
%TO.N,/N64CNT4*%
X73660000Y-80010000D03*
%TO.P,U2,27,RD4*%
%TO.N,unconnected-(U2-Pad27)*%
X73660000Y-82550000D03*
%TO.P,U2,28,RD5*%
%TO.N,unconnected-(U2-Pad28)*%
X73660000Y-85090000D03*
%TO.P,U2,29,RD6*%
%TO.N,unconnected-(U2-Pad29)*%
X73660000Y-87630000D03*
%TO.P,U2,30,RD7*%
%TO.N,unconnected-(U2-Pad30)*%
X73660000Y-90170000D03*
%TO.P,U2,31,VSS*%
%TO.N,GND*%
X73660000Y-92710000D03*
%TO.P,U2,32,VDD*%
%TO.N,VDD*%
X73660000Y-95250000D03*
%TO.P,U2,33,RB0*%
%TO.N,unconnected-(U2-Pad33)*%
X73660000Y-97790000D03*
%TO.P,U2,34,RB1*%
%TO.N,unconnected-(U2-Pad34)*%
X73660000Y-100330000D03*
%TO.P,U2,35,RB2*%
%TO.N,unconnected-(U2-Pad35)*%
X73660000Y-102870000D03*
%TO.P,U2,36,RB3*%
%TO.N,unconnected-(U2-Pad36)*%
X73660000Y-105410000D03*
%TO.P,U2,37,RB4*%
%TO.N,unconnected-(U2-Pad37)*%
X73660000Y-107950000D03*
%TO.P,U2,38,RB5*%
%TO.N,unconnected-(U2-Pad38)*%
X73660000Y-110490000D03*
%TO.P,U2,39,RB6/ICSPCLK*%
%TO.N,Net-(J3-Pad5)*%
X73660000Y-113030000D03*
%TO.P,U2,40,RB7/ICSPDAT*%
%TO.N,Net-(J3-Pad4)*%
X73660000Y-115570000D03*
%TD*%
D14*
%TO.P,C2,1*%
%TO.N,GND*%
X70358000Y-92750000D03*
%TO.P,C2,2*%
%TO.N,VDD*%
X70358000Y-95250000D03*
%TD*%
D15*
%TO.P,J4,1,Pin_1*%
%TO.N,/N64_12V_SRC*%
X105029000Y-142922000D03*
D16*
%TO.P,J4,2,Pin_2*%
%TO.N,/N64_12V_DEST*%
X105029000Y-137922000D03*
%TD*%
D11*
%TO.P,J5,1,Pin_1*%
%TO.N,GND*%
X69977000Y-82550000D03*
D10*
%TO.P,J5,2,Pin_2*%
%TO.N,/N64CNT4*%
X69977000Y-80010000D03*
%TO.P,J5,3,Pin_3*%
%TO.N,/N64CNT3*%
X69977000Y-77470000D03*
%TO.P,J5,4,Pin_4*%
%TO.N,/N64CNT2*%
X69977000Y-74930000D03*
%TO.P,J5,5,Pin_5*%
%TO.N,/N64CNT1*%
X69977000Y-72390000D03*
%TD*%
D14*
%TO.P,C3,1*%
%TO.N,GND*%
X92964000Y-86701000D03*
%TO.P,C3,2*%
%TO.N,VDD*%
X92964000Y-84201000D03*
%TD*%
D11*
%TO.P,J1,1,VBUS*%
%TO.N,VDD*%
X97937000Y-80110500D03*
D17*
%TO.P,J1,2,D-*%
%TO.N,/D-*%
X100437000Y-80110500D03*
%TO.P,J1,3,D+*%
%TO.N,/D+*%
X100437000Y-78110500D03*
%TO.P,J1,4,GND*%
%TO.N,GND*%
X97937000Y-78110500D03*
D18*
%TO.P,J1,5,Shield*%
X105207000Y-75400500D03*
X93167000Y-75400500D03*
%TD*%
D14*
%TO.P,R3,1*%
%TO.N,12V_RELAY*%
X67691000Y-135255000D03*
D13*
%TO.P,R3,2*%
%TO.N,Net-(Q2-Pad2)*%
X67691000Y-145415000D03*
%TD*%
D15*
%TO.P,J2,1,Pin_1*%
%TO.N,/N64_3.3V_SRC*%
X105029000Y-128992000D03*
D16*
%TO.P,J2,2,Pin_2*%
%TO.N,/N64_3.3V_DEST*%
X105029000Y-123992000D03*
%TD*%
D19*
%TO.P,D1,1,K*%
%TO.N,VDD*%
X78867000Y-121412000D03*
D20*
%TO.P,D1,2,A*%
%TO.N,Net-(D1-Pad2)*%
X78867000Y-131572000D03*
%TD*%
D21*
%TO.P,K1,1,C*%
%TO.N,/N64_3.3V_SRC*%
X95504000Y-130302000D03*
%TO.P,K1,2,NO*%
%TO.N,/N64_3.3V_DEST*%
X98044000Y-122682000D03*
%TO.P,K1,3,COIL_{A}*%
%TO.N,VDD*%
X82804000Y-122682000D03*
%TO.P,K1,4,COIL_{B}*%
%TO.N,Net-(D1-Pad2)*%
X82804000Y-130302000D03*
%TD*%
D12*
%TO.P,U1,1,VDD*%
%TO.N,VDD*%
X96774000Y-84201000D03*
D13*
%TO.P,U1,2,GP0*%
%TO.N,unconnected-(U1-Pad2)*%
X96774000Y-86741000D03*
%TO.P,U1,3,GP1*%
%TO.N,unconnected-(U1-Pad3)*%
X96774000Y-89281000D03*
%TO.P,U1,4,~{RST}*%
%TO.N,unconnected-(U1-Pad4)*%
X96774000Y-91821000D03*
%TO.P,U1,5,URx*%
%TO.N,UART->USB*%
X96774000Y-94361000D03*
%TO.P,U1,6,UTx*%
%TO.N,UART<-USB*%
X96774000Y-96901000D03*
%TO.P,U1,7,GP2*%
%TO.N,unconnected-(U1-Pad7)*%
X96774000Y-99441000D03*
%TO.P,U1,8,GP3*%
%TO.N,unconnected-(U1-Pad8)*%
X104394000Y-99441000D03*
%TO.P,U1,9,SDA*%
%TO.N,unconnected-(U1-Pad9)*%
X104394000Y-96901000D03*
%TO.P,U1,10,SCL*%
%TO.N,unconnected-(U1-Pad10)*%
X104394000Y-94361000D03*
%TO.P,U1,11,VUSB*%
%TO.N,Net-(C1-Pad2)*%
X104394000Y-91821000D03*
%TO.P,U1,12,D-*%
%TO.N,/D-*%
X104394000Y-89281000D03*
%TO.P,U1,13,D+*%
%TO.N,/D+*%
X104394000Y-86741000D03*
%TO.P,U1,14,VSS*%
%TO.N,GND*%
X104394000Y-84201000D03*
%TD*%
D21*
%TO.P,K2,1,C*%
%TO.N,/N64_12V_SRC*%
X95504000Y-144145000D03*
%TO.P,K2,2,NO*%
%TO.N,/N64_12V_DEST*%
X98044000Y-136525000D03*
%TO.P,K2,3,COIL_{A}*%
%TO.N,VDD*%
X82804000Y-136525000D03*
%TO.P,K2,4,COIL_{B}*%
%TO.N,Net-(D2-Pad2)*%
X82804000Y-144145000D03*
%TD*%
D19*
%TO.P,D2,1,K*%
%TO.N,VDD*%
X78867000Y-135255000D03*
D20*
%TO.P,D2,2,A*%
%TO.N,Net-(D2-Pad2)*%
X78867000Y-145415000D03*
%TD*%
D22*
%TO.P,SW1,1,1*%
%TO.N,GND*%
X97464000Y-111506000D03*
X97464000Y-105006000D03*
%TO.P,SW1,2,2*%
%TO.N,MCU_RESET*%
X92964000Y-111506000D03*
X92964000Y-105006000D03*
%TD*%
D23*
%TO.P,Q2,1,E*%
%TO.N,GND*%
X72771000Y-139065000D03*
D24*
%TO.P,Q2,2,B*%
%TO.N,Net-(Q2-Pad2)*%
X72771000Y-140335000D03*
%TO.P,Q2,3,C*%
%TO.N,Net-(D2-Pad2)*%
X72771000Y-141605000D03*
%TD*%
D14*
%TO.P,C1,1*%
%TO.N,GND*%
X107188000Y-84201000D03*
%TO.P,C1,2*%
%TO.N,Net-(C1-Pad2)*%
X107188000Y-86701000D03*
%TD*%
%TO.P,R2,1*%
%TO.N,VDD*%
X92964000Y-90170000D03*
D13*
%TO.P,R2,2*%
%TO.N,MCU_RESET*%
X92964000Y-100330000D03*
%TD*%
D23*
%TO.P,Q1,1,E*%
%TO.N,GND*%
X72771000Y-125222000D03*
D24*
%TO.P,Q1,2,B*%
%TO.N,Net-(Q1-Pad2)*%
X72771000Y-126492000D03*
%TO.P,Q1,3,C*%
%TO.N,Net-(D1-Pad2)*%
X72771000Y-127762000D03*
%TD*%
D14*
%TO.P,R1,1*%
%TO.N,3.3V_RELAY*%
X67691000Y-121412000D03*
D13*
%TO.P,R1,2*%
%TO.N,Net-(Q1-Pad2)*%
X67691000Y-131572000D03*
%TD*%
D25*
%TO.N,VDD*%
X83820000Y-108585000D03*
X83820000Y-114935000D03*
%TD*%
D26*
%TO.N,VDD*%
X69977000Y-113030000D02*
X67945000Y-110998000D01*
X67945000Y-110998000D02*
X67945000Y-97663000D01*
X67945000Y-97663000D02*
X70358000Y-95250000D01*
D27*
%TO.N,Net-(J3-Pad5)*%
X69977000Y-105410000D02*
X72204520Y-107637520D01*
X72204520Y-107637520D02*
X72204520Y-111574520D01*
X72204520Y-111574520D02*
X73660000Y-113030000D01*
%TO.N,Net-(J3-Pad4)*%
X73660000Y-115570000D02*
X71755000Y-113665000D01*
X71755000Y-113665000D02*
X71755000Y-109728000D01*
X71755000Y-109728000D02*
X69977000Y-107950000D01*
%TO.N,UART->USB*%
X96774000Y-94361000D02*
X95758000Y-95377000D01*
X95758000Y-95377000D02*
X92329000Y-95377000D01*
X91000520Y-94048520D02*
X91000520Y-79570520D01*
X92329000Y-95377000D02*
X91000520Y-94048520D01*
X91000520Y-79570520D02*
X88900000Y-77470000D01*
%TO.N,UART<-USB*%
X88900000Y-80010000D02*
X90551000Y-81661000D01*
X90551000Y-81661000D02*
X90551000Y-94234717D01*
X90551000Y-94234717D02*
X92142803Y-95826520D01*
X92142803Y-95826520D02*
X95699520Y-95826520D01*
X95699520Y-95826520D02*
X96774000Y-96901000D01*
%TO.N,Net-(C1-Pad2)*%
X104394000Y-91821000D02*
X107188000Y-89027000D01*
X107188000Y-89027000D02*
X107188000Y-86701000D01*
D26*
%TO.N,VDD*%
X97937000Y-83038000D02*
X96774000Y-84201000D01*
X82804000Y-122682000D02*
X80137000Y-122682000D01*
X76327000Y-123952000D02*
X76327000Y-132715000D01*
X73660000Y-95250000D02*
X83820000Y-95250000D01*
X83820000Y-114935000D02*
X83820000Y-116459000D01*
X70358000Y-95250000D02*
X73660000Y-95250000D01*
X78867000Y-121412000D02*
X76327000Y-123952000D01*
X82804000Y-136525000D02*
X80137000Y-136525000D01*
X83820000Y-116459000D02*
X78867000Y-121412000D01*
X83820000Y-95250000D02*
X83820000Y-108585000D01*
X92964000Y-90170000D02*
X94869000Y-88265000D01*
X76327000Y-132715000D02*
X78867000Y-135255000D01*
X94869000Y-86106000D02*
X92964000Y-84201000D01*
X94869000Y-88265000D02*
X94869000Y-86106000D01*
X94869000Y-86106000D02*
X96774000Y-84201000D01*
X80137000Y-136525000D02*
X78867000Y-135255000D01*
X83820000Y-95250000D02*
X88900000Y-90170000D01*
X97937000Y-80110500D02*
X97937000Y-83038000D01*
X80137000Y-122682000D02*
X78867000Y-121412000D01*
%TO.N,Net-(D1-Pad2)*%
X80137000Y-130302000D02*
X78867000Y-131572000D01*
X82804000Y-130302000D02*
X80137000Y-130302000D01*
%TO.N,Net-(D2-Pad2)*%
X82804000Y-144145000D02*
X80137000Y-144145000D01*
X80137000Y-144145000D02*
X78867000Y-145415000D01*
D28*
%TO.N,/D-*%
X101248000Y-83218800D02*
X103026000Y-81440800D01*
X102512301Y-79335501D02*
X101211999Y-79335501D01*
X101248000Y-87342200D02*
X101248000Y-83218800D01*
X103026000Y-81440800D02*
X103026000Y-79849200D01*
X101211999Y-79335501D02*
X100437000Y-80110500D01*
X104394000Y-89281000D02*
X103349001Y-88236001D01*
X103026000Y-79849200D02*
X102512301Y-79335501D01*
X102141801Y-88236001D02*
X101248000Y-87342200D01*
X103349001Y-88236001D02*
X102141801Y-88236001D01*
%TO.N,/D+*%
X103349001Y-87785999D02*
X102328199Y-87785999D01*
X103476000Y-81627200D02*
X103476000Y-79662800D01*
X102328199Y-87785999D02*
X101698000Y-87155800D01*
X104394000Y-86741000D02*
X103349001Y-87785999D01*
X101698000Y-87155800D02*
X101698000Y-83405200D01*
X101211999Y-78885499D02*
X100437000Y-78110500D01*
X102698699Y-78885499D02*
X101211999Y-78885499D01*
X101698000Y-83405200D02*
X103476000Y-81627200D01*
X103476000Y-79662800D02*
X102698699Y-78885499D01*
D29*
%TO.N,/N64_3.3V_SRC*%
X103719000Y-130302000D02*
X105029000Y-128992000D01*
X95504000Y-130302000D02*
X103719000Y-130302000D01*
%TO.N,/N64_3.3V_DEST*%
X98044000Y-122682000D02*
X103719000Y-122682000D01*
X103719000Y-122682000D02*
X105029000Y-123992000D01*
D27*
%TO.N,MCU_RESET*%
X88900000Y-115570000D02*
X92964000Y-111506000D01*
X92964000Y-105006000D02*
X92964000Y-111506000D01*
X92964000Y-105006000D02*
X92964000Y-100330000D01*
D29*
%TO.N,/N64_12V_SRC*%
X95504000Y-144145000D02*
X103806000Y-144145000D01*
X103806000Y-144145000D02*
X105029000Y-142922000D01*
D27*
%TO.N,Net-(Q1-Pad2)*%
X67691000Y-129413000D02*
X67691000Y-131572000D01*
X70612000Y-126492000D02*
X67691000Y-129413000D01*
X72771000Y-126492000D02*
X70612000Y-126492000D01*
%TO.N,Net-(Q2-Pad2)*%
X67691000Y-143256000D02*
X67691000Y-145415000D01*
X70612000Y-140335000D02*
X67691000Y-143256000D01*
X72771000Y-140335000D02*
X70612000Y-140335000D01*
%TO.N,/N64CNT4*%
X69977000Y-80010000D02*
X73660000Y-80010000D01*
%TO.N,/N64CNT3*%
X69977000Y-77470000D02*
X73660000Y-77470000D01*
%TO.N,/N64CNT2*%
X69977000Y-74930000D02*
X73660000Y-74930000D01*
%TO.N,/N64CNT1*%
X69977000Y-72390000D02*
X73660000Y-72390000D01*
%TO.N,3.3V_RELAY*%
X88900000Y-113030000D02*
X87503000Y-113030000D01*
X74676000Y-120015000D02*
X69088000Y-120015000D01*
X82423000Y-112268000D02*
X74676000Y-120015000D01*
X86741000Y-112268000D02*
X82423000Y-112268000D01*
X87503000Y-113030000D02*
X86741000Y-112268000D01*
X69088000Y-120015000D02*
X67691000Y-121412000D01*
%TO.N,12V_RELAY*%
X67437000Y-119253000D02*
X66167000Y-120523000D01*
X87503000Y-110490000D02*
X86741000Y-111252000D01*
X86741000Y-111252000D02*
X82296000Y-111252000D01*
X82296000Y-111252000D02*
X74295000Y-119253000D01*
X74295000Y-119253000D02*
X67437000Y-119253000D01*
X66167000Y-133731000D02*
X67691000Y-135255000D01*
X88900000Y-110490000D02*
X87503000Y-110490000D01*
X66167000Y-120523000D02*
X66167000Y-133731000D01*
D29*
%TO.N,/N64_12V_DEST*%
X98044000Y-136525000D02*
X103632000Y-136525000D01*
X103632000Y-136525000D02*
X105029000Y-137922000D01*
%TD*%
M02*
