%TF.GenerationSoftware,KiCad,Pcbnew,6.0.0+dfsg1-2*%
%TF.CreationDate,2022-03-14T17:52:29-05:00*%
%TF.ProjectId,remote64-controller,72656d6f-7465-4363-942d-636f6e74726f,rev?*%
%TF.SameCoordinates,Original*%
%TF.FileFunction,Copper,L2,Bot*%
%TF.FilePolarity,Positive*%
%FSLAX46Y46*%
G04 Gerber Fmt 4.6, Leading zero omitted, Abs format (unit mm)*
G04 Created by KiCad (PCBNEW 6.0.0+dfsg1-2) date 2022-03-14 17:52:29*
%MOMM*%
%LPD*%
G01*
G04 APERTURE LIST*
%TA.AperFunction,ComponentPad*%
%ADD10O,1.700000X1.700000*%
%TD*%
%TA.AperFunction,ComponentPad*%
%ADD11R,1.700000X1.700000*%
%TD*%
%TA.AperFunction,ComponentPad*%
%ADD12R,1.600000X1.600000*%
%TD*%
%TA.AperFunction,ComponentPad*%
%ADD13O,1.600000X1.600000*%
%TD*%
%TA.AperFunction,ComponentPad*%
%ADD14C,1.600000*%
%TD*%
%TA.AperFunction,ComponentPad*%
%ADD15R,2.600000X2.600000*%
%TD*%
%TA.AperFunction,ComponentPad*%
%ADD16C,2.600000*%
%TD*%
%TA.AperFunction,ComponentPad*%
%ADD17C,1.700000*%
%TD*%
%TA.AperFunction,ComponentPad*%
%ADD18C,3.500000*%
%TD*%
%TA.AperFunction,ComponentPad*%
%ADD19R,2.200000X2.200000*%
%TD*%
%TA.AperFunction,ComponentPad*%
%ADD20O,2.200000X2.200000*%
%TD*%
%TA.AperFunction,ComponentPad*%
%ADD21C,2.500000*%
%TD*%
%TA.AperFunction,ComponentPad*%
%ADD22C,2.000000*%
%TD*%
%TA.AperFunction,ComponentPad*%
%ADD23R,1.500000X1.050000*%
%TD*%
%TA.AperFunction,ComponentPad*%
%ADD24O,1.500000X1.050000*%
%TD*%
%TA.AperFunction,ViaPad*%
%ADD25C,0.800000*%
%TD*%
%TA.AperFunction,Conductor*%
%ADD26C,0.250000*%
%TD*%
%TA.AperFunction,Conductor*%
%ADD27C,0.400000*%
%TD*%
G04 APERTURE END LIST*
D10*
%TO.P,J3,6,Pin_6*%
%TO.N,unconnected-(J3-Pad6)*%
X69977000Y-102870000D03*
%TO.P,J3,5,Pin_5*%
%TO.N,Net-(J3-Pad5)*%
X69977000Y-105410000D03*
%TO.P,J3,4,Pin_4*%
%TO.N,Net-(J3-Pad4)*%
X69977000Y-107950000D03*
%TO.P,J3,3,Pin_3*%
%TO.N,GND*%
X69977000Y-110490000D03*
%TO.P,J3,2,Pin_2*%
%TO.N,VDD*%
X69977000Y-113030000D03*
D11*
%TO.P,J3,1,Pin_1*%
%TO.N,MCU_RESET*%
X69977000Y-115570000D03*
%TD*%
D12*
%TO.P,U2,1,Vpp/~{MCLR}/RE3*%
%TO.N,MCU_RESET*%
X88900000Y-115570000D03*
D13*
%TO.P,U2,2,RA0*%
%TO.N,3.3V_RELAY*%
X88900000Y-113030000D03*
%TO.P,U2,3,RA1*%
%TO.N,12V_RELAY*%
X88900000Y-110490000D03*
%TO.P,U2,4,RA2*%
%TO.N,unconnected-(U2-Pad4)*%
X88900000Y-107950000D03*
%TO.P,U2,5,RA3*%
%TO.N,unconnected-(U2-Pad5)*%
X88900000Y-105410000D03*
%TO.P,U2,6,RA4*%
%TO.N,unconnected-(U2-Pad6)*%
X88900000Y-102870000D03*
%TO.P,U2,7,RA5*%
%TO.N,unconnected-(U2-Pad7)*%
X88900000Y-100330000D03*
%TO.P,U2,8,RE0*%
%TO.N,unconnected-(U2-Pad8)*%
X88900000Y-97790000D03*
%TO.P,U2,9,RE1*%
%TO.N,unconnected-(U2-Pad9)*%
X88900000Y-95250000D03*
%TO.P,U2,10,RE2*%
%TO.N,unconnected-(U2-Pad10)*%
X88900000Y-92710000D03*
%TO.P,U2,11,VDD*%
%TO.N,VDD*%
X88900000Y-90170000D03*
%TO.P,U2,12,VSS*%
%TO.N,GND*%
X88900000Y-87630000D03*
%TO.P,U2,13,RA7*%
%TO.N,unconnected-(U2-Pad13)*%
X88900000Y-85090000D03*
%TO.P,U2,14,RA6*%
%TO.N,unconnected-(U2-Pad14)*%
X88900000Y-82550000D03*
%TO.P,U2,15,RC0*%
%TO.N,UART<-USB*%
X88900000Y-80010000D03*
%TO.P,U2,16,RC1*%
%TO.N,UART->USB*%
X88900000Y-77470000D03*
%TO.P,U2,17,RC2*%
%TO.N,unconnected-(U2-Pad17)*%
X88900000Y-74930000D03*
%TO.P,U2,18,RC3*%
%TO.N,unconnected-(U2-Pad18)*%
X88900000Y-72390000D03*
%TO.P,U2,19,RD0*%
%TO.N,unconnected-(U2-Pad19)*%
X88900000Y-69850000D03*
%TO.P,U2,20,RD1*%
%TO.N,unconnected-(U2-Pad20)*%
X88900000Y-67310000D03*
%TO.P,U2,21,RD2*%
%TO.N,unconnected-(U2-Pad21)*%
X73660000Y-67310000D03*
%TO.P,U2,22,RD3*%
%TO.N,unconnected-(U2-Pad22)*%
X73660000Y-69850000D03*
%TO.P,U2,23,RC4*%
%TO.N,/N64CNT1*%
X73660000Y-72390000D03*
%TO.P,U2,24,RC5*%
%TO.N,/N64CNT2*%
X73660000Y-74930000D03*
%TO.P,U2,25,RC6*%
%TO.N,/N64CNT3*%
X73660000Y-77470000D03*
%TO.P,U2,26,RC7*%
%TO.N,/N64CNT4*%
X73660000Y-80010000D03*
%TO.P,U2,27,RD4*%
%TO.N,unconnected-(U2-Pad27)*%
X73660000Y-82550000D03*
%TO.P,U2,28,RD5*%
%TO.N,unconnected-(U2-Pad28)*%
X73660000Y-85090000D03*
%TO.P,U2,29,RD6*%
%TO.N,unconnected-(U2-Pad29)*%
X73660000Y-87630000D03*
%TO.P,U2,30,RD7*%
%TO.N,unconnected-(U2-Pad30)*%
X73660000Y-90170000D03*
%TO.P,U2,31,VSS*%
%TO.N,GND*%
X73660000Y-92710000D03*
%TO.P,U2,32,VDD*%
%TO.N,VDD*%
X73660000Y-95250000D03*
%TO.P,U2,33,RB0*%
%TO.N,unconnected-(U2-Pad33)*%
X73660000Y-97790000D03*
%TO.P,U2,34,RB1*%
%TO.N,unconnected-(U2-Pad34)*%
X73660000Y-100330000D03*
%TO.P,U2,35,RB2*%
%TO.N,unconnected-(U2-Pad35)*%
X73660000Y-102870000D03*
%TO.P,U2,36,RB3*%
%TO.N,unconnected-(U2-Pad36)*%
X73660000Y-105410000D03*
%TO.P,U2,37,RB4*%
%TO.N,unconnected-(U2-Pad37)*%
X73660000Y-107950000D03*
%TO.P,U2,38,RB5*%
%TO.N,unconnected-(U2-Pad38)*%
X73660000Y-110490000D03*
%TO.P,U2,39,RB6/ICSPCLK*%
%TO.N,Net-(J3-Pad5)*%
X73660000Y-113030000D03*
%TO.P,U2,40,RB7/ICSPDAT*%
%TO.N,Net-(J3-Pad4)*%
X73660000Y-115570000D03*
%TD*%
D14*
%TO.P,C2,1*%
%TO.N,GND*%
X70358000Y-92750000D03*
%TO.P,C2,2*%
%TO.N,VDD*%
X70358000Y-95250000D03*
%TD*%
D15*
%TO.P,J4,1,Pin_1*%
%TO.N,/N64_12V_SRC*%
X105029000Y-142922000D03*
D16*
%TO.P,J4,2,Pin_2*%
%TO.N,/N64_12V_DEST*%
X105029000Y-137922000D03*
%TD*%
D11*
%TO.P,J5,1,Pin_1*%
%TO.N,GND*%
X69977000Y-82550000D03*
D10*
%TO.P,J5,2,Pin_2*%
%TO.N,/N64CNT4*%
X69977000Y-80010000D03*
%TO.P,J5,3,Pin_3*%
%TO.N,/N64CNT3*%
X69977000Y-77470000D03*
%TO.P,J5,4,Pin_4*%
%TO.N,/N64CNT2*%
X69977000Y-74930000D03*
%TO.P,J5,5,Pin_5*%
%TO.N,/N64CNT1*%
X69977000Y-72390000D03*
%TD*%
D14*
%TO.P,C3,1*%
%TO.N,GND*%
X92964000Y-86701000D03*
%TO.P,C3,2*%
%TO.N,VDD*%
X92964000Y-84201000D03*
%TD*%
D11*
%TO.P,J1,1,VBUS*%
%TO.N,VDD*%
X97937000Y-80110500D03*
D17*
%TO.P,J1,2,D-*%
%TO.N,/D-*%
X100437000Y-80110500D03*
%TO.P,J1,3,D+*%
%TO.N,/D+*%
X100437000Y-78110500D03*
%TO.P,J1,4,GND*%
%TO.N,GND*%
X97937000Y-78110500D03*
D18*
%TO.P,J1,5,Shield*%
X105207000Y-75400500D03*
X93167000Y-75400500D03*
%TD*%
D14*
%TO.P,R3,1*%
%TO.N,12V_RELAY*%
X67691000Y-135255000D03*
D13*
%TO.P,R3,2*%
%TO.N,Net-(Q2-Pad2)*%
X67691000Y-145415000D03*
%TD*%
D15*
%TO.P,J2,1,Pin_1*%
%TO.N,/N64_3.3V_SRC*%
X105029000Y-128992000D03*
D16*
%TO.P,J2,2,Pin_2*%
%TO.N,/N64_3.3V_DEST*%
X105029000Y-123992000D03*
%TD*%
D19*
%TO.P,D1,1,K*%
%TO.N,VDD*%
X78867000Y-121412000D03*
D20*
%TO.P,D1,2,A*%
%TO.N,Net-(D1-Pad2)*%
X78867000Y-131572000D03*
%TD*%
D21*
%TO.P,K1,1,C*%
%TO.N,/N64_3.3V_SRC*%
X95504000Y-130302000D03*
%TO.P,K1,2,NO*%
%TO.N,/N64_3.3V_DEST*%
X98044000Y-122682000D03*
%TO.P,K1,3,COIL_{A}*%
%TO.N,VDD*%
X82804000Y-122682000D03*
%TO.P,K1,4,COIL_{B}*%
%TO.N,Net-(D1-Pad2)*%
X82804000Y-130302000D03*
%TD*%
D12*
%TO.P,U1,1,VDD*%
%TO.N,VDD*%
X96774000Y-84201000D03*
D13*
%TO.P,U1,2,GP0*%
%TO.N,unconnected-(U1-Pad2)*%
X96774000Y-86741000D03*
%TO.P,U1,3,GP1*%
%TO.N,unconnected-(U1-Pad3)*%
X96774000Y-89281000D03*
%TO.P,U1,4,~{RST}*%
%TO.N,unconnected-(U1-Pad4)*%
X96774000Y-91821000D03*
%TO.P,U1,5,URx*%
%TO.N,UART->USB*%
X96774000Y-94361000D03*
%TO.P,U1,6,UTx*%
%TO.N,UART<-USB*%
X96774000Y-96901000D03*
%TO.P,U1,7,GP2*%
%TO.N,unconnected-(U1-Pad7)*%
X96774000Y-99441000D03*
%TO.P,U1,8,GP3*%
%TO.N,unconnected-(U1-Pad8)*%
X104394000Y-99441000D03*
%TO.P,U1,9,SDA*%
%TO.N,unconnected-(U1-Pad9)*%
X104394000Y-96901000D03*
%TO.P,U1,10,SCL*%
%TO.N,unconnected-(U1-Pad10)*%
X104394000Y-94361000D03*
%TO.P,U1,11,VUSB*%
%TO.N,Net-(C1-Pad2)*%
X104394000Y-91821000D03*
%TO.P,U1,12,D-*%
%TO.N,/D-*%
X104394000Y-89281000D03*
%TO.P,U1,13,D+*%
%TO.N,/D+*%
X104394000Y-86741000D03*
%TO.P,U1,14,VSS*%
%TO.N,GND*%
X104394000Y-84201000D03*
%TD*%
D21*
%TO.P,K2,1,C*%
%TO.N,/N64_12V_SRC*%
X95504000Y-144145000D03*
%TO.P,K2,2,NO*%
%TO.N,/N64_12V_DEST*%
X98044000Y-136525000D03*
%TO.P,K2,3,COIL_{A}*%
%TO.N,VDD*%
X82804000Y-136525000D03*
%TO.P,K2,4,COIL_{B}*%
%TO.N,Net-(D2-Pad2)*%
X82804000Y-144145000D03*
%TD*%
D19*
%TO.P,D2,1,K*%
%TO.N,VDD*%
X78867000Y-135255000D03*
D20*
%TO.P,D2,2,A*%
%TO.N,Net-(D2-Pad2)*%
X78867000Y-145415000D03*
%TD*%
D22*
%TO.P,SW1,1,1*%
%TO.N,GND*%
X97464000Y-111506000D03*
X97464000Y-105006000D03*
%TO.P,SW1,2,2*%
%TO.N,MCU_RESET*%
X92964000Y-111506000D03*
X92964000Y-105006000D03*
%TD*%
D23*
%TO.P,Q2,1,E*%
%TO.N,GND*%
X72771000Y-139065000D03*
D24*
%TO.P,Q2,2,B*%
%TO.N,Net-(Q2-Pad2)*%
X72771000Y-140335000D03*
%TO.P,Q2,3,C*%
%TO.N,Net-(D2-Pad2)*%
X72771000Y-141605000D03*
%TD*%
D14*
%TO.P,C1,1*%
%TO.N,GND*%
X107188000Y-84201000D03*
%TO.P,C1,2*%
%TO.N,Net-(C1-Pad2)*%
X107188000Y-86701000D03*
%TD*%
%TO.P,R2,1*%
%TO.N,VDD*%
X92964000Y-90170000D03*
D13*
%TO.P,R2,2*%
%TO.N,MCU_RESET*%
X92964000Y-100330000D03*
%TD*%
D23*
%TO.P,Q1,1,E*%
%TO.N,GND*%
X72771000Y-125222000D03*
D24*
%TO.P,Q1,2,B*%
%TO.N,Net-(Q1-Pad2)*%
X72771000Y-126492000D03*
%TO.P,Q1,3,C*%
%TO.N,Net-(D1-Pad2)*%
X72771000Y-127762000D03*
%TD*%
D14*
%TO.P,R1,1*%
%TO.N,3.3V_RELAY*%
X67691000Y-121412000D03*
D13*
%TO.P,R1,2*%
%TO.N,Net-(Q1-Pad2)*%
X67691000Y-131572000D03*
%TD*%
D25*
%TO.N,VDD*%
X83820000Y-108585000D03*
X83820000Y-114935000D03*
%TD*%
D26*
%TO.N,MCU_RESET*%
X88900000Y-115570000D02*
X86677500Y-117792500D01*
X86677500Y-117792500D02*
X72199500Y-117792500D01*
X72199500Y-117792500D02*
X69977000Y-115570000D01*
D27*
%TO.N,GND*%
X71247000Y-125222000D02*
X70485000Y-124460000D01*
X70485000Y-124460000D02*
X70485000Y-117983000D01*
X71247000Y-139065000D02*
X70485000Y-138303000D01*
X71247000Y-125222000D02*
X72771000Y-125222000D01*
X70485000Y-125984000D02*
X71247000Y-125222000D01*
X70485000Y-138303000D02*
X70485000Y-125984000D01*
X72771000Y-139065000D02*
X71247000Y-139065000D01*
%TO.N,VDD*%
X88900000Y-90170000D02*
X92964000Y-90170000D01*
X83820000Y-108585000D02*
X83820000Y-114935000D01*
%TO.N,Net-(D1-Pad2)*%
X75057000Y-127762000D02*
X78867000Y-131572000D01*
X72771000Y-127762000D02*
X75057000Y-127762000D01*
%TO.N,Net-(D2-Pad2)*%
X72771000Y-141605000D02*
X75057000Y-141605000D01*
X75057000Y-141605000D02*
X78867000Y-145415000D01*
%TD*%
%TA.AperFunction,Conductor*%
%TO.N,GND*%
G36*
X108263511Y-65552002D02*
G01*
X108284485Y-65568905D01*
X109056095Y-66340515D01*
X109090121Y-66402827D01*
X109093000Y-66429610D01*
X109093000Y-118746000D01*
X109072998Y-118814121D01*
X109019342Y-118860614D01*
X108967000Y-118872000D01*
X66166000Y-118872000D01*
X66097879Y-118851998D01*
X66051386Y-118798342D01*
X66040000Y-118746000D01*
X66040000Y-112996695D01*
X68614251Y-112996695D01*
X68614548Y-113001848D01*
X68614548Y-113001851D01*
X68620011Y-113096590D01*
X68627110Y-113219715D01*
X68628247Y-113224761D01*
X68628248Y-113224767D01*
X68636955Y-113263402D01*
X68676222Y-113437639D01*
X68760266Y-113644616D01*
X68876987Y-113835088D01*
X69023250Y-114003938D01*
X69027230Y-114007242D01*
X69031981Y-114011187D01*
X69071616Y-114070090D01*
X69073113Y-114141071D01*
X69035997Y-114201593D01*
X68995725Y-114226112D01*
X68901328Y-114261500D01*
X68880295Y-114269385D01*
X68763739Y-114356739D01*
X68676385Y-114473295D01*
X68625255Y-114609684D01*
X68618500Y-114671866D01*
X68618500Y-116468134D01*
X68625255Y-116530316D01*
X68676385Y-116666705D01*
X68763739Y-116783261D01*
X68880295Y-116870615D01*
X69016684Y-116921745D01*
X69078866Y-116928500D01*
X70387406Y-116928500D01*
X70455527Y-116948502D01*
X70476501Y-116965405D01*
X71695843Y-118184747D01*
X71703387Y-118193037D01*
X71707500Y-118199518D01*
X71713277Y-118204943D01*
X71757167Y-118246158D01*
X71760009Y-118248913D01*
X71779731Y-118268635D01*
X71782855Y-118271058D01*
X71782859Y-118271062D01*
X71782924Y-118271112D01*
X71791945Y-118278817D01*
X71824179Y-118309086D01*
X71831127Y-118312905D01*
X71831129Y-118312907D01*
X71841932Y-118318846D01*
X71858459Y-118329702D01*
X71868198Y-118337257D01*
X71868200Y-118337258D01*
X71874460Y-118342114D01*
X71915040Y-118359674D01*
X71925688Y-118364891D01*
X71950476Y-118378518D01*
X71964440Y-118386195D01*
X71972116Y-118388166D01*
X71972119Y-118388167D01*
X71984062Y-118391233D01*
X72002767Y-118397637D01*
X72021355Y-118405681D01*
X72029178Y-118406920D01*
X72029188Y-118406923D01*
X72065024Y-118412599D01*
X72076644Y-118415005D01*
X72108459Y-118423173D01*
X72119470Y-118426000D01*
X72139724Y-118426000D01*
X72159434Y-118427551D01*
X72179443Y-118430720D01*
X72187335Y-118429974D01*
X72206080Y-118428202D01*
X72223462Y-118426559D01*
X72235319Y-118426000D01*
X86598733Y-118426000D01*
X86609916Y-118426527D01*
X86617409Y-118428202D01*
X86625335Y-118427953D01*
X86625336Y-118427953D01*
X86685486Y-118426062D01*
X86689445Y-118426000D01*
X86717356Y-118426000D01*
X86721291Y-118425503D01*
X86721356Y-118425495D01*
X86733193Y-118424562D01*
X86765451Y-118423548D01*
X86769470Y-118423422D01*
X86777389Y-118423173D01*
X86796843Y-118417521D01*
X86816200Y-118413513D01*
X86828430Y-118411968D01*
X86828431Y-118411968D01*
X86836297Y-118410974D01*
X86843668Y-118408055D01*
X86843670Y-118408055D01*
X86877412Y-118394696D01*
X86888642Y-118390851D01*
X86923483Y-118380729D01*
X86923484Y-118380729D01*
X86931093Y-118378518D01*
X86937912Y-118374485D01*
X86937917Y-118374483D01*
X86948528Y-118368207D01*
X86966276Y-118359512D01*
X86985117Y-118352052D01*
X87020887Y-118326064D01*
X87030807Y-118319548D01*
X87062035Y-118301080D01*
X87062038Y-118301078D01*
X87068862Y-118297042D01*
X87083183Y-118282721D01*
X87098217Y-118269880D01*
X87099931Y-118268635D01*
X87114607Y-118257972D01*
X87142798Y-118223895D01*
X87150788Y-118215116D01*
X88450499Y-116915405D01*
X88512811Y-116881379D01*
X88539594Y-116878500D01*
X89748134Y-116878500D01*
X89810316Y-116871745D01*
X89946705Y-116820615D01*
X90063261Y-116733261D01*
X90150615Y-116616705D01*
X90201745Y-116480316D01*
X90208500Y-116418134D01*
X90208500Y-114721866D01*
X90201745Y-114659684D01*
X90150615Y-114523295D01*
X90063261Y-114406739D01*
X89946705Y-114319385D01*
X89810316Y-114268255D01*
X89799526Y-114267083D01*
X89797394Y-114266197D01*
X89794778Y-114265575D01*
X89794879Y-114265152D01*
X89733965Y-114239845D01*
X89693537Y-114181483D01*
X89691078Y-114110529D01*
X89727371Y-114049510D01*
X89736031Y-114042511D01*
X89739793Y-114039354D01*
X89744300Y-114036198D01*
X89906198Y-113874300D01*
X89930923Y-113838990D01*
X90034366Y-113691257D01*
X90037523Y-113686749D01*
X90039846Y-113681767D01*
X90039849Y-113681762D01*
X90131961Y-113484225D01*
X90131961Y-113484224D01*
X90134284Y-113479243D01*
X90144150Y-113442425D01*
X90192119Y-113263402D01*
X90192119Y-113263400D01*
X90193543Y-113258087D01*
X90213498Y-113030000D01*
X90193543Y-112801913D01*
X90187593Y-112779707D01*
X90135707Y-112586067D01*
X90135706Y-112586065D01*
X90134284Y-112580757D01*
X90122092Y-112554610D01*
X90039849Y-112378238D01*
X90039846Y-112378233D01*
X90037523Y-112373251D01*
X89964098Y-112268389D01*
X89909357Y-112190211D01*
X89909355Y-112190208D01*
X89906198Y-112185700D01*
X89744300Y-112023802D01*
X89739792Y-112020645D01*
X89739789Y-112020643D01*
X89661611Y-111965902D01*
X89556749Y-111892477D01*
X89551767Y-111890154D01*
X89551762Y-111890151D01*
X89517543Y-111874195D01*
X89464258Y-111827278D01*
X89444797Y-111759001D01*
X89465339Y-111691041D01*
X89517543Y-111645805D01*
X89551762Y-111629849D01*
X89551767Y-111629846D01*
X89556749Y-111627523D01*
X89661611Y-111554098D01*
X89730302Y-111506000D01*
X91450835Y-111506000D01*
X91469465Y-111742711D01*
X91470619Y-111747518D01*
X91470620Y-111747524D01*
X91502332Y-111879612D01*
X91524895Y-111973594D01*
X91526788Y-111978165D01*
X91526789Y-111978167D01*
X91612752Y-112185700D01*
X91615760Y-112192963D01*
X91618346Y-112197183D01*
X91737241Y-112391202D01*
X91737245Y-112391208D01*
X91739824Y-112395416D01*
X91894031Y-112575969D01*
X92074584Y-112730176D01*
X92078792Y-112732755D01*
X92078798Y-112732759D01*
X92272603Y-112851523D01*
X92277037Y-112854240D01*
X92281607Y-112856133D01*
X92281611Y-112856135D01*
X92491833Y-112943211D01*
X92496406Y-112945105D01*
X92576609Y-112964360D01*
X92722476Y-112999380D01*
X92722482Y-112999381D01*
X92727289Y-113000535D01*
X92964000Y-113019165D01*
X93200711Y-113000535D01*
X93205518Y-112999381D01*
X93205524Y-112999380D01*
X93351391Y-112964360D01*
X93431594Y-112945105D01*
X93436167Y-112943211D01*
X93646389Y-112856135D01*
X93646393Y-112856133D01*
X93650963Y-112854240D01*
X93655397Y-112851523D01*
X93667690Y-112843990D01*
X96768026Y-112843990D01*
X96773665Y-112851523D01*
X96781836Y-112855686D01*
X96991988Y-112942734D01*
X97001373Y-112945783D01*
X97222554Y-112998885D01*
X97232301Y-113000428D01*
X97459070Y-113018275D01*
X97468930Y-113018275D01*
X97695699Y-113000428D01*
X97705446Y-112998885D01*
X97926627Y-112945783D01*
X97936012Y-112942734D01*
X98146164Y-112855686D01*
X98151339Y-112853050D01*
X98160040Y-112843431D01*
X98156256Y-112834652D01*
X97476812Y-112155208D01*
X97462868Y-112147594D01*
X97461035Y-112147725D01*
X97454420Y-112151976D01*
X96774786Y-112831610D01*
X96768026Y-112843990D01*
X93667690Y-112843990D01*
X93849202Y-112732759D01*
X93849208Y-112732755D01*
X93853416Y-112730176D01*
X94033969Y-112575969D01*
X94188176Y-112395416D01*
X94190755Y-112391208D01*
X94190759Y-112391202D01*
X94309654Y-112197183D01*
X94312240Y-112192963D01*
X94315249Y-112185700D01*
X94401211Y-111978167D01*
X94401212Y-111978165D01*
X94403105Y-111973594D01*
X94425668Y-111879612D01*
X94457380Y-111747524D01*
X94457381Y-111747518D01*
X94458535Y-111742711D01*
X94476777Y-111510930D01*
X95951725Y-111510930D01*
X95969572Y-111737699D01*
X95971115Y-111747446D01*
X96024217Y-111968627D01*
X96027266Y-111978012D01*
X96114314Y-112188164D01*
X96116950Y-112193339D01*
X96126569Y-112202040D01*
X96135348Y-112198256D01*
X96814792Y-111518812D01*
X96821170Y-111507132D01*
X98105594Y-111507132D01*
X98105725Y-111508965D01*
X98109976Y-111515580D01*
X98789610Y-112195214D01*
X98801990Y-112201974D01*
X98809523Y-112196335D01*
X98813686Y-112188164D01*
X98900734Y-111978012D01*
X98903783Y-111968627D01*
X98956885Y-111747446D01*
X98958428Y-111737699D01*
X98976275Y-111510930D01*
X98976275Y-111501070D01*
X98958428Y-111274301D01*
X98956885Y-111264554D01*
X98903783Y-111043373D01*
X98900734Y-111033988D01*
X98813686Y-110823836D01*
X98811050Y-110818661D01*
X98801431Y-110809960D01*
X98792652Y-110813744D01*
X98113208Y-111493188D01*
X98105594Y-111507132D01*
X96821170Y-111507132D01*
X96822406Y-111504868D01*
X96822275Y-111503035D01*
X96818024Y-111496420D01*
X96138390Y-110816786D01*
X96126010Y-110810026D01*
X96118477Y-110815665D01*
X96114314Y-110823836D01*
X96027266Y-111033988D01*
X96024217Y-111043373D01*
X95971115Y-111264554D01*
X95969572Y-111274301D01*
X95951725Y-111501070D01*
X95951725Y-111510930D01*
X94476777Y-111510930D01*
X94477165Y-111506000D01*
X94458535Y-111269289D01*
X94403105Y-111038406D01*
X94385651Y-110996268D01*
X94314135Y-110823611D01*
X94314133Y-110823607D01*
X94312240Y-110819037D01*
X94309651Y-110814812D01*
X94190759Y-110620798D01*
X94190755Y-110620792D01*
X94188176Y-110616584D01*
X94033969Y-110436031D01*
X93853416Y-110281824D01*
X93849208Y-110279245D01*
X93849202Y-110279241D01*
X93668602Y-110168569D01*
X96767960Y-110168569D01*
X96771744Y-110177348D01*
X97451188Y-110856792D01*
X97465132Y-110864406D01*
X97466965Y-110864275D01*
X97473580Y-110860024D01*
X98153214Y-110180390D01*
X98159974Y-110168010D01*
X98154335Y-110160477D01*
X98146164Y-110156314D01*
X97936012Y-110069266D01*
X97926627Y-110066217D01*
X97705446Y-110013115D01*
X97695699Y-110011572D01*
X97468930Y-109993725D01*
X97459070Y-109993725D01*
X97232301Y-110011572D01*
X97222554Y-110013115D01*
X97001373Y-110066217D01*
X96991988Y-110069266D01*
X96781836Y-110156314D01*
X96776661Y-110158950D01*
X96767960Y-110168569D01*
X93668602Y-110168569D01*
X93655183Y-110160346D01*
X93650963Y-110157760D01*
X93646393Y-110155867D01*
X93646389Y-110155865D01*
X93436167Y-110068789D01*
X93436165Y-110068788D01*
X93431594Y-110066895D01*
X93344839Y-110046067D01*
X93205524Y-110012620D01*
X93205518Y-110012619D01*
X93200711Y-110011465D01*
X92964000Y-109992835D01*
X92727289Y-110011465D01*
X92722482Y-110012619D01*
X92722476Y-110012620D01*
X92583161Y-110046067D01*
X92496406Y-110066895D01*
X92491835Y-110068788D01*
X92491833Y-110068789D01*
X92281611Y-110155865D01*
X92281607Y-110155867D01*
X92277037Y-110157760D01*
X92272817Y-110160346D01*
X92078798Y-110279241D01*
X92078792Y-110279245D01*
X92074584Y-110281824D01*
X91894031Y-110436031D01*
X91739824Y-110616584D01*
X91737245Y-110620792D01*
X91737241Y-110620798D01*
X91618349Y-110814812D01*
X91615760Y-110819037D01*
X91613867Y-110823607D01*
X91613865Y-110823611D01*
X91542349Y-110996268D01*
X91524895Y-111038406D01*
X91469465Y-111269289D01*
X91450835Y-111506000D01*
X89730302Y-111506000D01*
X89739789Y-111499357D01*
X89739792Y-111499355D01*
X89744300Y-111496198D01*
X89906198Y-111334300D01*
X89948265Y-111274223D01*
X90003023Y-111196020D01*
X90037523Y-111146749D01*
X90039846Y-111141767D01*
X90039849Y-111141762D01*
X90131961Y-110944225D01*
X90131961Y-110944224D01*
X90134284Y-110939243D01*
X90165208Y-110823836D01*
X90192119Y-110723402D01*
X90192119Y-110723400D01*
X90193543Y-110718087D01*
X90213498Y-110490000D01*
X90193543Y-110261913D01*
X90170884Y-110177348D01*
X90135707Y-110046067D01*
X90135706Y-110046065D01*
X90134284Y-110040757D01*
X90126001Y-110022994D01*
X90039849Y-109838238D01*
X90039846Y-109838233D01*
X90037523Y-109833251D01*
X89906198Y-109645700D01*
X89744300Y-109483802D01*
X89739792Y-109480645D01*
X89739789Y-109480643D01*
X89661611Y-109425902D01*
X89556749Y-109352477D01*
X89551767Y-109350154D01*
X89551762Y-109350151D01*
X89517543Y-109334195D01*
X89464258Y-109287278D01*
X89444797Y-109219001D01*
X89465339Y-109151041D01*
X89517543Y-109105805D01*
X89551762Y-109089849D01*
X89551767Y-109089846D01*
X89556749Y-109087523D01*
X89699555Y-108987529D01*
X89739789Y-108959357D01*
X89739792Y-108959355D01*
X89744300Y-108956198D01*
X89906198Y-108794300D01*
X89919763Y-108774928D01*
X90034366Y-108611257D01*
X90037523Y-108606749D01*
X90039846Y-108601767D01*
X90039849Y-108601762D01*
X90131961Y-108404225D01*
X90131961Y-108404224D01*
X90134284Y-108399243D01*
X90144150Y-108362425D01*
X90192119Y-108183402D01*
X90192119Y-108183400D01*
X90193543Y-108178087D01*
X90213498Y-107950000D01*
X90193543Y-107721913D01*
X90187593Y-107699707D01*
X90135707Y-107506067D01*
X90135706Y-107506065D01*
X90134284Y-107500757D01*
X90122092Y-107474610D01*
X90039849Y-107298238D01*
X90039846Y-107298233D01*
X90037523Y-107293251D01*
X89964098Y-107188389D01*
X89909357Y-107110211D01*
X89909355Y-107110208D01*
X89906198Y-107105700D01*
X89744300Y-106943802D01*
X89739792Y-106940645D01*
X89739789Y-106940643D01*
X89661611Y-106885902D01*
X89556749Y-106812477D01*
X89551767Y-106810154D01*
X89551762Y-106810151D01*
X89517543Y-106794195D01*
X89464258Y-106747278D01*
X89444797Y-106679001D01*
X89465339Y-106611041D01*
X89517543Y-106565805D01*
X89551762Y-106549849D01*
X89551767Y-106549846D01*
X89556749Y-106547523D01*
X89701367Y-106446260D01*
X89739789Y-106419357D01*
X89739792Y-106419355D01*
X89744300Y-106416198D01*
X89906198Y-106254300D01*
X89930923Y-106218990D01*
X90009032Y-106107438D01*
X90037523Y-106066749D01*
X90039846Y-106061767D01*
X90039849Y-106061762D01*
X90131961Y-105864225D01*
X90131961Y-105864224D01*
X90134284Y-105859243D01*
X90144150Y-105822425D01*
X90192119Y-105643402D01*
X90192119Y-105643400D01*
X90193543Y-105638087D01*
X90213498Y-105410000D01*
X90193543Y-105181913D01*
X90187593Y-105159707D01*
X90146407Y-105006000D01*
X91450835Y-105006000D01*
X91469465Y-105242711D01*
X91524895Y-105473594D01*
X91526788Y-105478165D01*
X91526789Y-105478167D01*
X91598783Y-105651976D01*
X91615760Y-105692963D01*
X91618346Y-105697183D01*
X91737241Y-105891202D01*
X91737245Y-105891208D01*
X91739824Y-105895416D01*
X91894031Y-106075969D01*
X92074584Y-106230176D01*
X92078792Y-106232755D01*
X92078798Y-106232759D01*
X92272603Y-106351523D01*
X92277037Y-106354240D01*
X92281607Y-106356133D01*
X92281611Y-106356135D01*
X92491833Y-106443211D01*
X92496406Y-106445105D01*
X92534169Y-106454171D01*
X92722476Y-106499380D01*
X92722482Y-106499381D01*
X92727289Y-106500535D01*
X92964000Y-106519165D01*
X93200711Y-106500535D01*
X93205518Y-106499381D01*
X93205524Y-106499380D01*
X93393831Y-106454171D01*
X93431594Y-106445105D01*
X93436167Y-106443211D01*
X93646389Y-106356135D01*
X93646393Y-106356133D01*
X93650963Y-106354240D01*
X93655397Y-106351523D01*
X93667690Y-106343990D01*
X96768026Y-106343990D01*
X96773665Y-106351523D01*
X96781836Y-106355686D01*
X96991988Y-106442734D01*
X97001373Y-106445783D01*
X97222554Y-106498885D01*
X97232301Y-106500428D01*
X97459070Y-106518275D01*
X97468930Y-106518275D01*
X97695699Y-106500428D01*
X97705446Y-106498885D01*
X97926627Y-106445783D01*
X97936012Y-106442734D01*
X98146164Y-106355686D01*
X98151339Y-106353050D01*
X98160040Y-106343431D01*
X98156256Y-106334652D01*
X97476812Y-105655208D01*
X97462868Y-105647594D01*
X97461035Y-105647725D01*
X97454420Y-105651976D01*
X96774786Y-106331610D01*
X96768026Y-106343990D01*
X93667690Y-106343990D01*
X93849202Y-106232759D01*
X93849208Y-106232755D01*
X93853416Y-106230176D01*
X94033969Y-106075969D01*
X94188176Y-105895416D01*
X94190755Y-105891208D01*
X94190759Y-105891202D01*
X94309654Y-105697183D01*
X94312240Y-105692963D01*
X94329218Y-105651976D01*
X94401211Y-105478167D01*
X94401212Y-105478165D01*
X94403105Y-105473594D01*
X94458535Y-105242711D01*
X94476777Y-105010930D01*
X95951725Y-105010930D01*
X95969572Y-105237699D01*
X95971115Y-105247446D01*
X96024217Y-105468627D01*
X96027266Y-105478012D01*
X96114314Y-105688164D01*
X96116950Y-105693339D01*
X96126569Y-105702040D01*
X96135348Y-105698256D01*
X96814792Y-105018812D01*
X96821170Y-105007132D01*
X98105594Y-105007132D01*
X98105725Y-105008965D01*
X98109976Y-105015580D01*
X98789610Y-105695214D01*
X98801990Y-105701974D01*
X98809523Y-105696335D01*
X98813686Y-105688164D01*
X98900734Y-105478012D01*
X98903783Y-105468627D01*
X98956885Y-105247446D01*
X98958428Y-105237699D01*
X98976275Y-105010930D01*
X98976275Y-105001070D01*
X98958428Y-104774301D01*
X98956885Y-104764554D01*
X98903783Y-104543373D01*
X98900734Y-104533988D01*
X98813686Y-104323836D01*
X98811050Y-104318661D01*
X98801431Y-104309960D01*
X98792652Y-104313744D01*
X98113208Y-104993188D01*
X98105594Y-105007132D01*
X96821170Y-105007132D01*
X96822406Y-105004868D01*
X96822275Y-105003035D01*
X96818024Y-104996420D01*
X96138390Y-104316786D01*
X96126010Y-104310026D01*
X96118477Y-104315665D01*
X96114314Y-104323836D01*
X96027266Y-104533988D01*
X96024217Y-104543373D01*
X95971115Y-104764554D01*
X95969572Y-104774301D01*
X95951725Y-105001070D01*
X95951725Y-105010930D01*
X94476777Y-105010930D01*
X94477165Y-105006000D01*
X94458535Y-104769289D01*
X94456664Y-104761492D01*
X94408722Y-104561803D01*
X94403105Y-104538406D01*
X94401211Y-104533833D01*
X94314135Y-104323611D01*
X94314133Y-104323607D01*
X94312240Y-104319037D01*
X94309651Y-104314812D01*
X94190759Y-104120798D01*
X94190755Y-104120792D01*
X94188176Y-104116584D01*
X94033969Y-103936031D01*
X93853416Y-103781824D01*
X93849208Y-103779245D01*
X93849202Y-103779241D01*
X93668602Y-103668569D01*
X96767960Y-103668569D01*
X96771744Y-103677348D01*
X97451188Y-104356792D01*
X97465132Y-104364406D01*
X97466965Y-104364275D01*
X97473580Y-104360024D01*
X98153214Y-103680390D01*
X98159974Y-103668010D01*
X98154335Y-103660477D01*
X98146164Y-103656314D01*
X97936012Y-103569266D01*
X97926627Y-103566217D01*
X97705446Y-103513115D01*
X97695699Y-103511572D01*
X97468930Y-103493725D01*
X97459070Y-103493725D01*
X97232301Y-103511572D01*
X97222554Y-103513115D01*
X97001373Y-103566217D01*
X96991988Y-103569266D01*
X96781836Y-103656314D01*
X96776661Y-103658950D01*
X96767960Y-103668569D01*
X93668602Y-103668569D01*
X93655183Y-103660346D01*
X93650963Y-103657760D01*
X93646393Y-103655867D01*
X93646389Y-103655865D01*
X93436167Y-103568789D01*
X93436165Y-103568788D01*
X93431594Y-103566895D01*
X93351391Y-103547640D01*
X93205524Y-103512620D01*
X93205518Y-103512619D01*
X93200711Y-103511465D01*
X92964000Y-103492835D01*
X92727289Y-103511465D01*
X92722482Y-103512619D01*
X92722476Y-103512620D01*
X92576609Y-103547640D01*
X92496406Y-103566895D01*
X92491835Y-103568788D01*
X92491833Y-103568789D01*
X92281611Y-103655865D01*
X92281607Y-103655867D01*
X92277037Y-103657760D01*
X92272817Y-103660346D01*
X92078798Y-103779241D01*
X92078792Y-103779245D01*
X92074584Y-103781824D01*
X91894031Y-103936031D01*
X91739824Y-104116584D01*
X91737245Y-104120792D01*
X91737241Y-104120798D01*
X91618349Y-104314812D01*
X91615760Y-104319037D01*
X91613867Y-104323607D01*
X91613865Y-104323611D01*
X91526789Y-104533833D01*
X91524895Y-104538406D01*
X91519278Y-104561803D01*
X91471337Y-104761492D01*
X91469465Y-104769289D01*
X91450835Y-105006000D01*
X90146407Y-105006000D01*
X90135707Y-104966067D01*
X90135706Y-104966065D01*
X90134284Y-104960757D01*
X90047339Y-104774301D01*
X90039849Y-104758238D01*
X90039846Y-104758233D01*
X90037523Y-104753251D01*
X89964098Y-104648389D01*
X89909357Y-104570211D01*
X89909355Y-104570208D01*
X89906198Y-104565700D01*
X89744300Y-104403802D01*
X89739792Y-104400645D01*
X89739789Y-104400643D01*
X89622706Y-104318661D01*
X89556749Y-104272477D01*
X89551767Y-104270154D01*
X89551762Y-104270151D01*
X89517543Y-104254195D01*
X89464258Y-104207278D01*
X89444797Y-104139001D01*
X89465339Y-104071041D01*
X89517543Y-104025805D01*
X89551762Y-104009849D01*
X89551767Y-104009846D01*
X89556749Y-104007523D01*
X89699555Y-103907529D01*
X89739789Y-103879357D01*
X89739792Y-103879355D01*
X89744300Y-103876198D01*
X89906198Y-103714300D01*
X89930923Y-103678990D01*
X90034366Y-103531257D01*
X90037523Y-103526749D01*
X90039846Y-103521767D01*
X90039849Y-103521762D01*
X90131961Y-103324225D01*
X90131961Y-103324224D01*
X90134284Y-103319243D01*
X90144150Y-103282425D01*
X90192119Y-103103402D01*
X90192119Y-103103400D01*
X90193543Y-103098087D01*
X90213498Y-102870000D01*
X90193543Y-102641913D01*
X90187593Y-102619707D01*
X90135707Y-102426067D01*
X90135706Y-102426065D01*
X90134284Y-102420757D01*
X90122092Y-102394610D01*
X90039849Y-102218238D01*
X90039846Y-102218233D01*
X90037523Y-102213251D01*
X89964098Y-102108389D01*
X89909357Y-102030211D01*
X89909355Y-102030208D01*
X89906198Y-102025700D01*
X89744300Y-101863802D01*
X89739792Y-101860645D01*
X89739789Y-101860643D01*
X89661611Y-101805902D01*
X89556749Y-101732477D01*
X89551767Y-101730154D01*
X89551762Y-101730151D01*
X89517543Y-101714195D01*
X89464258Y-101667278D01*
X89444797Y-101599001D01*
X89465339Y-101531041D01*
X89517543Y-101485805D01*
X89551762Y-101469849D01*
X89551767Y-101469846D01*
X89556749Y-101467523D01*
X89661611Y-101394098D01*
X89739789Y-101339357D01*
X89739792Y-101339355D01*
X89744300Y-101336198D01*
X89906198Y-101174300D01*
X90037523Y-100986749D01*
X90039846Y-100981767D01*
X90039849Y-100981762D01*
X90131961Y-100784225D01*
X90131961Y-100784224D01*
X90134284Y-100779243D01*
X90140915Y-100754498D01*
X90192119Y-100563402D01*
X90192119Y-100563400D01*
X90193543Y-100558087D01*
X90213498Y-100330000D01*
X91650502Y-100330000D01*
X91670457Y-100558087D01*
X91671881Y-100563400D01*
X91671881Y-100563402D01*
X91723086Y-100754498D01*
X91729716Y-100779243D01*
X91732039Y-100784224D01*
X91732039Y-100784225D01*
X91824151Y-100981762D01*
X91824154Y-100981767D01*
X91826477Y-100986749D01*
X91957802Y-101174300D01*
X92119700Y-101336198D01*
X92124208Y-101339355D01*
X92124211Y-101339357D01*
X92202389Y-101394098D01*
X92307251Y-101467523D01*
X92312233Y-101469846D01*
X92312238Y-101469849D01*
X92492263Y-101553795D01*
X92514757Y-101564284D01*
X92520065Y-101565706D01*
X92520067Y-101565707D01*
X92730598Y-101622119D01*
X92730600Y-101622119D01*
X92735913Y-101623543D01*
X92964000Y-101643498D01*
X93192087Y-101623543D01*
X93197400Y-101622119D01*
X93197402Y-101622119D01*
X93407933Y-101565707D01*
X93407935Y-101565706D01*
X93413243Y-101564284D01*
X93435737Y-101553795D01*
X93615762Y-101469849D01*
X93615767Y-101469846D01*
X93620749Y-101467523D01*
X93725611Y-101394098D01*
X93803789Y-101339357D01*
X93803792Y-101339355D01*
X93808300Y-101336198D01*
X93970198Y-101174300D01*
X94101523Y-100986749D01*
X94103846Y-100981767D01*
X94103849Y-100981762D01*
X94195961Y-100784225D01*
X94195961Y-100784224D01*
X94198284Y-100779243D01*
X94204915Y-100754498D01*
X94256119Y-100563402D01*
X94256119Y-100563400D01*
X94257543Y-100558087D01*
X94277498Y-100330000D01*
X94257543Y-100101913D01*
X94198284Y-99880757D01*
X94195961Y-99875775D01*
X94103849Y-99678238D01*
X94103846Y-99678233D01*
X94101523Y-99673251D01*
X93970198Y-99485700D01*
X93925498Y-99441000D01*
X95460502Y-99441000D01*
X95480457Y-99669087D01*
X95539716Y-99890243D01*
X95542039Y-99895224D01*
X95542039Y-99895225D01*
X95634151Y-100092762D01*
X95634154Y-100092767D01*
X95636477Y-100097749D01*
X95767802Y-100285300D01*
X95929700Y-100447198D01*
X95934208Y-100450355D01*
X95934211Y-100450357D01*
X96012389Y-100505098D01*
X96117251Y-100578523D01*
X96122233Y-100580846D01*
X96122238Y-100580849D01*
X96319775Y-100672961D01*
X96324757Y-100675284D01*
X96330065Y-100676706D01*
X96330067Y-100676707D01*
X96540598Y-100733119D01*
X96540600Y-100733119D01*
X96545913Y-100734543D01*
X96774000Y-100754498D01*
X97002087Y-100734543D01*
X97007400Y-100733119D01*
X97007402Y-100733119D01*
X97217933Y-100676707D01*
X97217935Y-100676706D01*
X97223243Y-100675284D01*
X97228225Y-100672961D01*
X97425762Y-100580849D01*
X97425767Y-100580846D01*
X97430749Y-100578523D01*
X97535611Y-100505098D01*
X97613789Y-100450357D01*
X97613792Y-100450355D01*
X97618300Y-100447198D01*
X97780198Y-100285300D01*
X97911523Y-100097749D01*
X97913846Y-100092767D01*
X97913849Y-100092762D01*
X98005961Y-99895225D01*
X98005961Y-99895224D01*
X98008284Y-99890243D01*
X98067543Y-99669087D01*
X98087498Y-99441000D01*
X103080502Y-99441000D01*
X103100457Y-99669087D01*
X103159716Y-99890243D01*
X103162039Y-99895224D01*
X103162039Y-99895225D01*
X103254151Y-100092762D01*
X103254154Y-100092767D01*
X103256477Y-100097749D01*
X103387802Y-100285300D01*
X103549700Y-100447198D01*
X103554208Y-100450355D01*
X103554211Y-100450357D01*
X103632389Y-100505098D01*
X103737251Y-100578523D01*
X103742233Y-100580846D01*
X103742238Y-100580849D01*
X103939775Y-100672961D01*
X103944757Y-100675284D01*
X103950065Y-100676706D01*
X103950067Y-100676707D01*
X104160598Y-100733119D01*
X104160600Y-100733119D01*
X104165913Y-100734543D01*
X104394000Y-100754498D01*
X104622087Y-100734543D01*
X104627400Y-100733119D01*
X104627402Y-100733119D01*
X104837933Y-100676707D01*
X104837935Y-100676706D01*
X104843243Y-100675284D01*
X104848225Y-100672961D01*
X105045762Y-100580849D01*
X105045767Y-100580846D01*
X105050749Y-100578523D01*
X105155611Y-100505098D01*
X105233789Y-100450357D01*
X105233792Y-100450355D01*
X105238300Y-100447198D01*
X105400198Y-100285300D01*
X105531523Y-100097749D01*
X105533846Y-100092767D01*
X105533849Y-100092762D01*
X105625961Y-99895225D01*
X105625961Y-99895224D01*
X105628284Y-99890243D01*
X105687543Y-99669087D01*
X105707498Y-99441000D01*
X105687543Y-99212913D01*
X105681444Y-99190151D01*
X105629707Y-98997067D01*
X105629706Y-98997065D01*
X105628284Y-98991757D01*
X105625961Y-98986775D01*
X105533849Y-98789238D01*
X105533846Y-98789233D01*
X105531523Y-98784251D01*
X105400198Y-98596700D01*
X105238300Y-98434802D01*
X105233792Y-98431645D01*
X105233789Y-98431643D01*
X105155611Y-98376902D01*
X105050749Y-98303477D01*
X105045767Y-98301154D01*
X105045762Y-98301151D01*
X105011543Y-98285195D01*
X104958258Y-98238278D01*
X104938797Y-98170001D01*
X104959339Y-98102041D01*
X105011543Y-98056805D01*
X105045762Y-98040849D01*
X105045767Y-98040846D01*
X105050749Y-98038523D01*
X105155611Y-97965098D01*
X105233789Y-97910357D01*
X105233792Y-97910355D01*
X105238300Y-97907198D01*
X105400198Y-97745300D01*
X105531523Y-97557749D01*
X105533846Y-97552767D01*
X105533849Y-97552762D01*
X105625961Y-97355225D01*
X105625961Y-97355224D01*
X105628284Y-97350243D01*
X105687543Y-97129087D01*
X105707498Y-96901000D01*
X105687543Y-96672913D01*
X105681444Y-96650151D01*
X105629707Y-96457067D01*
X105629706Y-96457065D01*
X105628284Y-96451757D01*
X105625961Y-96446775D01*
X105533849Y-96249238D01*
X105533846Y-96249233D01*
X105531523Y-96244251D01*
X105400198Y-96056700D01*
X105238300Y-95894802D01*
X105233792Y-95891645D01*
X105233789Y-95891643D01*
X105155611Y-95836902D01*
X105050749Y-95763477D01*
X105045767Y-95761154D01*
X105045762Y-95761151D01*
X105011543Y-95745195D01*
X104958258Y-95698278D01*
X104938797Y-95630001D01*
X104959339Y-95562041D01*
X105011543Y-95516805D01*
X105045762Y-95500849D01*
X105045767Y-95500846D01*
X105050749Y-95498523D01*
X105155611Y-95425098D01*
X105233789Y-95370357D01*
X105233792Y-95370355D01*
X105238300Y-95367198D01*
X105400198Y-95205300D01*
X105531523Y-95017749D01*
X105533846Y-95012767D01*
X105533849Y-95012762D01*
X105625961Y-94815225D01*
X105625961Y-94815224D01*
X105628284Y-94810243D01*
X105687543Y-94589087D01*
X105707498Y-94361000D01*
X105687543Y-94132913D01*
X105681444Y-94110151D01*
X105629707Y-93917067D01*
X105629706Y-93917065D01*
X105628284Y-93911757D01*
X105625961Y-93906775D01*
X105533849Y-93709238D01*
X105533846Y-93709233D01*
X105531523Y-93704251D01*
X105400198Y-93516700D01*
X105238300Y-93354802D01*
X105233792Y-93351645D01*
X105233789Y-93351643D01*
X105136932Y-93283823D01*
X105050749Y-93223477D01*
X105045767Y-93221154D01*
X105045762Y-93221151D01*
X105011543Y-93205195D01*
X104958258Y-93158278D01*
X104938797Y-93090001D01*
X104959339Y-93022041D01*
X105011543Y-92976805D01*
X105045762Y-92960849D01*
X105045767Y-92960846D01*
X105050749Y-92958523D01*
X105155611Y-92885098D01*
X105233789Y-92830357D01*
X105233792Y-92830355D01*
X105238300Y-92827198D01*
X105400198Y-92665300D01*
X105531523Y-92477749D01*
X105533846Y-92472767D01*
X105533849Y-92472762D01*
X105625961Y-92275225D01*
X105625961Y-92275224D01*
X105628284Y-92270243D01*
X105631693Y-92257523D01*
X105686119Y-92054402D01*
X105686119Y-92054400D01*
X105687543Y-92049087D01*
X105707498Y-91821000D01*
X105687543Y-91592913D01*
X105681673Y-91571006D01*
X105629707Y-91377067D01*
X105629706Y-91377065D01*
X105628284Y-91371757D01*
X105606985Y-91326081D01*
X105533849Y-91169238D01*
X105533846Y-91169233D01*
X105531523Y-91164251D01*
X105400198Y-90976700D01*
X105238300Y-90814802D01*
X105233792Y-90811645D01*
X105233789Y-90811643D01*
X105155611Y-90756902D01*
X105050749Y-90683477D01*
X105045767Y-90681154D01*
X105045762Y-90681151D01*
X105011543Y-90665195D01*
X104958258Y-90618278D01*
X104938797Y-90550001D01*
X104959339Y-90482041D01*
X105011543Y-90436805D01*
X105045762Y-90420849D01*
X105045767Y-90420846D01*
X105050749Y-90418523D01*
X105155611Y-90345098D01*
X105233789Y-90290357D01*
X105233792Y-90290355D01*
X105238300Y-90287198D01*
X105400198Y-90125300D01*
X105531523Y-89937749D01*
X105533846Y-89932767D01*
X105533849Y-89932762D01*
X105625961Y-89735225D01*
X105625961Y-89735224D01*
X105628284Y-89730243D01*
X105687543Y-89509087D01*
X105707498Y-89281000D01*
X105687543Y-89052913D01*
X105681444Y-89030151D01*
X105629707Y-88837067D01*
X105629706Y-88837065D01*
X105628284Y-88831757D01*
X105625961Y-88826775D01*
X105533849Y-88629238D01*
X105533846Y-88629233D01*
X105531523Y-88624251D01*
X105400198Y-88436700D01*
X105238300Y-88274802D01*
X105233792Y-88271645D01*
X105233789Y-88271643D01*
X105155611Y-88216902D01*
X105050749Y-88143477D01*
X105045767Y-88141154D01*
X105045762Y-88141151D01*
X105011543Y-88125195D01*
X104958258Y-88078278D01*
X104938797Y-88010001D01*
X104959339Y-87942041D01*
X105011543Y-87896805D01*
X105045762Y-87880849D01*
X105045767Y-87880846D01*
X105050749Y-87878523D01*
X105155611Y-87805098D01*
X105233789Y-87750357D01*
X105233792Y-87750355D01*
X105238300Y-87747198D01*
X105400198Y-87585300D01*
X105428207Y-87545300D01*
X105528366Y-87402257D01*
X105531523Y-87397749D01*
X105533846Y-87392767D01*
X105533849Y-87392762D01*
X105625961Y-87195225D01*
X105625961Y-87195224D01*
X105628284Y-87190243D01*
X105631693Y-87177523D01*
X105674652Y-87017196D01*
X105711604Y-86956573D01*
X105775465Y-86925552D01*
X105845959Y-86933980D01*
X105900706Y-86979183D01*
X105918066Y-87017196D01*
X105953716Y-87150243D01*
X105956039Y-87155224D01*
X105956039Y-87155225D01*
X106048151Y-87352762D01*
X106048154Y-87352767D01*
X106050477Y-87357749D01*
X106181802Y-87545300D01*
X106343700Y-87707198D01*
X106348208Y-87710355D01*
X106348211Y-87710357D01*
X106395260Y-87743301D01*
X106531251Y-87838523D01*
X106536233Y-87840846D01*
X106536238Y-87840849D01*
X106732765Y-87932490D01*
X106738757Y-87935284D01*
X106744065Y-87936706D01*
X106744067Y-87936707D01*
X106954598Y-87993119D01*
X106954600Y-87993119D01*
X106959913Y-87994543D01*
X107188000Y-88014498D01*
X107416087Y-87994543D01*
X107421400Y-87993119D01*
X107421402Y-87993119D01*
X107631933Y-87936707D01*
X107631935Y-87936706D01*
X107637243Y-87935284D01*
X107643235Y-87932490D01*
X107839762Y-87840849D01*
X107839767Y-87840846D01*
X107844749Y-87838523D01*
X107980740Y-87743301D01*
X108027789Y-87710357D01*
X108027792Y-87710355D01*
X108032300Y-87707198D01*
X108194198Y-87545300D01*
X108325523Y-87357749D01*
X108327846Y-87352767D01*
X108327849Y-87352762D01*
X108419961Y-87155225D01*
X108419961Y-87155224D01*
X108422284Y-87150243D01*
X108481543Y-86929087D01*
X108501498Y-86701000D01*
X108481543Y-86472913D01*
X108478838Y-86462817D01*
X108423707Y-86257067D01*
X108423706Y-86257065D01*
X108422284Y-86251757D01*
X108410984Y-86227523D01*
X108327849Y-86049238D01*
X108327846Y-86049233D01*
X108325523Y-86044251D01*
X108225365Y-85901211D01*
X108197357Y-85861211D01*
X108197355Y-85861208D01*
X108194198Y-85856700D01*
X108032300Y-85694802D01*
X108027792Y-85691645D01*
X108027789Y-85691643D01*
X107906383Y-85606634D01*
X107844749Y-85563477D01*
X107839767Y-85561154D01*
X107839762Y-85561151D01*
X107799187Y-85542231D01*
X107745902Y-85495314D01*
X107726441Y-85427036D01*
X107731263Y-85393497D01*
X107732921Y-85387679D01*
X107730598Y-85379994D01*
X107200812Y-84850208D01*
X107186868Y-84842594D01*
X107185035Y-84842725D01*
X107178420Y-84846976D01*
X106650571Y-85374825D01*
X106642956Y-85388769D01*
X106645255Y-85420906D01*
X106630164Y-85490280D01*
X106579962Y-85540482D01*
X106572826Y-85544090D01*
X106536239Y-85561151D01*
X106531251Y-85563477D01*
X106469617Y-85606634D01*
X106348211Y-85691643D01*
X106348208Y-85691645D01*
X106343700Y-85694802D01*
X106181802Y-85856700D01*
X106178645Y-85861208D01*
X106178643Y-85861211D01*
X106150635Y-85901211D01*
X106050477Y-86044251D01*
X106048154Y-86049233D01*
X106048151Y-86049238D01*
X105965016Y-86227523D01*
X105953716Y-86251757D01*
X105924445Y-86360999D01*
X105907348Y-86424804D01*
X105870396Y-86485427D01*
X105806535Y-86516448D01*
X105736041Y-86508020D01*
X105681294Y-86462817D01*
X105663934Y-86424804D01*
X105629707Y-86297067D01*
X105629706Y-86297065D01*
X105628284Y-86291757D01*
X105606985Y-86246081D01*
X105533849Y-86089238D01*
X105533846Y-86089233D01*
X105531523Y-86084251D01*
X105400198Y-85896700D01*
X105238300Y-85734802D01*
X105233792Y-85731645D01*
X105233789Y-85731643D01*
X105155611Y-85676902D01*
X105050749Y-85603477D01*
X105045767Y-85601154D01*
X105045762Y-85601151D01*
X105010951Y-85584919D01*
X104957666Y-85538002D01*
X104938205Y-85469725D01*
X104958747Y-85401765D01*
X105010951Y-85356529D01*
X105045511Y-85340414D01*
X105055007Y-85334931D01*
X105233467Y-85209972D01*
X105241875Y-85202916D01*
X105395916Y-85048875D01*
X105402972Y-85040467D01*
X105527931Y-84862007D01*
X105533414Y-84852511D01*
X105625490Y-84655053D01*
X105629236Y-84644761D01*
X105669293Y-84495265D01*
X105706245Y-84434642D01*
X105770105Y-84403621D01*
X105840600Y-84412049D01*
X105895347Y-84457252D01*
X105912707Y-84495265D01*
X105952764Y-84644761D01*
X105956510Y-84655053D01*
X105993707Y-84734823D01*
X106003025Y-84745406D01*
X106009006Y-84743598D01*
X106538792Y-84213812D01*
X106545170Y-84202132D01*
X107829594Y-84202132D01*
X107829725Y-84203965D01*
X107833976Y-84210580D01*
X108361825Y-84738429D01*
X108374205Y-84745189D01*
X108379204Y-84741447D01*
X108419490Y-84655053D01*
X108423236Y-84644761D01*
X108479625Y-84434312D01*
X108481528Y-84423519D01*
X108500517Y-84206475D01*
X108500517Y-84195525D01*
X108481528Y-83978481D01*
X108479625Y-83967688D01*
X108423236Y-83757239D01*
X108419490Y-83746947D01*
X108382293Y-83667177D01*
X108372975Y-83656594D01*
X108366994Y-83658402D01*
X107837208Y-84188188D01*
X107829594Y-84202132D01*
X106545170Y-84202132D01*
X106546406Y-84199868D01*
X106546275Y-84198035D01*
X106542024Y-84191420D01*
X106014175Y-83663571D01*
X106001795Y-83656811D01*
X105996796Y-83660553D01*
X105956510Y-83746947D01*
X105952764Y-83757239D01*
X105912707Y-83906735D01*
X105875755Y-83967358D01*
X105811895Y-83998379D01*
X105741400Y-83989951D01*
X105686653Y-83944748D01*
X105669293Y-83906735D01*
X105629236Y-83757239D01*
X105625490Y-83746947D01*
X105533414Y-83549489D01*
X105527931Y-83539993D01*
X105402972Y-83361533D01*
X105395916Y-83353125D01*
X105241875Y-83199084D01*
X105233467Y-83192028D01*
X105055007Y-83067069D01*
X105045511Y-83061586D01*
X104947805Y-83016025D01*
X106643594Y-83016025D01*
X106645402Y-83022006D01*
X107175188Y-83551792D01*
X107189132Y-83559406D01*
X107190965Y-83559275D01*
X107197580Y-83555024D01*
X107725429Y-83027175D01*
X107732189Y-83014795D01*
X107728447Y-83009796D01*
X107642053Y-82969510D01*
X107631761Y-82965764D01*
X107421312Y-82909375D01*
X107410519Y-82907472D01*
X107193475Y-82888483D01*
X107182525Y-82888483D01*
X106965481Y-82907472D01*
X106954688Y-82909375D01*
X106744239Y-82965764D01*
X106733947Y-82969510D01*
X106654177Y-83006707D01*
X106643594Y-83016025D01*
X104947805Y-83016025D01*
X104860417Y-82975275D01*
X104846477Y-82973158D01*
X104844000Y-82976946D01*
X104844000Y-84525000D01*
X104823998Y-84593121D01*
X104770342Y-84639614D01*
X104718000Y-84651000D01*
X103178735Y-84651000D01*
X103165204Y-84654973D01*
X103164561Y-84659450D01*
X103254586Y-84852511D01*
X103260069Y-84862007D01*
X103385028Y-85040467D01*
X103392084Y-85048875D01*
X103546125Y-85202916D01*
X103554533Y-85209972D01*
X103732993Y-85334931D01*
X103742489Y-85340414D01*
X103777049Y-85356529D01*
X103830334Y-85403446D01*
X103849795Y-85471723D01*
X103829253Y-85539683D01*
X103777049Y-85584919D01*
X103742238Y-85601151D01*
X103742233Y-85601154D01*
X103737251Y-85603477D01*
X103632389Y-85676902D01*
X103554211Y-85731643D01*
X103554208Y-85731645D01*
X103549700Y-85734802D01*
X103387802Y-85896700D01*
X103256477Y-86084251D01*
X103254154Y-86089233D01*
X103254151Y-86089238D01*
X103181015Y-86246081D01*
X103159716Y-86291757D01*
X103158294Y-86297065D01*
X103158293Y-86297067D01*
X103105933Y-86492477D01*
X103100457Y-86512913D01*
X103080502Y-86741000D01*
X103100457Y-86969087D01*
X103101881Y-86974400D01*
X103101881Y-86974402D01*
X103156308Y-87177523D01*
X103159716Y-87190243D01*
X103162039Y-87195224D01*
X103162039Y-87195225D01*
X103254151Y-87392762D01*
X103254154Y-87392767D01*
X103256477Y-87397749D01*
X103259634Y-87402257D01*
X103359794Y-87545300D01*
X103387802Y-87585300D01*
X103549700Y-87747198D01*
X103554208Y-87750355D01*
X103554211Y-87750357D01*
X103632389Y-87805098D01*
X103737251Y-87878523D01*
X103742233Y-87880846D01*
X103742238Y-87880849D01*
X103776457Y-87896805D01*
X103829742Y-87943722D01*
X103849203Y-88011999D01*
X103828661Y-88079959D01*
X103776457Y-88125195D01*
X103742238Y-88141151D01*
X103742233Y-88141154D01*
X103737251Y-88143477D01*
X103632389Y-88216902D01*
X103554211Y-88271643D01*
X103554208Y-88271645D01*
X103549700Y-88274802D01*
X103387802Y-88436700D01*
X103256477Y-88624251D01*
X103254154Y-88629233D01*
X103254151Y-88629238D01*
X103162039Y-88826775D01*
X103159716Y-88831757D01*
X103158294Y-88837065D01*
X103158293Y-88837067D01*
X103106556Y-89030151D01*
X103100457Y-89052913D01*
X103080502Y-89281000D01*
X103100457Y-89509087D01*
X103159716Y-89730243D01*
X103162039Y-89735224D01*
X103162039Y-89735225D01*
X103254151Y-89932762D01*
X103254154Y-89932767D01*
X103256477Y-89937749D01*
X103387802Y-90125300D01*
X103549700Y-90287198D01*
X103554208Y-90290355D01*
X103554211Y-90290357D01*
X103632389Y-90345098D01*
X103737251Y-90418523D01*
X103742233Y-90420846D01*
X103742238Y-90420849D01*
X103776457Y-90436805D01*
X103829742Y-90483722D01*
X103849203Y-90551999D01*
X103828661Y-90619959D01*
X103776457Y-90665195D01*
X103742238Y-90681151D01*
X103742233Y-90681154D01*
X103737251Y-90683477D01*
X103632389Y-90756902D01*
X103554211Y-90811643D01*
X103554208Y-90811645D01*
X103549700Y-90814802D01*
X103387802Y-90976700D01*
X103256477Y-91164251D01*
X103254154Y-91169233D01*
X103254151Y-91169238D01*
X103181015Y-91326081D01*
X103159716Y-91371757D01*
X103158294Y-91377065D01*
X103158293Y-91377067D01*
X103106327Y-91571006D01*
X103100457Y-91592913D01*
X103080502Y-91821000D01*
X103100457Y-92049087D01*
X103101881Y-92054400D01*
X103101881Y-92054402D01*
X103156308Y-92257523D01*
X103159716Y-92270243D01*
X103162039Y-92275224D01*
X103162039Y-92275225D01*
X103254151Y-92472762D01*
X103254154Y-92472767D01*
X103256477Y-92477749D01*
X103387802Y-92665300D01*
X103549700Y-92827198D01*
X103554208Y-92830355D01*
X103554211Y-92830357D01*
X103632389Y-92885098D01*
X103737251Y-92958523D01*
X103742233Y-92960846D01*
X103742238Y-92960849D01*
X103776457Y-92976805D01*
X103829742Y-93023722D01*
X103849203Y-93091999D01*
X103828661Y-93159959D01*
X103776457Y-93205195D01*
X103742238Y-93221151D01*
X103742233Y-93221154D01*
X103737251Y-93223477D01*
X103651068Y-93283823D01*
X103554211Y-93351643D01*
X103554208Y-93351645D01*
X103549700Y-93354802D01*
X103387802Y-93516700D01*
X103256477Y-93704251D01*
X103254154Y-93709233D01*
X103254151Y-93709238D01*
X103162039Y-93906775D01*
X103159716Y-93911757D01*
X103158294Y-93917065D01*
X103158293Y-93917067D01*
X103106556Y-94110151D01*
X103100457Y-94132913D01*
X103080502Y-94361000D01*
X103100457Y-94589087D01*
X103159716Y-94810243D01*
X103162039Y-94815224D01*
X103162039Y-94815225D01*
X103254151Y-95012762D01*
X103254154Y-95012767D01*
X103256477Y-95017749D01*
X103387802Y-95205300D01*
X103549700Y-95367198D01*
X103554208Y-95370355D01*
X103554211Y-95370357D01*
X103632389Y-95425098D01*
X103737251Y-95498523D01*
X103742233Y-95500846D01*
X103742238Y-95500849D01*
X103776457Y-95516805D01*
X103829742Y-95563722D01*
X103849203Y-95631999D01*
X103828661Y-95699959D01*
X103776457Y-95745195D01*
X103742238Y-95761151D01*
X103742233Y-95761154D01*
X103737251Y-95763477D01*
X103632389Y-95836902D01*
X103554211Y-95891643D01*
X103554208Y-95891645D01*
X103549700Y-95894802D01*
X103387802Y-96056700D01*
X103256477Y-96244251D01*
X103254154Y-96249233D01*
X103254151Y-96249238D01*
X103162039Y-96446775D01*
X103159716Y-96451757D01*
X103158294Y-96457065D01*
X103158293Y-96457067D01*
X103106556Y-96650151D01*
X103100457Y-96672913D01*
X103080502Y-96901000D01*
X103100457Y-97129087D01*
X103159716Y-97350243D01*
X103162039Y-97355224D01*
X103162039Y-97355225D01*
X103254151Y-97552762D01*
X103254154Y-97552767D01*
X103256477Y-97557749D01*
X103387802Y-97745300D01*
X103549700Y-97907198D01*
X103554208Y-97910355D01*
X103554211Y-97910357D01*
X103632389Y-97965098D01*
X103737251Y-98038523D01*
X103742233Y-98040846D01*
X103742238Y-98040849D01*
X103776457Y-98056805D01*
X103829742Y-98103722D01*
X103849203Y-98171999D01*
X103828661Y-98239959D01*
X103776457Y-98285195D01*
X103742238Y-98301151D01*
X103742233Y-98301154D01*
X103737251Y-98303477D01*
X103632389Y-98376902D01*
X103554211Y-98431643D01*
X103554208Y-98431645D01*
X103549700Y-98434802D01*
X103387802Y-98596700D01*
X103256477Y-98784251D01*
X103254154Y-98789233D01*
X103254151Y-98789238D01*
X103162039Y-98986775D01*
X103159716Y-98991757D01*
X103158294Y-98997065D01*
X103158293Y-98997067D01*
X103106556Y-99190151D01*
X103100457Y-99212913D01*
X103080502Y-99441000D01*
X98087498Y-99441000D01*
X98067543Y-99212913D01*
X98061444Y-99190151D01*
X98009707Y-98997067D01*
X98009706Y-98997065D01*
X98008284Y-98991757D01*
X98005961Y-98986775D01*
X97913849Y-98789238D01*
X97913846Y-98789233D01*
X97911523Y-98784251D01*
X97780198Y-98596700D01*
X97618300Y-98434802D01*
X97613792Y-98431645D01*
X97613789Y-98431643D01*
X97535611Y-98376902D01*
X97430749Y-98303477D01*
X97425767Y-98301154D01*
X97425762Y-98301151D01*
X97391543Y-98285195D01*
X97338258Y-98238278D01*
X97318797Y-98170001D01*
X97339339Y-98102041D01*
X97391543Y-98056805D01*
X97425762Y-98040849D01*
X97425767Y-98040846D01*
X97430749Y-98038523D01*
X97535611Y-97965098D01*
X97613789Y-97910357D01*
X97613792Y-97910355D01*
X97618300Y-97907198D01*
X97780198Y-97745300D01*
X97911523Y-97557749D01*
X97913846Y-97552767D01*
X97913849Y-97552762D01*
X98005961Y-97355225D01*
X98005961Y-97355224D01*
X98008284Y-97350243D01*
X98067543Y-97129087D01*
X98087498Y-96901000D01*
X98067543Y-96672913D01*
X98061444Y-96650151D01*
X98009707Y-96457067D01*
X98009706Y-96457065D01*
X98008284Y-96451757D01*
X98005961Y-96446775D01*
X97913849Y-96249238D01*
X97913846Y-96249233D01*
X97911523Y-96244251D01*
X97780198Y-96056700D01*
X97618300Y-95894802D01*
X97613792Y-95891645D01*
X97613789Y-95891643D01*
X97535611Y-95836902D01*
X97430749Y-95763477D01*
X97425767Y-95761154D01*
X97425762Y-95761151D01*
X97391543Y-95745195D01*
X97338258Y-95698278D01*
X97318797Y-95630001D01*
X97339339Y-95562041D01*
X97391543Y-95516805D01*
X97425762Y-95500849D01*
X97425767Y-95500846D01*
X97430749Y-95498523D01*
X97535611Y-95425098D01*
X97613789Y-95370357D01*
X97613792Y-95370355D01*
X97618300Y-95367198D01*
X97780198Y-95205300D01*
X97911523Y-95017749D01*
X97913846Y-95012767D01*
X97913849Y-95012762D01*
X98005961Y-94815225D01*
X98005961Y-94815224D01*
X98008284Y-94810243D01*
X98067543Y-94589087D01*
X98087498Y-94361000D01*
X98067543Y-94132913D01*
X98061444Y-94110151D01*
X98009707Y-93917067D01*
X98009706Y-93917065D01*
X98008284Y-93911757D01*
X98005961Y-93906775D01*
X97913849Y-93709238D01*
X97913846Y-93709233D01*
X97911523Y-93704251D01*
X97780198Y-93516700D01*
X97618300Y-93354802D01*
X97613792Y-93351645D01*
X97613789Y-93351643D01*
X97516932Y-93283823D01*
X97430749Y-93223477D01*
X97425767Y-93221154D01*
X97425762Y-93221151D01*
X97391543Y-93205195D01*
X97338258Y-93158278D01*
X97318797Y-93090001D01*
X97339339Y-93022041D01*
X97391543Y-92976805D01*
X97425762Y-92960849D01*
X97425767Y-92960846D01*
X97430749Y-92958523D01*
X97535611Y-92885098D01*
X97613789Y-92830357D01*
X97613792Y-92830355D01*
X97618300Y-92827198D01*
X97780198Y-92665300D01*
X97911523Y-92477749D01*
X97913846Y-92472767D01*
X97913849Y-92472762D01*
X98005961Y-92275225D01*
X98005961Y-92275224D01*
X98008284Y-92270243D01*
X98011693Y-92257523D01*
X98066119Y-92054402D01*
X98066119Y-92054400D01*
X98067543Y-92049087D01*
X98087498Y-91821000D01*
X98067543Y-91592913D01*
X98061673Y-91571006D01*
X98009707Y-91377067D01*
X98009706Y-91377065D01*
X98008284Y-91371757D01*
X97986985Y-91326081D01*
X97913849Y-91169238D01*
X97913846Y-91169233D01*
X97911523Y-91164251D01*
X97780198Y-90976700D01*
X97618300Y-90814802D01*
X97613792Y-90811645D01*
X97613789Y-90811643D01*
X97535611Y-90756902D01*
X97430749Y-90683477D01*
X97425767Y-90681154D01*
X97425762Y-90681151D01*
X97391543Y-90665195D01*
X97338258Y-90618278D01*
X97318797Y-90550001D01*
X97339339Y-90482041D01*
X97391543Y-90436805D01*
X97425762Y-90420849D01*
X97425767Y-90420846D01*
X97430749Y-90418523D01*
X97535611Y-90345098D01*
X97613789Y-90290357D01*
X97613792Y-90290355D01*
X97618300Y-90287198D01*
X97780198Y-90125300D01*
X97911523Y-89937749D01*
X97913846Y-89932767D01*
X97913849Y-89932762D01*
X98005961Y-89735225D01*
X98005961Y-89735224D01*
X98008284Y-89730243D01*
X98067543Y-89509087D01*
X98087498Y-89281000D01*
X98067543Y-89052913D01*
X98061444Y-89030151D01*
X98009707Y-88837067D01*
X98009706Y-88837065D01*
X98008284Y-88831757D01*
X98005961Y-88826775D01*
X97913849Y-88629238D01*
X97913846Y-88629233D01*
X97911523Y-88624251D01*
X97780198Y-88436700D01*
X97618300Y-88274802D01*
X97613792Y-88271645D01*
X97613789Y-88271643D01*
X97535611Y-88216902D01*
X97430749Y-88143477D01*
X97425767Y-88141154D01*
X97425762Y-88141151D01*
X97391543Y-88125195D01*
X97338258Y-88078278D01*
X97318797Y-88010001D01*
X97339339Y-87942041D01*
X97391543Y-87896805D01*
X97425762Y-87880849D01*
X97425767Y-87880846D01*
X97430749Y-87878523D01*
X97535611Y-87805098D01*
X97613789Y-87750357D01*
X97613792Y-87750355D01*
X97618300Y-87747198D01*
X97780198Y-87585300D01*
X97808207Y-87545300D01*
X97908366Y-87402257D01*
X97911523Y-87397749D01*
X97913846Y-87392767D01*
X97913849Y-87392762D01*
X98005961Y-87195225D01*
X98005961Y-87195224D01*
X98008284Y-87190243D01*
X98011693Y-87177523D01*
X98066119Y-86974402D01*
X98066119Y-86974400D01*
X98067543Y-86969087D01*
X98087498Y-86741000D01*
X98067543Y-86512913D01*
X98062067Y-86492477D01*
X98009707Y-86297067D01*
X98009706Y-86297065D01*
X98008284Y-86291757D01*
X97986985Y-86246081D01*
X97913849Y-86089238D01*
X97913846Y-86089233D01*
X97911523Y-86084251D01*
X97780198Y-85896700D01*
X97618300Y-85734802D01*
X97613789Y-85731643D01*
X97609576Y-85728108D01*
X97610527Y-85726974D01*
X97570529Y-85676929D01*
X97563224Y-85606310D01*
X97595258Y-85542951D01*
X97656462Y-85506970D01*
X97673517Y-85503918D01*
X97684316Y-85502745D01*
X97820705Y-85451615D01*
X97937261Y-85364261D01*
X98024615Y-85247705D01*
X98075745Y-85111316D01*
X98082500Y-85049134D01*
X98082500Y-83748523D01*
X103166158Y-83748523D01*
X103169946Y-83751000D01*
X103925885Y-83751000D01*
X103941124Y-83746525D01*
X103942329Y-83745135D01*
X103944000Y-83737452D01*
X103944000Y-82985735D01*
X103940027Y-82972204D01*
X103935550Y-82971561D01*
X103742489Y-83061586D01*
X103732993Y-83067069D01*
X103554533Y-83192028D01*
X103546125Y-83199084D01*
X103392084Y-83353125D01*
X103385028Y-83361533D01*
X103260069Y-83539993D01*
X103254586Y-83549489D01*
X103168275Y-83734583D01*
X103166158Y-83748523D01*
X98082500Y-83748523D01*
X98082500Y-83352866D01*
X98075745Y-83290684D01*
X98024615Y-83154295D01*
X97937261Y-83037739D01*
X97820705Y-82950385D01*
X97684316Y-82899255D01*
X97622134Y-82892500D01*
X95925866Y-82892500D01*
X95863684Y-82899255D01*
X95727295Y-82950385D01*
X95610739Y-83037739D01*
X95523385Y-83154295D01*
X95472255Y-83290684D01*
X95465500Y-83352866D01*
X95465500Y-85049134D01*
X95472255Y-85111316D01*
X95523385Y-85247705D01*
X95610739Y-85364261D01*
X95727295Y-85451615D01*
X95863684Y-85502745D01*
X95874474Y-85503917D01*
X95876606Y-85504803D01*
X95879222Y-85505425D01*
X95879121Y-85505848D01*
X95940035Y-85531155D01*
X95980463Y-85589517D01*
X95982922Y-85660471D01*
X95946629Y-85721490D01*
X95937969Y-85728489D01*
X95934207Y-85731646D01*
X95929700Y-85734802D01*
X95767802Y-85896700D01*
X95636477Y-86084251D01*
X95634154Y-86089233D01*
X95634151Y-86089238D01*
X95561015Y-86246081D01*
X95539716Y-86291757D01*
X95538294Y-86297065D01*
X95538293Y-86297067D01*
X95485933Y-86492477D01*
X95480457Y-86512913D01*
X95460502Y-86741000D01*
X95480457Y-86969087D01*
X95481881Y-86974400D01*
X95481881Y-86974402D01*
X95536308Y-87177523D01*
X95539716Y-87190243D01*
X95542039Y-87195224D01*
X95542039Y-87195225D01*
X95634151Y-87392762D01*
X95634154Y-87392767D01*
X95636477Y-87397749D01*
X95639634Y-87402257D01*
X95739794Y-87545300D01*
X95767802Y-87585300D01*
X95929700Y-87747198D01*
X95934208Y-87750355D01*
X95934211Y-87750357D01*
X96012389Y-87805098D01*
X96117251Y-87878523D01*
X96122233Y-87880846D01*
X96122238Y-87880849D01*
X96156457Y-87896805D01*
X96209742Y-87943722D01*
X96229203Y-88011999D01*
X96208661Y-88079959D01*
X96156457Y-88125195D01*
X96122238Y-88141151D01*
X96122233Y-88141154D01*
X96117251Y-88143477D01*
X96012389Y-88216902D01*
X95934211Y-88271643D01*
X95934208Y-88271645D01*
X95929700Y-88274802D01*
X95767802Y-88436700D01*
X95636477Y-88624251D01*
X95634154Y-88629233D01*
X95634151Y-88629238D01*
X95542039Y-88826775D01*
X95539716Y-88831757D01*
X95538294Y-88837065D01*
X95538293Y-88837067D01*
X95486556Y-89030151D01*
X95480457Y-89052913D01*
X95460502Y-89281000D01*
X95480457Y-89509087D01*
X95539716Y-89730243D01*
X95542039Y-89735224D01*
X95542039Y-89735225D01*
X95634151Y-89932762D01*
X95634154Y-89932767D01*
X95636477Y-89937749D01*
X95767802Y-90125300D01*
X95929700Y-90287198D01*
X95934208Y-90290355D01*
X95934211Y-90290357D01*
X96012389Y-90345098D01*
X96117251Y-90418523D01*
X96122233Y-90420846D01*
X96122238Y-90420849D01*
X96156457Y-90436805D01*
X96209742Y-90483722D01*
X96229203Y-90551999D01*
X96208661Y-90619959D01*
X96156457Y-90665195D01*
X96122238Y-90681151D01*
X96122233Y-90681154D01*
X96117251Y-90683477D01*
X96012389Y-90756902D01*
X95934211Y-90811643D01*
X95934208Y-90811645D01*
X95929700Y-90814802D01*
X95767802Y-90976700D01*
X95636477Y-91164251D01*
X95634154Y-91169233D01*
X95634151Y-91169238D01*
X95561015Y-91326081D01*
X95539716Y-91371757D01*
X95538294Y-91377065D01*
X95538293Y-91377067D01*
X95486327Y-91571006D01*
X95480457Y-91592913D01*
X95460502Y-91821000D01*
X95480457Y-92049087D01*
X95481881Y-92054400D01*
X95481881Y-92054402D01*
X95536308Y-92257523D01*
X95539716Y-92270243D01*
X95542039Y-92275224D01*
X95542039Y-92275225D01*
X95634151Y-92472762D01*
X95634154Y-92472767D01*
X95636477Y-92477749D01*
X95767802Y-92665300D01*
X95929700Y-92827198D01*
X95934208Y-92830355D01*
X95934211Y-92830357D01*
X96012389Y-92885098D01*
X96117251Y-92958523D01*
X96122233Y-92960846D01*
X96122238Y-92960849D01*
X96156457Y-92976805D01*
X96209742Y-93023722D01*
X96229203Y-93091999D01*
X96208661Y-93159959D01*
X96156457Y-93205195D01*
X96122238Y-93221151D01*
X96122233Y-93221154D01*
X96117251Y-93223477D01*
X96031068Y-93283823D01*
X95934211Y-93351643D01*
X95934208Y-93351645D01*
X95929700Y-93354802D01*
X95767802Y-93516700D01*
X95636477Y-93704251D01*
X95634154Y-93709233D01*
X95634151Y-93709238D01*
X95542039Y-93906775D01*
X95539716Y-93911757D01*
X95538294Y-93917065D01*
X95538293Y-93917067D01*
X95486556Y-94110151D01*
X95480457Y-94132913D01*
X95460502Y-94361000D01*
X95480457Y-94589087D01*
X95539716Y-94810243D01*
X95542039Y-94815224D01*
X95542039Y-94815225D01*
X95634151Y-95012762D01*
X95634154Y-95012767D01*
X95636477Y-95017749D01*
X95767802Y-95205300D01*
X95929700Y-95367198D01*
X95934208Y-95370355D01*
X95934211Y-95370357D01*
X96012389Y-95425098D01*
X96117251Y-95498523D01*
X96122233Y-95500846D01*
X96122238Y-95500849D01*
X96156457Y-95516805D01*
X96209742Y-95563722D01*
X96229203Y-95631999D01*
X96208661Y-95699959D01*
X96156457Y-95745195D01*
X96122238Y-95761151D01*
X96122233Y-95761154D01*
X96117251Y-95763477D01*
X96012389Y-95836902D01*
X95934211Y-95891643D01*
X95934208Y-95891645D01*
X95929700Y-95894802D01*
X95767802Y-96056700D01*
X95636477Y-96244251D01*
X95634154Y-96249233D01*
X95634151Y-96249238D01*
X95542039Y-96446775D01*
X95539716Y-96451757D01*
X95538294Y-96457065D01*
X95538293Y-96457067D01*
X95486556Y-96650151D01*
X95480457Y-96672913D01*
X95460502Y-96901000D01*
X95480457Y-97129087D01*
X95539716Y-97350243D01*
X95542039Y-97355224D01*
X95542039Y-97355225D01*
X95634151Y-97552762D01*
X95634154Y-97552767D01*
X95636477Y-97557749D01*
X95767802Y-97745300D01*
X95929700Y-97907198D01*
X95934208Y-97910355D01*
X95934211Y-97910357D01*
X96012389Y-97965098D01*
X96117251Y-98038523D01*
X96122233Y-98040846D01*
X96122238Y-98040849D01*
X96156457Y-98056805D01*
X96209742Y-98103722D01*
X96229203Y-98171999D01*
X96208661Y-98239959D01*
X96156457Y-98285195D01*
X96122238Y-98301151D01*
X96122233Y-98301154D01*
X96117251Y-98303477D01*
X96012389Y-98376902D01*
X95934211Y-98431643D01*
X95934208Y-98431645D01*
X95929700Y-98434802D01*
X95767802Y-98596700D01*
X95636477Y-98784251D01*
X95634154Y-98789233D01*
X95634151Y-98789238D01*
X95542039Y-98986775D01*
X95539716Y-98991757D01*
X95538294Y-98997065D01*
X95538293Y-98997067D01*
X95486556Y-99190151D01*
X95480457Y-99212913D01*
X95460502Y-99441000D01*
X93925498Y-99441000D01*
X93808300Y-99323802D01*
X93803792Y-99320645D01*
X93803789Y-99320643D01*
X93725611Y-99265902D01*
X93620749Y-99192477D01*
X93615767Y-99190154D01*
X93615762Y-99190151D01*
X93418225Y-99098039D01*
X93418224Y-99098039D01*
X93413243Y-99095716D01*
X93407935Y-99094294D01*
X93407933Y-99094293D01*
X93197402Y-99037881D01*
X93197400Y-99037881D01*
X93192087Y-99036457D01*
X92964000Y-99016502D01*
X92735913Y-99036457D01*
X92730600Y-99037881D01*
X92730598Y-99037881D01*
X92520067Y-99094293D01*
X92520065Y-99094294D01*
X92514757Y-99095716D01*
X92509776Y-99098039D01*
X92509775Y-99098039D01*
X92312238Y-99190151D01*
X92312233Y-99190154D01*
X92307251Y-99192477D01*
X92202389Y-99265902D01*
X92124211Y-99320643D01*
X92124208Y-99320645D01*
X92119700Y-99323802D01*
X91957802Y-99485700D01*
X91826477Y-99673251D01*
X91824154Y-99678233D01*
X91824151Y-99678238D01*
X91732039Y-99875775D01*
X91729716Y-99880757D01*
X91670457Y-100101913D01*
X91650502Y-100330000D01*
X90213498Y-100330000D01*
X90193543Y-100101913D01*
X90134284Y-99880757D01*
X90131961Y-99875775D01*
X90039849Y-99678238D01*
X90039846Y-99678233D01*
X90037523Y-99673251D01*
X89906198Y-99485700D01*
X89744300Y-99323802D01*
X89739792Y-99320645D01*
X89739789Y-99320643D01*
X89661611Y-99265902D01*
X89556749Y-99192477D01*
X89551767Y-99190154D01*
X89551762Y-99190151D01*
X89517543Y-99174195D01*
X89464258Y-99127278D01*
X89444797Y-99059001D01*
X89465339Y-98991041D01*
X89517543Y-98945805D01*
X89551762Y-98929849D01*
X89551767Y-98929846D01*
X89556749Y-98927523D01*
X89661611Y-98854098D01*
X89739789Y-98799357D01*
X89739792Y-98799355D01*
X89744300Y-98796198D01*
X89906198Y-98634300D01*
X90037523Y-98446749D01*
X90039846Y-98441767D01*
X90039849Y-98441762D01*
X90131961Y-98244225D01*
X90131961Y-98244224D01*
X90134284Y-98239243D01*
X90152838Y-98170001D01*
X90192119Y-98023402D01*
X90192119Y-98023400D01*
X90193543Y-98018087D01*
X90213498Y-97790000D01*
X90193543Y-97561913D01*
X90134284Y-97340757D01*
X90131961Y-97335775D01*
X90039849Y-97138238D01*
X90039846Y-97138233D01*
X90037523Y-97133251D01*
X89906198Y-96945700D01*
X89744300Y-96783802D01*
X89739792Y-96780645D01*
X89739789Y-96780643D01*
X89661611Y-96725902D01*
X89556749Y-96652477D01*
X89551767Y-96650154D01*
X89551762Y-96650151D01*
X89517543Y-96634195D01*
X89464258Y-96587278D01*
X89444797Y-96519001D01*
X89465339Y-96451041D01*
X89517543Y-96405805D01*
X89551762Y-96389849D01*
X89551767Y-96389846D01*
X89556749Y-96387523D01*
X89661611Y-96314098D01*
X89739789Y-96259357D01*
X89739792Y-96259355D01*
X89744300Y-96256198D01*
X89906198Y-96094300D01*
X90037523Y-95906749D01*
X90039846Y-95901767D01*
X90039849Y-95901762D01*
X90131961Y-95704225D01*
X90131961Y-95704224D01*
X90134284Y-95699243D01*
X90152838Y-95630001D01*
X90192119Y-95483402D01*
X90192119Y-95483400D01*
X90193543Y-95478087D01*
X90213498Y-95250000D01*
X90193543Y-95021913D01*
X90134284Y-94800757D01*
X90131961Y-94795775D01*
X90039849Y-94598238D01*
X90039846Y-94598233D01*
X90037523Y-94593251D01*
X89906198Y-94405700D01*
X89744300Y-94243802D01*
X89739792Y-94240645D01*
X89739789Y-94240643D01*
X89661611Y-94185902D01*
X89556749Y-94112477D01*
X89551767Y-94110154D01*
X89551762Y-94110151D01*
X89517543Y-94094195D01*
X89464258Y-94047278D01*
X89444797Y-93979001D01*
X89465339Y-93911041D01*
X89517543Y-93865805D01*
X89551762Y-93849849D01*
X89551767Y-93849846D01*
X89556749Y-93847523D01*
X89661611Y-93774098D01*
X89739789Y-93719357D01*
X89739792Y-93719355D01*
X89744300Y-93716198D01*
X89906198Y-93554300D01*
X90037523Y-93366749D01*
X90039846Y-93361767D01*
X90039849Y-93361762D01*
X90131961Y-93164225D01*
X90131961Y-93164224D01*
X90134284Y-93159243D01*
X90152838Y-93090001D01*
X90192119Y-92943402D01*
X90192119Y-92943400D01*
X90193543Y-92938087D01*
X90213498Y-92710000D01*
X90193543Y-92481913D01*
X90134284Y-92260757D01*
X90111815Y-92212571D01*
X90039849Y-92058238D01*
X90039846Y-92058233D01*
X90037523Y-92053251D01*
X89906198Y-91865700D01*
X89744300Y-91703802D01*
X89739792Y-91700645D01*
X89739789Y-91700643D01*
X89661611Y-91645902D01*
X89556749Y-91572477D01*
X89551767Y-91570154D01*
X89551762Y-91570151D01*
X89517543Y-91554195D01*
X89464258Y-91507278D01*
X89444797Y-91439001D01*
X89465339Y-91371041D01*
X89517543Y-91325805D01*
X89551762Y-91309849D01*
X89551767Y-91309846D01*
X89556749Y-91307523D01*
X89661611Y-91234098D01*
X89739789Y-91179357D01*
X89739792Y-91179355D01*
X89744300Y-91176198D01*
X89906198Y-91014300D01*
X89932526Y-90976700D01*
X89963665Y-90932229D01*
X90019122Y-90887901D01*
X90066878Y-90878500D01*
X91797122Y-90878500D01*
X91865243Y-90898502D01*
X91900335Y-90932229D01*
X91931474Y-90976700D01*
X91957802Y-91014300D01*
X92119700Y-91176198D01*
X92124208Y-91179355D01*
X92124211Y-91179357D01*
X92202389Y-91234098D01*
X92307251Y-91307523D01*
X92312233Y-91309846D01*
X92312238Y-91309849D01*
X92509775Y-91401961D01*
X92514757Y-91404284D01*
X92520065Y-91405706D01*
X92520067Y-91405707D01*
X92730598Y-91462119D01*
X92730600Y-91462119D01*
X92735913Y-91463543D01*
X92964000Y-91483498D01*
X93192087Y-91463543D01*
X93197400Y-91462119D01*
X93197402Y-91462119D01*
X93407933Y-91405707D01*
X93407935Y-91405706D01*
X93413243Y-91404284D01*
X93418225Y-91401961D01*
X93615762Y-91309849D01*
X93615767Y-91309846D01*
X93620749Y-91307523D01*
X93725611Y-91234098D01*
X93803789Y-91179357D01*
X93803792Y-91179355D01*
X93808300Y-91176198D01*
X93970198Y-91014300D01*
X94101523Y-90826749D01*
X94103846Y-90821767D01*
X94103849Y-90821762D01*
X94195961Y-90624225D01*
X94195961Y-90624224D01*
X94198284Y-90619243D01*
X94216838Y-90550001D01*
X94256119Y-90403402D01*
X94256119Y-90403400D01*
X94257543Y-90398087D01*
X94277498Y-90170000D01*
X94257543Y-89941913D01*
X94198284Y-89720757D01*
X94195961Y-89715775D01*
X94103849Y-89518238D01*
X94103846Y-89518233D01*
X94101523Y-89513251D01*
X93970198Y-89325700D01*
X93808300Y-89163802D01*
X93803792Y-89160645D01*
X93803789Y-89160643D01*
X93725611Y-89105902D01*
X93620749Y-89032477D01*
X93615767Y-89030154D01*
X93615762Y-89030151D01*
X93418225Y-88938039D01*
X93418224Y-88938039D01*
X93413243Y-88935716D01*
X93407935Y-88934294D01*
X93407933Y-88934293D01*
X93197402Y-88877881D01*
X93197400Y-88877881D01*
X93192087Y-88876457D01*
X92964000Y-88856502D01*
X92735913Y-88876457D01*
X92730600Y-88877881D01*
X92730598Y-88877881D01*
X92520067Y-88934293D01*
X92520065Y-88934294D01*
X92514757Y-88935716D01*
X92509776Y-88938039D01*
X92509775Y-88938039D01*
X92312238Y-89030151D01*
X92312233Y-89030154D01*
X92307251Y-89032477D01*
X92202389Y-89105902D01*
X92124211Y-89160643D01*
X92124208Y-89160645D01*
X92119700Y-89163802D01*
X91957802Y-89325700D01*
X91954645Y-89330208D01*
X91954643Y-89330211D01*
X91900335Y-89407771D01*
X91844878Y-89452099D01*
X91797122Y-89461500D01*
X90066878Y-89461500D01*
X89998757Y-89441498D01*
X89963665Y-89407771D01*
X89909357Y-89330211D01*
X89909355Y-89330208D01*
X89906198Y-89325700D01*
X89744300Y-89163802D01*
X89739792Y-89160645D01*
X89739789Y-89160643D01*
X89661611Y-89105902D01*
X89556749Y-89032477D01*
X89551767Y-89030154D01*
X89551762Y-89030151D01*
X89516951Y-89013919D01*
X89463666Y-88967002D01*
X89444205Y-88898725D01*
X89464747Y-88830765D01*
X89516951Y-88785529D01*
X89551511Y-88769414D01*
X89561007Y-88763931D01*
X89739467Y-88638972D01*
X89747875Y-88631916D01*
X89901916Y-88477875D01*
X89908972Y-88469467D01*
X90033931Y-88291007D01*
X90039414Y-88281511D01*
X90125725Y-88096417D01*
X90127842Y-88082477D01*
X90124054Y-88080000D01*
X87684735Y-88080000D01*
X87671204Y-88083973D01*
X87670561Y-88088450D01*
X87760586Y-88281511D01*
X87766069Y-88291007D01*
X87891028Y-88469467D01*
X87898084Y-88477875D01*
X88052125Y-88631916D01*
X88060533Y-88638972D01*
X88238993Y-88763931D01*
X88248489Y-88769414D01*
X88283049Y-88785529D01*
X88336334Y-88832446D01*
X88355795Y-88900723D01*
X88335253Y-88968683D01*
X88283049Y-89013919D01*
X88248238Y-89030151D01*
X88248233Y-89030154D01*
X88243251Y-89032477D01*
X88138389Y-89105902D01*
X88060211Y-89160643D01*
X88060208Y-89160645D01*
X88055700Y-89163802D01*
X87893802Y-89325700D01*
X87762477Y-89513251D01*
X87760154Y-89518233D01*
X87760151Y-89518238D01*
X87668039Y-89715775D01*
X87665716Y-89720757D01*
X87606457Y-89941913D01*
X87586502Y-90170000D01*
X87606457Y-90398087D01*
X87607881Y-90403400D01*
X87607881Y-90403402D01*
X87647163Y-90550001D01*
X87665716Y-90619243D01*
X87668039Y-90624224D01*
X87668039Y-90624225D01*
X87760151Y-90821762D01*
X87760154Y-90821767D01*
X87762477Y-90826749D01*
X87893802Y-91014300D01*
X88055700Y-91176198D01*
X88060208Y-91179355D01*
X88060211Y-91179357D01*
X88138389Y-91234098D01*
X88243251Y-91307523D01*
X88248233Y-91309846D01*
X88248238Y-91309849D01*
X88282457Y-91325805D01*
X88335742Y-91372722D01*
X88355203Y-91440999D01*
X88334661Y-91508959D01*
X88282457Y-91554195D01*
X88248238Y-91570151D01*
X88248233Y-91570154D01*
X88243251Y-91572477D01*
X88138389Y-91645902D01*
X88060211Y-91700643D01*
X88060208Y-91700645D01*
X88055700Y-91703802D01*
X87893802Y-91865700D01*
X87762477Y-92053251D01*
X87760154Y-92058233D01*
X87760151Y-92058238D01*
X87688185Y-92212571D01*
X87665716Y-92260757D01*
X87606457Y-92481913D01*
X87586502Y-92710000D01*
X87606457Y-92938087D01*
X87607881Y-92943400D01*
X87607881Y-92943402D01*
X87647163Y-93090001D01*
X87665716Y-93159243D01*
X87668039Y-93164224D01*
X87668039Y-93164225D01*
X87760151Y-93361762D01*
X87760154Y-93361767D01*
X87762477Y-93366749D01*
X87893802Y-93554300D01*
X88055700Y-93716198D01*
X88060208Y-93719355D01*
X88060211Y-93719357D01*
X88138389Y-93774098D01*
X88243251Y-93847523D01*
X88248233Y-93849846D01*
X88248238Y-93849849D01*
X88282457Y-93865805D01*
X88335742Y-93912722D01*
X88355203Y-93980999D01*
X88334661Y-94048959D01*
X88282457Y-94094195D01*
X88248238Y-94110151D01*
X88248233Y-94110154D01*
X88243251Y-94112477D01*
X88138389Y-94185902D01*
X88060211Y-94240643D01*
X88060208Y-94240645D01*
X88055700Y-94243802D01*
X87893802Y-94405700D01*
X87762477Y-94593251D01*
X87760154Y-94598233D01*
X87760151Y-94598238D01*
X87668039Y-94795775D01*
X87665716Y-94800757D01*
X87606457Y-95021913D01*
X87586502Y-95250000D01*
X87606457Y-95478087D01*
X87607881Y-95483400D01*
X87607881Y-95483402D01*
X87647163Y-95630001D01*
X87665716Y-95699243D01*
X87668039Y-95704224D01*
X87668039Y-95704225D01*
X87760151Y-95901762D01*
X87760154Y-95901767D01*
X87762477Y-95906749D01*
X87893802Y-96094300D01*
X88055700Y-96256198D01*
X88060208Y-96259355D01*
X88060211Y-96259357D01*
X88138389Y-96314098D01*
X88243251Y-96387523D01*
X88248233Y-96389846D01*
X88248238Y-96389849D01*
X88282457Y-96405805D01*
X88335742Y-96452722D01*
X88355203Y-96520999D01*
X88334661Y-96588959D01*
X88282457Y-96634195D01*
X88248238Y-96650151D01*
X88248233Y-96650154D01*
X88243251Y-96652477D01*
X88138389Y-96725902D01*
X88060211Y-96780643D01*
X88060208Y-96780645D01*
X88055700Y-96783802D01*
X87893802Y-96945700D01*
X87762477Y-97133251D01*
X87760154Y-97138233D01*
X87760151Y-97138238D01*
X87668039Y-97335775D01*
X87665716Y-97340757D01*
X87606457Y-97561913D01*
X87586502Y-97790000D01*
X87606457Y-98018087D01*
X87607881Y-98023400D01*
X87607881Y-98023402D01*
X87647163Y-98170001D01*
X87665716Y-98239243D01*
X87668039Y-98244224D01*
X87668039Y-98244225D01*
X87760151Y-98441762D01*
X87760154Y-98441767D01*
X87762477Y-98446749D01*
X87893802Y-98634300D01*
X88055700Y-98796198D01*
X88060208Y-98799355D01*
X88060211Y-98799357D01*
X88138389Y-98854098D01*
X88243251Y-98927523D01*
X88248233Y-98929846D01*
X88248238Y-98929849D01*
X88282457Y-98945805D01*
X88335742Y-98992722D01*
X88355203Y-99060999D01*
X88334661Y-99128959D01*
X88282457Y-99174195D01*
X88248238Y-99190151D01*
X88248233Y-99190154D01*
X88243251Y-99192477D01*
X88138389Y-99265902D01*
X88060211Y-99320643D01*
X88060208Y-99320645D01*
X88055700Y-99323802D01*
X87893802Y-99485700D01*
X87762477Y-99673251D01*
X87760154Y-99678233D01*
X87760151Y-99678238D01*
X87668039Y-99875775D01*
X87665716Y-99880757D01*
X87606457Y-100101913D01*
X87586502Y-100330000D01*
X87606457Y-100558087D01*
X87607881Y-100563400D01*
X87607881Y-100563402D01*
X87659086Y-100754498D01*
X87665716Y-100779243D01*
X87668039Y-100784224D01*
X87668039Y-100784225D01*
X87760151Y-100981762D01*
X87760154Y-100981767D01*
X87762477Y-100986749D01*
X87893802Y-101174300D01*
X88055700Y-101336198D01*
X88060208Y-101339355D01*
X88060211Y-101339357D01*
X88138389Y-101394098D01*
X88243251Y-101467523D01*
X88248233Y-101469846D01*
X88248238Y-101469849D01*
X88282457Y-101485805D01*
X88335742Y-101532722D01*
X88355203Y-101600999D01*
X88334661Y-101668959D01*
X88282457Y-101714195D01*
X88248238Y-101730151D01*
X88248233Y-101730154D01*
X88243251Y-101732477D01*
X88138389Y-101805902D01*
X88060211Y-101860643D01*
X88060208Y-101860645D01*
X88055700Y-101863802D01*
X87893802Y-102025700D01*
X87890645Y-102030208D01*
X87890643Y-102030211D01*
X87835902Y-102108389D01*
X87762477Y-102213251D01*
X87760154Y-102218233D01*
X87760151Y-102218238D01*
X87677908Y-102394610D01*
X87665716Y-102420757D01*
X87664294Y-102426065D01*
X87664293Y-102426067D01*
X87612407Y-102619707D01*
X87606457Y-102641913D01*
X87586502Y-102870000D01*
X87606457Y-103098087D01*
X87607881Y-103103400D01*
X87607881Y-103103402D01*
X87655851Y-103282425D01*
X87665716Y-103319243D01*
X87668039Y-103324224D01*
X87668039Y-103324225D01*
X87760151Y-103521762D01*
X87760154Y-103521767D01*
X87762477Y-103526749D01*
X87765634Y-103531257D01*
X87869078Y-103678990D01*
X87893802Y-103714300D01*
X88055700Y-103876198D01*
X88060208Y-103879355D01*
X88060211Y-103879357D01*
X88100445Y-103907529D01*
X88243251Y-104007523D01*
X88248233Y-104009846D01*
X88248238Y-104009849D01*
X88282457Y-104025805D01*
X88335742Y-104072722D01*
X88355203Y-104140999D01*
X88334661Y-104208959D01*
X88282457Y-104254195D01*
X88248238Y-104270151D01*
X88248233Y-104270154D01*
X88243251Y-104272477D01*
X88177294Y-104318661D01*
X88060211Y-104400643D01*
X88060208Y-104400645D01*
X88055700Y-104403802D01*
X87893802Y-104565700D01*
X87890645Y-104570208D01*
X87890643Y-104570211D01*
X87835902Y-104648389D01*
X87762477Y-104753251D01*
X87760154Y-104758233D01*
X87760151Y-104758238D01*
X87752661Y-104774301D01*
X87665716Y-104960757D01*
X87664294Y-104966065D01*
X87664293Y-104966067D01*
X87612407Y-105159707D01*
X87606457Y-105181913D01*
X87586502Y-105410000D01*
X87606457Y-105638087D01*
X87607881Y-105643400D01*
X87607881Y-105643402D01*
X87655851Y-105822425D01*
X87665716Y-105859243D01*
X87668039Y-105864224D01*
X87668039Y-105864225D01*
X87760151Y-106061762D01*
X87760154Y-106061767D01*
X87762477Y-106066749D01*
X87790968Y-106107438D01*
X87869078Y-106218990D01*
X87893802Y-106254300D01*
X88055700Y-106416198D01*
X88060208Y-106419355D01*
X88060211Y-106419357D01*
X88098633Y-106446260D01*
X88243251Y-106547523D01*
X88248233Y-106549846D01*
X88248238Y-106549849D01*
X88282457Y-106565805D01*
X88335742Y-106612722D01*
X88355203Y-106680999D01*
X88334661Y-106748959D01*
X88282457Y-106794195D01*
X88248238Y-106810151D01*
X88248233Y-106810154D01*
X88243251Y-106812477D01*
X88138389Y-106885902D01*
X88060211Y-106940643D01*
X88060208Y-106940645D01*
X88055700Y-106943802D01*
X87893802Y-107105700D01*
X87890645Y-107110208D01*
X87890643Y-107110211D01*
X87835902Y-107188389D01*
X87762477Y-107293251D01*
X87760154Y-107298233D01*
X87760151Y-107298238D01*
X87677908Y-107474610D01*
X87665716Y-107500757D01*
X87664294Y-107506065D01*
X87664293Y-107506067D01*
X87612407Y-107699707D01*
X87606457Y-107721913D01*
X87586502Y-107950000D01*
X87606457Y-108178087D01*
X87607881Y-108183400D01*
X87607881Y-108183402D01*
X87655851Y-108362425D01*
X87665716Y-108399243D01*
X87668039Y-108404224D01*
X87668039Y-108404225D01*
X87760151Y-108601762D01*
X87760154Y-108601767D01*
X87762477Y-108606749D01*
X87765634Y-108611257D01*
X87880238Y-108774928D01*
X87893802Y-108794300D01*
X88055700Y-108956198D01*
X88060208Y-108959355D01*
X88060211Y-108959357D01*
X88100445Y-108987529D01*
X88243251Y-109087523D01*
X88248233Y-109089846D01*
X88248238Y-109089849D01*
X88282457Y-109105805D01*
X88335742Y-109152722D01*
X88355203Y-109220999D01*
X88334661Y-109288959D01*
X88282457Y-109334195D01*
X88248238Y-109350151D01*
X88248233Y-109350154D01*
X88243251Y-109352477D01*
X88138389Y-109425902D01*
X88060211Y-109480643D01*
X88060208Y-109480645D01*
X88055700Y-109483802D01*
X87893802Y-109645700D01*
X87762477Y-109833251D01*
X87760154Y-109838233D01*
X87760151Y-109838238D01*
X87673999Y-110022994D01*
X87665716Y-110040757D01*
X87664294Y-110046065D01*
X87664293Y-110046067D01*
X87629116Y-110177348D01*
X87606457Y-110261913D01*
X87586502Y-110490000D01*
X87606457Y-110718087D01*
X87607881Y-110723400D01*
X87607881Y-110723402D01*
X87634793Y-110823836D01*
X87665716Y-110939243D01*
X87668039Y-110944224D01*
X87668039Y-110944225D01*
X87760151Y-111141762D01*
X87760154Y-111141767D01*
X87762477Y-111146749D01*
X87796977Y-111196020D01*
X87851736Y-111274223D01*
X87893802Y-111334300D01*
X88055700Y-111496198D01*
X88060208Y-111499355D01*
X88060211Y-111499357D01*
X88138389Y-111554098D01*
X88243251Y-111627523D01*
X88248233Y-111629846D01*
X88248238Y-111629849D01*
X88282457Y-111645805D01*
X88335742Y-111692722D01*
X88355203Y-111760999D01*
X88334661Y-111828959D01*
X88282457Y-111874195D01*
X88248238Y-111890151D01*
X88248233Y-111890154D01*
X88243251Y-111892477D01*
X88138389Y-111965902D01*
X88060211Y-112020643D01*
X88060208Y-112020645D01*
X88055700Y-112023802D01*
X87893802Y-112185700D01*
X87890645Y-112190208D01*
X87890643Y-112190211D01*
X87835902Y-112268389D01*
X87762477Y-112373251D01*
X87760154Y-112378233D01*
X87760151Y-112378238D01*
X87677908Y-112554610D01*
X87665716Y-112580757D01*
X87664294Y-112586065D01*
X87664293Y-112586067D01*
X87612407Y-112779707D01*
X87606457Y-112801913D01*
X87586502Y-113030000D01*
X87606457Y-113258087D01*
X87607881Y-113263400D01*
X87607881Y-113263402D01*
X87655851Y-113442425D01*
X87665716Y-113479243D01*
X87668039Y-113484224D01*
X87668039Y-113484225D01*
X87760151Y-113681762D01*
X87760154Y-113681767D01*
X87762477Y-113686749D01*
X87765634Y-113691257D01*
X87869078Y-113838990D01*
X87893802Y-113874300D01*
X88055700Y-114036198D01*
X88060211Y-114039357D01*
X88064424Y-114042892D01*
X88063473Y-114044026D01*
X88103471Y-114094071D01*
X88110776Y-114164690D01*
X88078742Y-114228049D01*
X88017538Y-114264030D01*
X88000483Y-114267082D01*
X87989684Y-114268255D01*
X87853295Y-114319385D01*
X87736739Y-114406739D01*
X87649385Y-114523295D01*
X87598255Y-114659684D01*
X87591500Y-114721866D01*
X87591500Y-115930406D01*
X87571498Y-115998527D01*
X87554595Y-116019501D01*
X86452000Y-117122095D01*
X86389688Y-117156121D01*
X86362905Y-117159000D01*
X72514094Y-117159000D01*
X72445973Y-117138998D01*
X72424999Y-117122095D01*
X71372405Y-116069500D01*
X71338379Y-116007188D01*
X71335500Y-115980405D01*
X71335500Y-115570000D01*
X72346502Y-115570000D01*
X72366457Y-115798087D01*
X72425716Y-116019243D01*
X72428039Y-116024224D01*
X72428039Y-116024225D01*
X72520151Y-116221762D01*
X72520154Y-116221767D01*
X72522477Y-116226749D01*
X72653802Y-116414300D01*
X72815700Y-116576198D01*
X72820208Y-116579355D01*
X72820211Y-116579357D01*
X72861542Y-116608297D01*
X73003251Y-116707523D01*
X73008233Y-116709846D01*
X73008238Y-116709849D01*
X73177212Y-116788642D01*
X73210757Y-116804284D01*
X73216065Y-116805706D01*
X73216067Y-116805707D01*
X73426598Y-116862119D01*
X73426600Y-116862119D01*
X73431913Y-116863543D01*
X73660000Y-116883498D01*
X73888087Y-116863543D01*
X73893400Y-116862119D01*
X73893402Y-116862119D01*
X74103933Y-116805707D01*
X74103935Y-116805706D01*
X74109243Y-116804284D01*
X74142788Y-116788642D01*
X74311762Y-116709849D01*
X74311767Y-116709846D01*
X74316749Y-116707523D01*
X74458458Y-116608297D01*
X74499789Y-116579357D01*
X74499792Y-116579355D01*
X74504300Y-116576198D01*
X74666198Y-116414300D01*
X74797523Y-116226749D01*
X74799846Y-116221767D01*
X74799849Y-116221762D01*
X74891961Y-116024225D01*
X74891961Y-116024224D01*
X74894284Y-116019243D01*
X74953543Y-115798087D01*
X74973498Y-115570000D01*
X74953543Y-115341913D01*
X74894284Y-115120757D01*
X74807665Y-114935000D01*
X82906496Y-114935000D01*
X82926458Y-115124928D01*
X82985473Y-115306556D01*
X83080960Y-115471944D01*
X83085378Y-115476851D01*
X83085379Y-115476852D01*
X83204325Y-115608955D01*
X83208747Y-115613866D01*
X83363248Y-115726118D01*
X83369276Y-115728802D01*
X83369278Y-115728803D01*
X83531681Y-115801109D01*
X83537712Y-115803794D01*
X83631113Y-115823647D01*
X83718056Y-115842128D01*
X83718061Y-115842128D01*
X83724513Y-115843500D01*
X83915487Y-115843500D01*
X83921939Y-115842128D01*
X83921944Y-115842128D01*
X84008887Y-115823647D01*
X84102288Y-115803794D01*
X84108319Y-115801109D01*
X84270722Y-115728803D01*
X84270724Y-115728802D01*
X84276752Y-115726118D01*
X84431253Y-115613866D01*
X84435675Y-115608955D01*
X84554621Y-115476852D01*
X84554622Y-115476851D01*
X84559040Y-115471944D01*
X84654527Y-115306556D01*
X84713542Y-115124928D01*
X84733504Y-114935000D01*
X84713542Y-114745072D01*
X84654527Y-114563444D01*
X84598331Y-114466109D01*
X84562342Y-114403775D01*
X84562341Y-114403774D01*
X84559040Y-114398056D01*
X84554621Y-114393148D01*
X84552564Y-114390317D01*
X84528705Y-114323449D01*
X84528500Y-114316256D01*
X84528500Y-109203744D01*
X84548502Y-109135623D01*
X84552564Y-109129683D01*
X84554621Y-109126852D01*
X84559040Y-109121944D01*
X84589468Y-109069242D01*
X84651223Y-108962279D01*
X84651224Y-108962278D01*
X84654527Y-108956556D01*
X84713542Y-108774928D01*
X84733504Y-108585000D01*
X84719993Y-108456453D01*
X84714232Y-108401635D01*
X84714232Y-108401633D01*
X84713542Y-108395072D01*
X84654527Y-108213444D01*
X84559040Y-108048056D01*
X84533696Y-108019908D01*
X84435675Y-107911045D01*
X84435674Y-107911044D01*
X84431253Y-107906134D01*
X84276752Y-107793882D01*
X84270724Y-107791198D01*
X84270722Y-107791197D01*
X84108319Y-107718891D01*
X84108318Y-107718891D01*
X84102288Y-107716206D01*
X84000499Y-107694570D01*
X83921944Y-107677872D01*
X83921939Y-107677872D01*
X83915487Y-107676500D01*
X83724513Y-107676500D01*
X83718061Y-107677872D01*
X83718056Y-107677872D01*
X83639501Y-107694570D01*
X83537712Y-107716206D01*
X83531682Y-107718891D01*
X83531681Y-107718891D01*
X83369278Y-107791197D01*
X83369276Y-107791198D01*
X83363248Y-107793882D01*
X83208747Y-107906134D01*
X83204326Y-107911044D01*
X83204325Y-107911045D01*
X83106305Y-108019908D01*
X83080960Y-108048056D01*
X82985473Y-108213444D01*
X82926458Y-108395072D01*
X82925768Y-108401633D01*
X82925768Y-108401635D01*
X82920007Y-108456453D01*
X82906496Y-108585000D01*
X82926458Y-108774928D01*
X82985473Y-108956556D01*
X82988776Y-108962278D01*
X82988777Y-108962279D01*
X83050532Y-109069242D01*
X83080960Y-109121944D01*
X83085379Y-109126852D01*
X83087436Y-109129683D01*
X83111295Y-109196551D01*
X83111500Y-109203744D01*
X83111500Y-114316256D01*
X83091498Y-114384377D01*
X83087436Y-114390317D01*
X83085379Y-114393148D01*
X83080960Y-114398056D01*
X83077659Y-114403774D01*
X83077658Y-114403775D01*
X83041670Y-114466109D01*
X82985473Y-114563444D01*
X82926458Y-114745072D01*
X82906496Y-114935000D01*
X74807665Y-114935000D01*
X74799849Y-114918238D01*
X74799846Y-114918233D01*
X74797523Y-114913251D01*
X74684358Y-114751635D01*
X74669357Y-114730211D01*
X74669355Y-114730208D01*
X74666198Y-114725700D01*
X74504300Y-114563802D01*
X74499792Y-114560645D01*
X74499789Y-114560643D01*
X74364780Y-114466109D01*
X74316749Y-114432477D01*
X74311767Y-114430154D01*
X74311762Y-114430151D01*
X74277543Y-114414195D01*
X74224258Y-114367278D01*
X74204797Y-114299001D01*
X74225339Y-114231041D01*
X74277543Y-114185805D01*
X74311762Y-114169849D01*
X74311767Y-114169846D01*
X74316749Y-114167523D01*
X74454351Y-114071173D01*
X74499789Y-114039357D01*
X74499792Y-114039355D01*
X74504300Y-114036198D01*
X74666198Y-113874300D01*
X74690923Y-113838990D01*
X74794366Y-113691257D01*
X74797523Y-113686749D01*
X74799846Y-113681767D01*
X74799849Y-113681762D01*
X74891961Y-113484225D01*
X74891961Y-113484224D01*
X74894284Y-113479243D01*
X74904150Y-113442425D01*
X74952119Y-113263402D01*
X74952119Y-113263400D01*
X74953543Y-113258087D01*
X74973498Y-113030000D01*
X74953543Y-112801913D01*
X74947593Y-112779707D01*
X74895707Y-112586067D01*
X74895706Y-112586065D01*
X74894284Y-112580757D01*
X74882092Y-112554610D01*
X74799849Y-112378238D01*
X74799846Y-112378233D01*
X74797523Y-112373251D01*
X74724098Y-112268389D01*
X74669357Y-112190211D01*
X74669355Y-112190208D01*
X74666198Y-112185700D01*
X74504300Y-112023802D01*
X74499792Y-112020645D01*
X74499789Y-112020643D01*
X74421611Y-111965902D01*
X74316749Y-111892477D01*
X74311767Y-111890154D01*
X74311762Y-111890151D01*
X74277543Y-111874195D01*
X74224258Y-111827278D01*
X74204797Y-111759001D01*
X74225339Y-111691041D01*
X74277543Y-111645805D01*
X74311762Y-111629849D01*
X74311767Y-111629846D01*
X74316749Y-111627523D01*
X74421611Y-111554098D01*
X74499789Y-111499357D01*
X74499792Y-111499355D01*
X74504300Y-111496198D01*
X74666198Y-111334300D01*
X74708265Y-111274223D01*
X74763023Y-111196020D01*
X74797523Y-111146749D01*
X74799846Y-111141767D01*
X74799849Y-111141762D01*
X74891961Y-110944225D01*
X74891961Y-110944224D01*
X74894284Y-110939243D01*
X74925208Y-110823836D01*
X74952119Y-110723402D01*
X74952119Y-110723400D01*
X74953543Y-110718087D01*
X74973498Y-110490000D01*
X74953543Y-110261913D01*
X74930884Y-110177348D01*
X74895707Y-110046067D01*
X74895706Y-110046065D01*
X74894284Y-110040757D01*
X74886001Y-110022994D01*
X74799849Y-109838238D01*
X74799846Y-109838233D01*
X74797523Y-109833251D01*
X74666198Y-109645700D01*
X74504300Y-109483802D01*
X74499792Y-109480645D01*
X74499789Y-109480643D01*
X74421611Y-109425902D01*
X74316749Y-109352477D01*
X74311767Y-109350154D01*
X74311762Y-109350151D01*
X74277543Y-109334195D01*
X74224258Y-109287278D01*
X74204797Y-109219001D01*
X74225339Y-109151041D01*
X74277543Y-109105805D01*
X74311762Y-109089849D01*
X74311767Y-109089846D01*
X74316749Y-109087523D01*
X74459555Y-108987529D01*
X74499789Y-108959357D01*
X74499792Y-108959355D01*
X74504300Y-108956198D01*
X74666198Y-108794300D01*
X74679763Y-108774928D01*
X74794366Y-108611257D01*
X74797523Y-108606749D01*
X74799846Y-108601767D01*
X74799849Y-108601762D01*
X74891961Y-108404225D01*
X74891961Y-108404224D01*
X74894284Y-108399243D01*
X74904150Y-108362425D01*
X74952119Y-108183402D01*
X74952119Y-108183400D01*
X74953543Y-108178087D01*
X74973498Y-107950000D01*
X74953543Y-107721913D01*
X74947593Y-107699707D01*
X74895707Y-107506067D01*
X74895706Y-107506065D01*
X74894284Y-107500757D01*
X74882092Y-107474610D01*
X74799849Y-107298238D01*
X74799846Y-107298233D01*
X74797523Y-107293251D01*
X74724098Y-107188389D01*
X74669357Y-107110211D01*
X74669355Y-107110208D01*
X74666198Y-107105700D01*
X74504300Y-106943802D01*
X74499792Y-106940645D01*
X74499789Y-106940643D01*
X74421611Y-106885902D01*
X74316749Y-106812477D01*
X74311767Y-106810154D01*
X74311762Y-106810151D01*
X74277543Y-106794195D01*
X74224258Y-106747278D01*
X74204797Y-106679001D01*
X74225339Y-106611041D01*
X74277543Y-106565805D01*
X74311762Y-106549849D01*
X74311767Y-106549846D01*
X74316749Y-106547523D01*
X74461367Y-106446260D01*
X74499789Y-106419357D01*
X74499792Y-106419355D01*
X74504300Y-106416198D01*
X74666198Y-106254300D01*
X74690923Y-106218990D01*
X74769032Y-106107438D01*
X74797523Y-106066749D01*
X74799846Y-106061767D01*
X74799849Y-106061762D01*
X74891961Y-105864225D01*
X74891961Y-105864224D01*
X74894284Y-105859243D01*
X74904150Y-105822425D01*
X74952119Y-105643402D01*
X74952119Y-105643400D01*
X74953543Y-105638087D01*
X74973498Y-105410000D01*
X74953543Y-105181913D01*
X74947593Y-105159707D01*
X74895707Y-104966067D01*
X74895706Y-104966065D01*
X74894284Y-104960757D01*
X74807339Y-104774301D01*
X74799849Y-104758238D01*
X74799846Y-104758233D01*
X74797523Y-104753251D01*
X74724098Y-104648389D01*
X74669357Y-104570211D01*
X74669355Y-104570208D01*
X74666198Y-104565700D01*
X74504300Y-104403802D01*
X74499792Y-104400645D01*
X74499789Y-104400643D01*
X74382706Y-104318661D01*
X74316749Y-104272477D01*
X74311767Y-104270154D01*
X74311762Y-104270151D01*
X74277543Y-104254195D01*
X74224258Y-104207278D01*
X74204797Y-104139001D01*
X74225339Y-104071041D01*
X74277543Y-104025805D01*
X74311762Y-104009849D01*
X74311767Y-104009846D01*
X74316749Y-104007523D01*
X74459555Y-103907529D01*
X74499789Y-103879357D01*
X74499792Y-103879355D01*
X74504300Y-103876198D01*
X74666198Y-103714300D01*
X74690923Y-103678990D01*
X74794366Y-103531257D01*
X74797523Y-103526749D01*
X74799846Y-103521767D01*
X74799849Y-103521762D01*
X74891961Y-103324225D01*
X74891961Y-103324224D01*
X74894284Y-103319243D01*
X74904150Y-103282425D01*
X74952119Y-103103402D01*
X74952119Y-103103400D01*
X74953543Y-103098087D01*
X74973498Y-102870000D01*
X74953543Y-102641913D01*
X74947593Y-102619707D01*
X74895707Y-102426067D01*
X74895706Y-102426065D01*
X74894284Y-102420757D01*
X74882092Y-102394610D01*
X74799849Y-102218238D01*
X74799846Y-102218233D01*
X74797523Y-102213251D01*
X74724098Y-102108389D01*
X74669357Y-102030211D01*
X74669355Y-102030208D01*
X74666198Y-102025700D01*
X74504300Y-101863802D01*
X74499792Y-101860645D01*
X74499789Y-101860643D01*
X74421611Y-101805902D01*
X74316749Y-101732477D01*
X74311767Y-101730154D01*
X74311762Y-101730151D01*
X74277543Y-101714195D01*
X74224258Y-101667278D01*
X74204797Y-101599001D01*
X74225339Y-101531041D01*
X74277543Y-101485805D01*
X74311762Y-101469849D01*
X74311767Y-101469846D01*
X74316749Y-101467523D01*
X74421611Y-101394098D01*
X74499789Y-101339357D01*
X74499792Y-101339355D01*
X74504300Y-101336198D01*
X74666198Y-101174300D01*
X74797523Y-100986749D01*
X74799846Y-100981767D01*
X74799849Y-100981762D01*
X74891961Y-100784225D01*
X74891961Y-100784224D01*
X74894284Y-100779243D01*
X74900915Y-100754498D01*
X74952119Y-100563402D01*
X74952119Y-100563400D01*
X74953543Y-100558087D01*
X74973498Y-100330000D01*
X74953543Y-100101913D01*
X74894284Y-99880757D01*
X74891961Y-99875775D01*
X74799849Y-99678238D01*
X74799846Y-99678233D01*
X74797523Y-99673251D01*
X74666198Y-99485700D01*
X74504300Y-99323802D01*
X74499792Y-99320645D01*
X74499789Y-99320643D01*
X74421611Y-99265902D01*
X74316749Y-99192477D01*
X74311767Y-99190154D01*
X74311762Y-99190151D01*
X74277543Y-99174195D01*
X74224258Y-99127278D01*
X74204797Y-99059001D01*
X74225339Y-98991041D01*
X74277543Y-98945805D01*
X74311762Y-98929849D01*
X74311767Y-98929846D01*
X74316749Y-98927523D01*
X74421611Y-98854098D01*
X74499789Y-98799357D01*
X74499792Y-98799355D01*
X74504300Y-98796198D01*
X74666198Y-98634300D01*
X74797523Y-98446749D01*
X74799846Y-98441767D01*
X74799849Y-98441762D01*
X74891961Y-98244225D01*
X74891961Y-98244224D01*
X74894284Y-98239243D01*
X74912838Y-98170001D01*
X74952119Y-98023402D01*
X74952119Y-98023400D01*
X74953543Y-98018087D01*
X74973498Y-97790000D01*
X74953543Y-97561913D01*
X74894284Y-97340757D01*
X74891961Y-97335775D01*
X74799849Y-97138238D01*
X74799846Y-97138233D01*
X74797523Y-97133251D01*
X74666198Y-96945700D01*
X74504300Y-96783802D01*
X74499792Y-96780645D01*
X74499789Y-96780643D01*
X74421611Y-96725902D01*
X74316749Y-96652477D01*
X74311767Y-96650154D01*
X74311762Y-96650151D01*
X74277543Y-96634195D01*
X74224258Y-96587278D01*
X74204797Y-96519001D01*
X74225339Y-96451041D01*
X74277543Y-96405805D01*
X74311762Y-96389849D01*
X74311767Y-96389846D01*
X74316749Y-96387523D01*
X74421611Y-96314098D01*
X74499789Y-96259357D01*
X74499792Y-96259355D01*
X74504300Y-96256198D01*
X74666198Y-96094300D01*
X74797523Y-95906749D01*
X74799846Y-95901767D01*
X74799849Y-95901762D01*
X74891961Y-95704225D01*
X74891961Y-95704224D01*
X74894284Y-95699243D01*
X74912838Y-95630001D01*
X74952119Y-95483402D01*
X74952119Y-95483400D01*
X74953543Y-95478087D01*
X74973498Y-95250000D01*
X74953543Y-95021913D01*
X74894284Y-94800757D01*
X74891961Y-94795775D01*
X74799849Y-94598238D01*
X74799846Y-94598233D01*
X74797523Y-94593251D01*
X74666198Y-94405700D01*
X74504300Y-94243802D01*
X74499792Y-94240645D01*
X74499789Y-94240643D01*
X74421611Y-94185902D01*
X74316749Y-94112477D01*
X74311767Y-94110154D01*
X74311762Y-94110151D01*
X74276951Y-94093919D01*
X74223666Y-94047002D01*
X74204205Y-93978725D01*
X74224747Y-93910765D01*
X74276951Y-93865529D01*
X74311511Y-93849414D01*
X74321007Y-93843931D01*
X74499467Y-93718972D01*
X74507875Y-93711916D01*
X74661916Y-93557875D01*
X74668972Y-93549467D01*
X74793931Y-93371007D01*
X74799414Y-93361511D01*
X74885725Y-93176417D01*
X74887842Y-93162477D01*
X74884054Y-93160000D01*
X72444735Y-93160000D01*
X72431204Y-93163973D01*
X72430561Y-93168450D01*
X72520586Y-93361511D01*
X72526069Y-93371007D01*
X72651028Y-93549467D01*
X72658084Y-93557875D01*
X72812125Y-93711916D01*
X72820533Y-93718972D01*
X72998993Y-93843931D01*
X73008489Y-93849414D01*
X73043049Y-93865529D01*
X73096334Y-93912446D01*
X73115795Y-93980723D01*
X73095253Y-94048683D01*
X73043049Y-94093919D01*
X73008238Y-94110151D01*
X73008233Y-94110154D01*
X73003251Y-94112477D01*
X72898389Y-94185902D01*
X72820211Y-94240643D01*
X72820208Y-94240645D01*
X72815700Y-94243802D01*
X72653802Y-94405700D01*
X72522477Y-94593251D01*
X72520154Y-94598233D01*
X72520151Y-94598238D01*
X72428039Y-94795775D01*
X72425716Y-94800757D01*
X72366457Y-95021913D01*
X72346502Y-95250000D01*
X72366457Y-95478087D01*
X72367881Y-95483400D01*
X72367881Y-95483402D01*
X72407163Y-95630001D01*
X72425716Y-95699243D01*
X72428039Y-95704224D01*
X72428039Y-95704225D01*
X72520151Y-95901762D01*
X72520154Y-95901767D01*
X72522477Y-95906749D01*
X72653802Y-96094300D01*
X72815700Y-96256198D01*
X72820208Y-96259355D01*
X72820211Y-96259357D01*
X72898389Y-96314098D01*
X73003251Y-96387523D01*
X73008233Y-96389846D01*
X73008238Y-96389849D01*
X73042457Y-96405805D01*
X73095742Y-96452722D01*
X73115203Y-96520999D01*
X73094661Y-96588959D01*
X73042457Y-96634195D01*
X73008238Y-96650151D01*
X73008233Y-96650154D01*
X73003251Y-96652477D01*
X72898389Y-96725902D01*
X72820211Y-96780643D01*
X72820208Y-96780645D01*
X72815700Y-96783802D01*
X72653802Y-96945700D01*
X72522477Y-97133251D01*
X72520154Y-97138233D01*
X72520151Y-97138238D01*
X72428039Y-97335775D01*
X72425716Y-97340757D01*
X72366457Y-97561913D01*
X72346502Y-97790000D01*
X72366457Y-98018087D01*
X72367881Y-98023400D01*
X72367881Y-98023402D01*
X72407163Y-98170001D01*
X72425716Y-98239243D01*
X72428039Y-98244224D01*
X72428039Y-98244225D01*
X72520151Y-98441762D01*
X72520154Y-98441767D01*
X72522477Y-98446749D01*
X72653802Y-98634300D01*
X72815700Y-98796198D01*
X72820208Y-98799355D01*
X72820211Y-98799357D01*
X72898389Y-98854098D01*
X73003251Y-98927523D01*
X73008233Y-98929846D01*
X73008238Y-98929849D01*
X73042457Y-98945805D01*
X73095742Y-98992722D01*
X73115203Y-99060999D01*
X73094661Y-99128959D01*
X73042457Y-99174195D01*
X73008238Y-99190151D01*
X73008233Y-99190154D01*
X73003251Y-99192477D01*
X72898389Y-99265902D01*
X72820211Y-99320643D01*
X72820208Y-99320645D01*
X72815700Y-99323802D01*
X72653802Y-99485700D01*
X72522477Y-99673251D01*
X72520154Y-99678233D01*
X72520151Y-99678238D01*
X72428039Y-99875775D01*
X72425716Y-99880757D01*
X72366457Y-100101913D01*
X72346502Y-100330000D01*
X72366457Y-100558087D01*
X72367881Y-100563400D01*
X72367881Y-100563402D01*
X72419086Y-100754498D01*
X72425716Y-100779243D01*
X72428039Y-100784224D01*
X72428039Y-100784225D01*
X72520151Y-100981762D01*
X72520154Y-100981767D01*
X72522477Y-100986749D01*
X72653802Y-101174300D01*
X72815700Y-101336198D01*
X72820208Y-101339355D01*
X72820211Y-101339357D01*
X72898389Y-101394098D01*
X73003251Y-101467523D01*
X73008233Y-101469846D01*
X73008238Y-101469849D01*
X73042457Y-101485805D01*
X73095742Y-101532722D01*
X73115203Y-101600999D01*
X73094661Y-101668959D01*
X73042457Y-101714195D01*
X73008238Y-101730151D01*
X73008233Y-101730154D01*
X73003251Y-101732477D01*
X72898389Y-101805902D01*
X72820211Y-101860643D01*
X72820208Y-101860645D01*
X72815700Y-101863802D01*
X72653802Y-102025700D01*
X72650645Y-102030208D01*
X72650643Y-102030211D01*
X72595902Y-102108389D01*
X72522477Y-102213251D01*
X72520154Y-102218233D01*
X72520151Y-102218238D01*
X72437908Y-102394610D01*
X72425716Y-102420757D01*
X72424294Y-102426065D01*
X72424293Y-102426067D01*
X72372407Y-102619707D01*
X72366457Y-102641913D01*
X72346502Y-102870000D01*
X72366457Y-103098087D01*
X72367881Y-103103400D01*
X72367881Y-103103402D01*
X72415851Y-103282425D01*
X72425716Y-103319243D01*
X72428039Y-103324224D01*
X72428039Y-103324225D01*
X72520151Y-103521762D01*
X72520154Y-103521767D01*
X72522477Y-103526749D01*
X72525634Y-103531257D01*
X72629078Y-103678990D01*
X72653802Y-103714300D01*
X72815700Y-103876198D01*
X72820208Y-103879355D01*
X72820211Y-103879357D01*
X72860445Y-103907529D01*
X73003251Y-104007523D01*
X73008233Y-104009846D01*
X73008238Y-104009849D01*
X73042457Y-104025805D01*
X73095742Y-104072722D01*
X73115203Y-104140999D01*
X73094661Y-104208959D01*
X73042457Y-104254195D01*
X73008238Y-104270151D01*
X73008233Y-104270154D01*
X73003251Y-104272477D01*
X72937294Y-104318661D01*
X72820211Y-104400643D01*
X72820208Y-104400645D01*
X72815700Y-104403802D01*
X72653802Y-104565700D01*
X72650645Y-104570208D01*
X72650643Y-104570211D01*
X72595902Y-104648389D01*
X72522477Y-104753251D01*
X72520154Y-104758233D01*
X72520151Y-104758238D01*
X72512661Y-104774301D01*
X72425716Y-104960757D01*
X72424294Y-104966065D01*
X72424293Y-104966067D01*
X72372407Y-105159707D01*
X72366457Y-105181913D01*
X72346502Y-105410000D01*
X72366457Y-105638087D01*
X72367881Y-105643400D01*
X72367881Y-105643402D01*
X72415851Y-105822425D01*
X72425716Y-105859243D01*
X72428039Y-105864224D01*
X72428039Y-105864225D01*
X72520151Y-106061762D01*
X72520154Y-106061767D01*
X72522477Y-106066749D01*
X72550968Y-106107438D01*
X72629078Y-106218990D01*
X72653802Y-106254300D01*
X72815700Y-106416198D01*
X72820208Y-106419355D01*
X72820211Y-106419357D01*
X72858633Y-106446260D01*
X73003251Y-106547523D01*
X73008233Y-106549846D01*
X73008238Y-106549849D01*
X73042457Y-106565805D01*
X73095742Y-106612722D01*
X73115203Y-106680999D01*
X73094661Y-106748959D01*
X73042457Y-106794195D01*
X73008238Y-106810151D01*
X73008233Y-106810154D01*
X73003251Y-106812477D01*
X72898389Y-106885902D01*
X72820211Y-106940643D01*
X72820208Y-106940645D01*
X72815700Y-106943802D01*
X72653802Y-107105700D01*
X72650645Y-107110208D01*
X72650643Y-107110211D01*
X72595902Y-107188389D01*
X72522477Y-107293251D01*
X72520154Y-107298233D01*
X72520151Y-107298238D01*
X72437908Y-107474610D01*
X72425716Y-107500757D01*
X72424294Y-107506065D01*
X72424293Y-107506067D01*
X72372407Y-107699707D01*
X72366457Y-107721913D01*
X72346502Y-107950000D01*
X72366457Y-108178087D01*
X72367881Y-108183400D01*
X72367881Y-108183402D01*
X72415851Y-108362425D01*
X72425716Y-108399243D01*
X72428039Y-108404224D01*
X72428039Y-108404225D01*
X72520151Y-108601762D01*
X72520154Y-108601767D01*
X72522477Y-108606749D01*
X72525634Y-108611257D01*
X72640238Y-108774928D01*
X72653802Y-108794300D01*
X72815700Y-108956198D01*
X72820208Y-108959355D01*
X72820211Y-108959357D01*
X72860445Y-108987529D01*
X73003251Y-109087523D01*
X73008233Y-109089846D01*
X73008238Y-109089849D01*
X73042457Y-109105805D01*
X73095742Y-109152722D01*
X73115203Y-109220999D01*
X73094661Y-109288959D01*
X73042457Y-109334195D01*
X73008238Y-109350151D01*
X73008233Y-109350154D01*
X73003251Y-109352477D01*
X72898389Y-109425902D01*
X72820211Y-109480643D01*
X72820208Y-109480645D01*
X72815700Y-109483802D01*
X72653802Y-109645700D01*
X72522477Y-109833251D01*
X72520154Y-109838233D01*
X72520151Y-109838238D01*
X72433999Y-110022994D01*
X72425716Y-110040757D01*
X72424294Y-110046065D01*
X72424293Y-110046067D01*
X72389116Y-110177348D01*
X72366457Y-110261913D01*
X72346502Y-110490000D01*
X72366457Y-110718087D01*
X72367881Y-110723400D01*
X72367881Y-110723402D01*
X72394793Y-110823836D01*
X72425716Y-110939243D01*
X72428039Y-110944224D01*
X72428039Y-110944225D01*
X72520151Y-111141762D01*
X72520154Y-111141767D01*
X72522477Y-111146749D01*
X72556977Y-111196020D01*
X72611736Y-111274223D01*
X72653802Y-111334300D01*
X72815700Y-111496198D01*
X72820208Y-111499355D01*
X72820211Y-111499357D01*
X72898389Y-111554098D01*
X73003251Y-111627523D01*
X73008233Y-111629846D01*
X73008238Y-111629849D01*
X73042457Y-111645805D01*
X73095742Y-111692722D01*
X73115203Y-111760999D01*
X73094661Y-111828959D01*
X73042457Y-111874195D01*
X73008238Y-111890151D01*
X73008233Y-111890154D01*
X73003251Y-111892477D01*
X72898389Y-111965902D01*
X72820211Y-112020643D01*
X72820208Y-112020645D01*
X72815700Y-112023802D01*
X72653802Y-112185700D01*
X72650645Y-112190208D01*
X72650643Y-112190211D01*
X72595902Y-112268389D01*
X72522477Y-112373251D01*
X72520154Y-112378233D01*
X72520151Y-112378238D01*
X72437908Y-112554610D01*
X72425716Y-112580757D01*
X72424294Y-112586065D01*
X72424293Y-112586067D01*
X72372407Y-112779707D01*
X72366457Y-112801913D01*
X72346502Y-113030000D01*
X72366457Y-113258087D01*
X72367881Y-113263400D01*
X72367881Y-113263402D01*
X72415851Y-113442425D01*
X72425716Y-113479243D01*
X72428039Y-113484224D01*
X72428039Y-113484225D01*
X72520151Y-113681762D01*
X72520154Y-113681767D01*
X72522477Y-113686749D01*
X72525634Y-113691257D01*
X72629078Y-113838990D01*
X72653802Y-113874300D01*
X72815700Y-114036198D01*
X72820208Y-114039355D01*
X72820211Y-114039357D01*
X72865649Y-114071173D01*
X73003251Y-114167523D01*
X73008233Y-114169846D01*
X73008238Y-114169849D01*
X73042457Y-114185805D01*
X73095742Y-114232722D01*
X73115203Y-114300999D01*
X73094661Y-114368959D01*
X73042457Y-114414195D01*
X73008238Y-114430151D01*
X73008233Y-114430154D01*
X73003251Y-114432477D01*
X72955220Y-114466109D01*
X72820211Y-114560643D01*
X72820208Y-114560645D01*
X72815700Y-114563802D01*
X72653802Y-114725700D01*
X72650645Y-114730208D01*
X72650643Y-114730211D01*
X72635642Y-114751635D01*
X72522477Y-114913251D01*
X72520154Y-114918233D01*
X72520151Y-114918238D01*
X72512335Y-114935000D01*
X72425716Y-115120757D01*
X72366457Y-115341913D01*
X72346502Y-115570000D01*
X71335500Y-115570000D01*
X71335500Y-114671866D01*
X71328745Y-114609684D01*
X71277615Y-114473295D01*
X71190261Y-114356739D01*
X71073705Y-114269385D01*
X71052672Y-114261500D01*
X70955203Y-114224960D01*
X70898439Y-114182318D01*
X70873739Y-114115756D01*
X70888947Y-114046408D01*
X70910493Y-114017727D01*
X71011435Y-113917137D01*
X71015096Y-113913489D01*
X71046498Y-113869789D01*
X71142435Y-113736277D01*
X71145453Y-113732077D01*
X71165628Y-113691257D01*
X71242136Y-113536453D01*
X71242137Y-113536451D01*
X71244430Y-113531811D01*
X71309370Y-113318069D01*
X71338529Y-113096590D01*
X71340156Y-113030000D01*
X71321852Y-112807361D01*
X71267431Y-112590702D01*
X71178354Y-112385840D01*
X71057014Y-112198277D01*
X70906670Y-112033051D01*
X70902619Y-112029852D01*
X70902615Y-112029848D01*
X70735414Y-111897800D01*
X70735410Y-111897798D01*
X70731359Y-111894598D01*
X70689569Y-111871529D01*
X70639598Y-111821097D01*
X70624826Y-111751654D01*
X70649942Y-111685248D01*
X70677294Y-111658641D01*
X70852328Y-111533792D01*
X70860200Y-111527139D01*
X71011052Y-111376812D01*
X71017730Y-111368965D01*
X71142003Y-111196020D01*
X71147313Y-111187183D01*
X71241670Y-110996268D01*
X71245468Y-110986675D01*
X71254383Y-110957331D01*
X71254515Y-110943233D01*
X71247609Y-110940000D01*
X68712078Y-110940000D01*
X68698547Y-110943973D01*
X68697770Y-110949377D01*
X68758770Y-111099603D01*
X68763413Y-111108794D01*
X68874694Y-111290388D01*
X68880777Y-111298699D01*
X69020213Y-111459667D01*
X69027580Y-111466883D01*
X69191434Y-111602916D01*
X69199881Y-111608831D01*
X69268969Y-111649203D01*
X69317693Y-111700842D01*
X69330764Y-111770625D01*
X69304033Y-111836396D01*
X69263584Y-111869752D01*
X69250607Y-111876507D01*
X69246474Y-111879610D01*
X69246471Y-111879612D01*
X69115208Y-111978167D01*
X69071965Y-112010635D01*
X68917629Y-112172138D01*
X68914715Y-112176410D01*
X68914714Y-112176411D01*
X68899798Y-112198277D01*
X68791743Y-112356680D01*
X68697688Y-112559305D01*
X68637989Y-112774570D01*
X68614251Y-112996695D01*
X66040000Y-112996695D01*
X66040000Y-107916695D01*
X68614251Y-107916695D01*
X68614548Y-107921848D01*
X68614548Y-107921851D01*
X68620011Y-108016590D01*
X68627110Y-108139715D01*
X68628247Y-108144761D01*
X68628248Y-108144767D01*
X68636955Y-108183402D01*
X68676222Y-108357639D01*
X68760266Y-108564616D01*
X68876987Y-108755088D01*
X69023250Y-108923938D01*
X69195126Y-109066632D01*
X69262163Y-109105805D01*
X69268955Y-109109774D01*
X69317679Y-109161412D01*
X69330750Y-109231195D01*
X69304019Y-109296967D01*
X69263562Y-109330327D01*
X69255457Y-109334546D01*
X69246738Y-109340036D01*
X69076433Y-109467905D01*
X69068726Y-109474748D01*
X68921590Y-109628717D01*
X68915104Y-109636727D01*
X68795098Y-109812649D01*
X68790000Y-109821623D01*
X68700333Y-110014794D01*
X68697316Y-110022994D01*
X68697522Y-110036643D01*
X68705176Y-110040000D01*
X71244117Y-110040000D01*
X71257648Y-110036027D01*
X71258358Y-110031090D01*
X71179972Y-109850814D01*
X71175105Y-109841739D01*
X71059426Y-109662926D01*
X71053136Y-109654757D01*
X70909806Y-109497240D01*
X70902273Y-109490215D01*
X70735139Y-109358222D01*
X70726556Y-109352520D01*
X70689602Y-109332120D01*
X70639631Y-109281687D01*
X70624859Y-109212245D01*
X70649975Y-109145839D01*
X70677327Y-109119232D01*
X70700797Y-109102491D01*
X70856860Y-108991173D01*
X70888788Y-108959357D01*
X71011435Y-108837137D01*
X71015096Y-108833489D01*
X71046498Y-108789789D01*
X71142435Y-108656277D01*
X71145453Y-108652077D01*
X71165628Y-108611257D01*
X71242136Y-108456453D01*
X71242137Y-108456451D01*
X71244430Y-108451811D01*
X71309370Y-108238069D01*
X71338529Y-108016590D01*
X71340156Y-107950000D01*
X71321852Y-107727361D01*
X71267431Y-107510702D01*
X71178354Y-107305840D01*
X71057014Y-107118277D01*
X70906670Y-106953051D01*
X70902619Y-106949852D01*
X70902615Y-106949848D01*
X70735414Y-106817800D01*
X70735410Y-106817798D01*
X70731359Y-106814598D01*
X70690053Y-106791796D01*
X70640084Y-106741364D01*
X70625312Y-106671921D01*
X70650428Y-106605516D01*
X70677780Y-106578909D01*
X70726207Y-106544366D01*
X70856860Y-106451173D01*
X70888788Y-106419357D01*
X70973789Y-106334652D01*
X71015096Y-106293489D01*
X71046498Y-106249789D01*
X71142435Y-106116277D01*
X71145453Y-106112077D01*
X71165628Y-106071257D01*
X71242136Y-105916453D01*
X71242137Y-105916451D01*
X71244430Y-105911811D01*
X71309370Y-105698069D01*
X71338529Y-105476590D01*
X71340156Y-105410000D01*
X71321852Y-105187361D01*
X71267431Y-104970702D01*
X71178354Y-104765840D01*
X71057014Y-104578277D01*
X70906670Y-104413051D01*
X70902619Y-104409852D01*
X70902615Y-104409848D01*
X70735414Y-104277800D01*
X70735410Y-104277798D01*
X70731359Y-104274598D01*
X70690053Y-104251796D01*
X70640084Y-104201364D01*
X70625312Y-104131921D01*
X70650428Y-104065516D01*
X70677780Y-104038909D01*
X70726207Y-104004366D01*
X70856860Y-103911173D01*
X70888788Y-103879357D01*
X70938209Y-103830107D01*
X71015096Y-103753489D01*
X71046498Y-103709789D01*
X71142435Y-103576277D01*
X71145453Y-103572077D01*
X71165628Y-103531257D01*
X71242136Y-103376453D01*
X71242137Y-103376451D01*
X71244430Y-103371811D01*
X71309370Y-103158069D01*
X71338529Y-102936590D01*
X71340156Y-102870000D01*
X71321852Y-102647361D01*
X71267431Y-102430702D01*
X71178354Y-102225840D01*
X71057014Y-102038277D01*
X70906670Y-101873051D01*
X70902619Y-101869852D01*
X70902615Y-101869848D01*
X70735414Y-101737800D01*
X70735410Y-101737798D01*
X70731359Y-101734598D01*
X70723304Y-101730151D01*
X70679136Y-101705769D01*
X70535789Y-101626638D01*
X70530920Y-101624914D01*
X70530916Y-101624912D01*
X70330087Y-101553795D01*
X70330083Y-101553794D01*
X70325212Y-101552069D01*
X70320119Y-101551162D01*
X70320116Y-101551161D01*
X70110373Y-101513800D01*
X70110367Y-101513799D01*
X70105284Y-101512894D01*
X70031452Y-101511992D01*
X69887081Y-101510228D01*
X69887079Y-101510228D01*
X69881911Y-101510165D01*
X69661091Y-101543955D01*
X69448756Y-101613357D01*
X69250607Y-101716507D01*
X69246474Y-101719610D01*
X69246471Y-101719612D01*
X69225132Y-101735634D01*
X69071965Y-101850635D01*
X68917629Y-102012138D01*
X68914715Y-102016410D01*
X68914714Y-102016411D01*
X68905300Y-102030211D01*
X68791743Y-102196680D01*
X68697688Y-102399305D01*
X68637989Y-102614570D01*
X68614251Y-102836695D01*
X68614548Y-102841848D01*
X68614548Y-102841851D01*
X68620011Y-102936590D01*
X68627110Y-103059715D01*
X68628247Y-103064761D01*
X68628248Y-103064767D01*
X68636955Y-103103402D01*
X68676222Y-103277639D01*
X68760266Y-103484616D01*
X68765848Y-103493725D01*
X68872650Y-103668010D01*
X68876987Y-103675088D01*
X69023250Y-103843938D01*
X69195126Y-103986632D01*
X69262163Y-104025805D01*
X69268445Y-104029476D01*
X69317169Y-104081114D01*
X69330240Y-104150897D01*
X69303509Y-104216669D01*
X69263055Y-104250027D01*
X69250607Y-104256507D01*
X69246474Y-104259610D01*
X69246471Y-104259612D01*
X69076100Y-104387530D01*
X69071965Y-104390635D01*
X69068393Y-104394373D01*
X68930752Y-104538406D01*
X68917629Y-104552138D01*
X68914715Y-104556410D01*
X68914714Y-104556411D01*
X68905300Y-104570211D01*
X68791743Y-104736680D01*
X68697688Y-104939305D01*
X68637989Y-105154570D01*
X68614251Y-105376695D01*
X68614548Y-105381848D01*
X68614548Y-105381851D01*
X68619838Y-105473594D01*
X68627110Y-105599715D01*
X68628247Y-105604761D01*
X68628248Y-105604767D01*
X68649076Y-105697183D01*
X68676222Y-105817639D01*
X68760266Y-106024616D01*
X68876987Y-106215088D01*
X69023250Y-106383938D01*
X69195126Y-106526632D01*
X69262163Y-106565805D01*
X69268445Y-106569476D01*
X69317169Y-106621114D01*
X69330240Y-106690897D01*
X69303509Y-106756669D01*
X69263055Y-106790027D01*
X69250607Y-106796507D01*
X69246474Y-106799610D01*
X69246471Y-106799612D01*
X69225132Y-106815634D01*
X69071965Y-106930635D01*
X68917629Y-107092138D01*
X68914715Y-107096410D01*
X68914714Y-107096411D01*
X68905300Y-107110211D01*
X68791743Y-107276680D01*
X68697688Y-107479305D01*
X68637989Y-107694570D01*
X68614251Y-107916695D01*
X66040000Y-107916695D01*
X66040000Y-95250000D01*
X69044502Y-95250000D01*
X69064457Y-95478087D01*
X69065881Y-95483400D01*
X69065881Y-95483402D01*
X69105163Y-95630001D01*
X69123716Y-95699243D01*
X69126039Y-95704224D01*
X69126039Y-95704225D01*
X69218151Y-95901762D01*
X69218154Y-95901767D01*
X69220477Y-95906749D01*
X69351802Y-96094300D01*
X69513700Y-96256198D01*
X69518208Y-96259355D01*
X69518211Y-96259357D01*
X69596389Y-96314098D01*
X69701251Y-96387523D01*
X69706233Y-96389846D01*
X69706238Y-96389849D01*
X69903775Y-96481961D01*
X69908757Y-96484284D01*
X69914065Y-96485706D01*
X69914067Y-96485707D01*
X70124598Y-96542119D01*
X70124600Y-96542119D01*
X70129913Y-96543543D01*
X70358000Y-96563498D01*
X70586087Y-96543543D01*
X70591400Y-96542119D01*
X70591402Y-96542119D01*
X70801933Y-96485707D01*
X70801935Y-96485706D01*
X70807243Y-96484284D01*
X70812225Y-96481961D01*
X71009762Y-96389849D01*
X71009767Y-96389846D01*
X71014749Y-96387523D01*
X71119611Y-96314098D01*
X71197789Y-96259357D01*
X71197792Y-96259355D01*
X71202300Y-96256198D01*
X71364198Y-96094300D01*
X71495523Y-95906749D01*
X71497846Y-95901767D01*
X71497849Y-95901762D01*
X71589961Y-95704225D01*
X71589961Y-95704224D01*
X71592284Y-95699243D01*
X71610838Y-95630001D01*
X71650119Y-95483402D01*
X71650119Y-95483400D01*
X71651543Y-95478087D01*
X71671498Y-95250000D01*
X71651543Y-95021913D01*
X71592284Y-94800757D01*
X71589961Y-94795775D01*
X71497849Y-94598238D01*
X71497846Y-94598233D01*
X71495523Y-94593251D01*
X71364198Y-94405700D01*
X71202300Y-94243802D01*
X71197792Y-94240645D01*
X71197789Y-94240643D01*
X71119611Y-94185902D01*
X71014749Y-94112477D01*
X71009767Y-94110154D01*
X71009762Y-94110151D01*
X70969187Y-94091231D01*
X70915902Y-94044314D01*
X70896441Y-93976036D01*
X70901263Y-93942497D01*
X70902921Y-93936679D01*
X70900598Y-93928994D01*
X70370812Y-93399208D01*
X70356868Y-93391594D01*
X70355035Y-93391725D01*
X70348420Y-93395976D01*
X69820571Y-93923825D01*
X69812956Y-93937769D01*
X69815255Y-93969906D01*
X69800164Y-94039280D01*
X69749962Y-94089482D01*
X69742826Y-94093090D01*
X69706239Y-94110151D01*
X69701251Y-94112477D01*
X69596389Y-94185902D01*
X69518211Y-94240643D01*
X69518208Y-94240645D01*
X69513700Y-94243802D01*
X69351802Y-94405700D01*
X69220477Y-94593251D01*
X69218154Y-94598233D01*
X69218151Y-94598238D01*
X69126039Y-94795775D01*
X69123716Y-94800757D01*
X69064457Y-95021913D01*
X69044502Y-95250000D01*
X66040000Y-95250000D01*
X66040000Y-92755475D01*
X69045483Y-92755475D01*
X69064472Y-92972519D01*
X69066375Y-92983312D01*
X69122764Y-93193761D01*
X69126510Y-93204053D01*
X69163707Y-93283823D01*
X69173025Y-93294406D01*
X69179006Y-93292598D01*
X69708792Y-92762812D01*
X69715170Y-92751132D01*
X70999594Y-92751132D01*
X70999725Y-92752965D01*
X71003976Y-92759580D01*
X71531825Y-93287429D01*
X71544205Y-93294189D01*
X71549204Y-93290447D01*
X71589490Y-93204053D01*
X71593236Y-93193761D01*
X71649625Y-92983312D01*
X71651528Y-92972519D01*
X71670517Y-92755475D01*
X71670517Y-92744525D01*
X71651528Y-92527481D01*
X71649625Y-92516688D01*
X71593236Y-92306239D01*
X71589490Y-92295947D01*
X71552293Y-92216177D01*
X71542975Y-92205594D01*
X71536994Y-92207402D01*
X71007208Y-92737188D01*
X70999594Y-92751132D01*
X69715170Y-92751132D01*
X69716406Y-92748868D01*
X69716275Y-92747035D01*
X69712024Y-92740420D01*
X69184175Y-92212571D01*
X69171795Y-92205811D01*
X69166796Y-92209553D01*
X69126510Y-92295947D01*
X69122764Y-92306239D01*
X69066375Y-92516688D01*
X69064472Y-92527481D01*
X69045483Y-92744525D01*
X69045483Y-92755475D01*
X66040000Y-92755475D01*
X66040000Y-91565025D01*
X69813594Y-91565025D01*
X69815402Y-91571006D01*
X70345188Y-92100792D01*
X70359132Y-92108406D01*
X70360965Y-92108275D01*
X70367580Y-92104024D01*
X70895429Y-91576175D01*
X70902189Y-91563795D01*
X70898447Y-91558796D01*
X70812053Y-91518510D01*
X70801761Y-91514764D01*
X70591312Y-91458375D01*
X70580519Y-91456472D01*
X70363475Y-91437483D01*
X70352525Y-91437483D01*
X70135481Y-91456472D01*
X70124688Y-91458375D01*
X69914239Y-91514764D01*
X69903947Y-91518510D01*
X69824177Y-91555707D01*
X69813594Y-91565025D01*
X66040000Y-91565025D01*
X66040000Y-90170000D01*
X72346502Y-90170000D01*
X72366457Y-90398087D01*
X72367881Y-90403400D01*
X72367881Y-90403402D01*
X72407163Y-90550001D01*
X72425716Y-90619243D01*
X72428039Y-90624224D01*
X72428039Y-90624225D01*
X72520151Y-90821762D01*
X72520154Y-90821767D01*
X72522477Y-90826749D01*
X72653802Y-91014300D01*
X72815700Y-91176198D01*
X72820208Y-91179355D01*
X72820211Y-91179357D01*
X72898389Y-91234098D01*
X73003251Y-91307523D01*
X73008233Y-91309846D01*
X73008238Y-91309849D01*
X73043049Y-91326081D01*
X73096334Y-91372998D01*
X73115795Y-91441275D01*
X73095253Y-91509235D01*
X73043049Y-91554471D01*
X73008489Y-91570586D01*
X72998993Y-91576069D01*
X72820533Y-91701028D01*
X72812125Y-91708084D01*
X72658084Y-91862125D01*
X72651028Y-91870533D01*
X72526069Y-92048993D01*
X72520586Y-92058489D01*
X72434275Y-92243583D01*
X72432158Y-92257523D01*
X72435946Y-92260000D01*
X74875265Y-92260000D01*
X74888796Y-92256027D01*
X74889439Y-92251550D01*
X74799414Y-92058489D01*
X74793931Y-92048993D01*
X74668972Y-91870533D01*
X74661916Y-91862125D01*
X74507875Y-91708084D01*
X74499467Y-91701028D01*
X74321007Y-91576069D01*
X74311511Y-91570586D01*
X74276951Y-91554471D01*
X74223666Y-91507554D01*
X74204205Y-91439277D01*
X74224747Y-91371317D01*
X74276951Y-91326081D01*
X74311762Y-91309849D01*
X74311767Y-91309846D01*
X74316749Y-91307523D01*
X74421611Y-91234098D01*
X74499789Y-91179357D01*
X74499792Y-91179355D01*
X74504300Y-91176198D01*
X74666198Y-91014300D01*
X74797523Y-90826749D01*
X74799846Y-90821767D01*
X74799849Y-90821762D01*
X74891961Y-90624225D01*
X74891961Y-90624224D01*
X74894284Y-90619243D01*
X74912838Y-90550001D01*
X74952119Y-90403402D01*
X74952119Y-90403400D01*
X74953543Y-90398087D01*
X74973498Y-90170000D01*
X74953543Y-89941913D01*
X74894284Y-89720757D01*
X74891961Y-89715775D01*
X74799849Y-89518238D01*
X74799846Y-89518233D01*
X74797523Y-89513251D01*
X74666198Y-89325700D01*
X74504300Y-89163802D01*
X74499792Y-89160645D01*
X74499789Y-89160643D01*
X74421611Y-89105902D01*
X74316749Y-89032477D01*
X74311767Y-89030154D01*
X74311762Y-89030151D01*
X74277543Y-89014195D01*
X74224258Y-88967278D01*
X74204797Y-88899001D01*
X74225339Y-88831041D01*
X74277543Y-88785805D01*
X74311762Y-88769849D01*
X74311767Y-88769846D01*
X74316749Y-88767523D01*
X74421611Y-88694098D01*
X74499789Y-88639357D01*
X74499792Y-88639355D01*
X74504300Y-88636198D01*
X74666198Y-88474300D01*
X74797523Y-88286749D01*
X74799846Y-88281767D01*
X74799849Y-88281762D01*
X74891961Y-88084225D01*
X74891961Y-88084224D01*
X74894284Y-88079243D01*
X74911633Y-88014498D01*
X74945741Y-87887205D01*
X92419811Y-87887205D01*
X92423553Y-87892204D01*
X92509947Y-87932490D01*
X92520239Y-87936236D01*
X92730688Y-87992625D01*
X92741481Y-87994528D01*
X92958525Y-88013517D01*
X92969475Y-88013517D01*
X93186519Y-87994528D01*
X93197312Y-87992625D01*
X93407761Y-87936236D01*
X93418053Y-87932490D01*
X93497823Y-87895293D01*
X93508406Y-87885975D01*
X93506598Y-87879994D01*
X92976812Y-87350208D01*
X92962868Y-87342594D01*
X92961035Y-87342725D01*
X92954420Y-87346976D01*
X92426571Y-87874825D01*
X92419811Y-87887205D01*
X74945741Y-87887205D01*
X74952119Y-87863402D01*
X74952119Y-87863400D01*
X74953543Y-87858087D01*
X74973498Y-87630000D01*
X74953543Y-87401913D01*
X74937684Y-87342725D01*
X74895707Y-87186067D01*
X74895706Y-87186065D01*
X74894284Y-87180757D01*
X74818015Y-87017196D01*
X74799849Y-86978238D01*
X74799846Y-86978233D01*
X74797523Y-86973251D01*
X74666198Y-86785700D01*
X74504300Y-86623802D01*
X74499792Y-86620645D01*
X74499789Y-86620643D01*
X74421611Y-86565902D01*
X74316749Y-86492477D01*
X74311767Y-86490154D01*
X74311762Y-86490151D01*
X74277543Y-86474195D01*
X74224258Y-86427278D01*
X74204797Y-86359001D01*
X74225339Y-86291041D01*
X74277543Y-86245805D01*
X74311762Y-86229849D01*
X74311767Y-86229846D01*
X74316749Y-86227523D01*
X74421611Y-86154098D01*
X74499789Y-86099357D01*
X74499792Y-86099355D01*
X74504300Y-86096198D01*
X74666198Y-85934300D01*
X74797523Y-85746749D01*
X74799846Y-85741767D01*
X74799849Y-85741762D01*
X74891961Y-85544225D01*
X74891961Y-85544224D01*
X74894284Y-85539243D01*
X74900915Y-85514498D01*
X74952119Y-85323402D01*
X74952119Y-85323400D01*
X74953543Y-85318087D01*
X74973498Y-85090000D01*
X87586502Y-85090000D01*
X87606457Y-85318087D01*
X87607881Y-85323400D01*
X87607881Y-85323402D01*
X87659086Y-85514498D01*
X87665716Y-85539243D01*
X87668039Y-85544224D01*
X87668039Y-85544225D01*
X87760151Y-85741762D01*
X87760154Y-85741767D01*
X87762477Y-85746749D01*
X87893802Y-85934300D01*
X88055700Y-86096198D01*
X88060208Y-86099355D01*
X88060211Y-86099357D01*
X88138389Y-86154098D01*
X88243251Y-86227523D01*
X88248233Y-86229846D01*
X88248238Y-86229849D01*
X88283049Y-86246081D01*
X88336334Y-86292998D01*
X88355795Y-86361275D01*
X88335253Y-86429235D01*
X88283049Y-86474471D01*
X88248489Y-86490586D01*
X88238993Y-86496069D01*
X88060533Y-86621028D01*
X88052125Y-86628084D01*
X87898084Y-86782125D01*
X87891028Y-86790533D01*
X87766069Y-86968993D01*
X87760586Y-86978489D01*
X87674275Y-87163583D01*
X87672158Y-87177523D01*
X87675946Y-87180000D01*
X90115265Y-87180000D01*
X90128796Y-87176027D01*
X90129439Y-87171550D01*
X90039414Y-86978489D01*
X90033931Y-86968993D01*
X89908972Y-86790533D01*
X89901916Y-86782125D01*
X89826266Y-86706475D01*
X91651483Y-86706475D01*
X91670472Y-86923519D01*
X91672375Y-86934312D01*
X91728764Y-87144761D01*
X91732510Y-87155053D01*
X91769707Y-87234823D01*
X91779025Y-87245406D01*
X91785006Y-87243598D01*
X92314792Y-86713812D01*
X92321170Y-86702132D01*
X93605594Y-86702132D01*
X93605725Y-86703965D01*
X93609976Y-86710580D01*
X94137825Y-87238429D01*
X94150205Y-87245189D01*
X94155204Y-87241447D01*
X94195490Y-87155053D01*
X94199236Y-87144761D01*
X94255625Y-86934312D01*
X94257528Y-86923519D01*
X94276517Y-86706475D01*
X94276517Y-86695525D01*
X94257528Y-86478481D01*
X94255625Y-86467688D01*
X94199236Y-86257239D01*
X94195490Y-86246947D01*
X94158293Y-86167177D01*
X94148975Y-86156594D01*
X94142994Y-86158402D01*
X93613208Y-86688188D01*
X93605594Y-86702132D01*
X92321170Y-86702132D01*
X92322406Y-86699868D01*
X92322275Y-86698035D01*
X92318024Y-86691420D01*
X91790175Y-86163571D01*
X91777795Y-86156811D01*
X91772796Y-86160553D01*
X91732510Y-86246947D01*
X91728764Y-86257239D01*
X91672375Y-86467688D01*
X91670472Y-86478481D01*
X91651483Y-86695525D01*
X91651483Y-86706475D01*
X89826266Y-86706475D01*
X89747875Y-86628084D01*
X89739467Y-86621028D01*
X89561007Y-86496069D01*
X89551511Y-86490586D01*
X89516951Y-86474471D01*
X89463666Y-86427554D01*
X89444205Y-86359277D01*
X89464747Y-86291317D01*
X89516951Y-86246081D01*
X89551762Y-86229849D01*
X89551767Y-86229846D01*
X89556749Y-86227523D01*
X89661611Y-86154098D01*
X89739789Y-86099357D01*
X89739792Y-86099355D01*
X89744300Y-86096198D01*
X89906198Y-85934300D01*
X90037523Y-85746749D01*
X90039846Y-85741767D01*
X90039849Y-85741762D01*
X90131961Y-85544225D01*
X90131961Y-85544224D01*
X90134284Y-85539243D01*
X90140915Y-85514498D01*
X90192119Y-85323402D01*
X90192119Y-85323400D01*
X90193543Y-85318087D01*
X90213498Y-85090000D01*
X90193543Y-84861913D01*
X90188402Y-84842725D01*
X90135707Y-84646067D01*
X90135706Y-84646065D01*
X90134284Y-84640757D01*
X90080306Y-84525000D01*
X90039849Y-84438238D01*
X90039846Y-84438233D01*
X90037523Y-84433251D01*
X89906198Y-84245700D01*
X89861498Y-84201000D01*
X91650502Y-84201000D01*
X91670457Y-84429087D01*
X91729716Y-84650243D01*
X91732039Y-84655224D01*
X91732039Y-84655225D01*
X91824151Y-84852762D01*
X91824154Y-84852767D01*
X91826477Y-84857749D01*
X91957802Y-85045300D01*
X92119700Y-85207198D01*
X92124208Y-85210355D01*
X92124211Y-85210357D01*
X92165542Y-85239297D01*
X92307251Y-85338523D01*
X92312233Y-85340846D01*
X92312238Y-85340849D01*
X92352813Y-85359769D01*
X92406098Y-85406686D01*
X92425559Y-85474964D01*
X92420737Y-85508503D01*
X92419079Y-85514321D01*
X92421402Y-85522006D01*
X92951188Y-86051792D01*
X92965132Y-86059406D01*
X92966965Y-86059275D01*
X92973580Y-86055024D01*
X93501429Y-85527175D01*
X93509044Y-85513231D01*
X93506745Y-85481094D01*
X93521836Y-85411720D01*
X93572038Y-85361518D01*
X93579174Y-85357910D01*
X93615761Y-85340849D01*
X93615762Y-85340849D01*
X93620749Y-85338523D01*
X93762458Y-85239297D01*
X93803789Y-85210357D01*
X93803792Y-85210355D01*
X93808300Y-85207198D01*
X93970198Y-85045300D01*
X94101523Y-84857749D01*
X94103846Y-84852767D01*
X94103849Y-84852762D01*
X94195961Y-84655225D01*
X94195961Y-84655224D01*
X94198284Y-84650243D01*
X94257543Y-84429087D01*
X94277498Y-84201000D01*
X94257543Y-83972913D01*
X94249996Y-83944748D01*
X94199707Y-83757067D01*
X94199706Y-83757065D01*
X94198284Y-83751757D01*
X94190276Y-83734583D01*
X94103849Y-83549238D01*
X94103846Y-83549233D01*
X94101523Y-83544251D01*
X93970198Y-83356700D01*
X93808300Y-83194802D01*
X93803792Y-83191645D01*
X93803789Y-83191643D01*
X93725611Y-83136902D01*
X93620749Y-83063477D01*
X93615767Y-83061154D01*
X93615762Y-83061151D01*
X93418225Y-82969039D01*
X93418224Y-82969039D01*
X93413243Y-82966716D01*
X93407935Y-82965294D01*
X93407933Y-82965293D01*
X93197402Y-82908881D01*
X93197400Y-82908881D01*
X93192087Y-82907457D01*
X92964000Y-82887502D01*
X92735913Y-82907457D01*
X92730600Y-82908881D01*
X92730598Y-82908881D01*
X92520067Y-82965293D01*
X92520065Y-82965294D01*
X92514757Y-82966716D01*
X92509776Y-82969039D01*
X92509775Y-82969039D01*
X92312238Y-83061151D01*
X92312233Y-83061154D01*
X92307251Y-83063477D01*
X92202389Y-83136902D01*
X92124211Y-83191643D01*
X92124208Y-83191645D01*
X92119700Y-83194802D01*
X91957802Y-83356700D01*
X91826477Y-83544251D01*
X91824154Y-83549233D01*
X91824151Y-83549238D01*
X91737724Y-83734583D01*
X91729716Y-83751757D01*
X91728294Y-83757065D01*
X91728293Y-83757067D01*
X91678004Y-83944748D01*
X91670457Y-83972913D01*
X91650502Y-84201000D01*
X89861498Y-84201000D01*
X89744300Y-84083802D01*
X89739792Y-84080645D01*
X89739789Y-84080643D01*
X89661611Y-84025902D01*
X89556749Y-83952477D01*
X89551767Y-83950154D01*
X89551762Y-83950151D01*
X89517543Y-83934195D01*
X89464258Y-83887278D01*
X89444797Y-83819001D01*
X89465339Y-83751041D01*
X89517543Y-83705805D01*
X89551762Y-83689849D01*
X89551767Y-83689846D01*
X89556749Y-83687523D01*
X89739719Y-83559406D01*
X89739789Y-83559357D01*
X89739792Y-83559355D01*
X89744300Y-83556198D01*
X89906198Y-83394300D01*
X89935211Y-83352866D01*
X90034366Y-83211257D01*
X90037523Y-83206749D01*
X90039846Y-83201767D01*
X90039849Y-83201762D01*
X90131961Y-83004225D01*
X90131961Y-83004224D01*
X90134284Y-82999243D01*
X90137904Y-82985735D01*
X90192119Y-82783402D01*
X90192119Y-82783400D01*
X90193543Y-82778087D01*
X90213498Y-82550000D01*
X90193543Y-82321913D01*
X90134284Y-82100757D01*
X90125484Y-82081885D01*
X90039849Y-81898238D01*
X90039846Y-81898233D01*
X90037523Y-81893251D01*
X89906198Y-81705700D01*
X89744300Y-81543802D01*
X89739792Y-81540645D01*
X89739789Y-81540643D01*
X89629043Y-81463098D01*
X89556749Y-81412477D01*
X89551767Y-81410154D01*
X89551762Y-81410151D01*
X89517543Y-81394195D01*
X89464258Y-81347278D01*
X89444797Y-81279001D01*
X89465339Y-81211041D01*
X89517543Y-81165805D01*
X89551762Y-81149849D01*
X89551767Y-81149846D01*
X89556749Y-81147523D01*
X89695369Y-81050460D01*
X89739789Y-81019357D01*
X89739792Y-81019355D01*
X89744300Y-81016198D01*
X89906198Y-80854300D01*
X89910689Y-80847887D01*
X90034366Y-80671257D01*
X90037523Y-80666749D01*
X90039846Y-80661767D01*
X90039849Y-80661762D01*
X90131961Y-80464225D01*
X90131961Y-80464224D01*
X90134284Y-80459243D01*
X90144150Y-80422425D01*
X90192119Y-80243402D01*
X90192119Y-80243400D01*
X90193543Y-80238087D01*
X90213498Y-80010000D01*
X90193543Y-79781913D01*
X90187593Y-79759707D01*
X90135707Y-79566067D01*
X90135706Y-79566065D01*
X90134284Y-79560757D01*
X90090257Y-79466340D01*
X90039849Y-79358238D01*
X90039846Y-79358233D01*
X90037523Y-79353251D01*
X89938874Y-79212366D01*
X89909357Y-79170211D01*
X89909355Y-79170208D01*
X89906198Y-79165700D01*
X89744300Y-79003802D01*
X89739792Y-79000645D01*
X89739789Y-79000643D01*
X89661611Y-78945902D01*
X89556749Y-78872477D01*
X89551767Y-78870154D01*
X89551762Y-78870151D01*
X89517543Y-78854195D01*
X89464258Y-78807278D01*
X89444797Y-78739001D01*
X89465339Y-78671041D01*
X89517543Y-78625805D01*
X89551762Y-78609849D01*
X89551767Y-78609846D01*
X89556749Y-78607523D01*
X89699555Y-78507529D01*
X89739789Y-78479357D01*
X89739792Y-78479355D01*
X89744300Y-78476198D01*
X89906198Y-78314300D01*
X89916061Y-78300215D01*
X90034366Y-78131257D01*
X90037523Y-78126749D01*
X90039846Y-78121767D01*
X90039849Y-78121762D01*
X90058221Y-78082363D01*
X96575050Y-78082363D01*
X96587309Y-78294977D01*
X96588745Y-78305197D01*
X96635565Y-78512946D01*
X96638645Y-78522775D01*
X96718770Y-78720103D01*
X96723416Y-78729300D01*
X96736133Y-78750053D01*
X96754671Y-78818587D01*
X96733214Y-78886263D01*
X96724874Y-78896388D01*
X96723739Y-78897239D01*
X96636385Y-79013795D01*
X96585255Y-79150184D01*
X96578500Y-79212366D01*
X96578500Y-81008634D01*
X96585255Y-81070816D01*
X96636385Y-81207205D01*
X96723739Y-81323761D01*
X96840295Y-81411115D01*
X96976684Y-81462245D01*
X97038866Y-81469000D01*
X98835134Y-81469000D01*
X98897316Y-81462245D01*
X99033705Y-81411115D01*
X99150261Y-81323761D01*
X99237615Y-81207205D01*
X99267821Y-81126632D01*
X99269515Y-81122112D01*
X99312156Y-81065347D01*
X99378718Y-81040647D01*
X99448067Y-81055854D01*
X99475285Y-81077816D01*
X99476170Y-81076912D01*
X99479864Y-81080529D01*
X99483250Y-81084438D01*
X99655126Y-81227132D01*
X99848000Y-81339838D01*
X100056692Y-81419530D01*
X100061760Y-81420561D01*
X100061763Y-81420562D01*
X100169017Y-81442383D01*
X100275597Y-81464067D01*
X100280772Y-81464257D01*
X100280774Y-81464257D01*
X100493673Y-81472064D01*
X100493677Y-81472064D01*
X100498837Y-81472253D01*
X100503957Y-81471597D01*
X100503959Y-81471597D01*
X100715288Y-81444525D01*
X100715289Y-81444525D01*
X100720416Y-81443868D01*
X100725366Y-81442383D01*
X100929429Y-81381161D01*
X100929434Y-81381159D01*
X100934384Y-81379674D01*
X101134994Y-81281396D01*
X101316860Y-81151673D01*
X101346525Y-81122112D01*
X101460400Y-81008634D01*
X101475096Y-80993989D01*
X101605453Y-80812577D01*
X101700715Y-80619829D01*
X101702136Y-80616953D01*
X101702137Y-80616951D01*
X101704430Y-80612311D01*
X101769370Y-80398569D01*
X101798529Y-80177090D01*
X101800156Y-80110500D01*
X101781852Y-79887861D01*
X101727431Y-79671202D01*
X101638354Y-79466340D01*
X101568420Y-79358238D01*
X101519822Y-79283117D01*
X101519820Y-79283114D01*
X101517014Y-79278777D01*
X101513540Y-79274959D01*
X101513533Y-79274950D01*
X101442212Y-79196569D01*
X101411160Y-79132723D01*
X101419556Y-79062225D01*
X101446467Y-79022519D01*
X101471430Y-78997644D01*
X101471440Y-78997632D01*
X101475096Y-78993989D01*
X101540418Y-78903084D01*
X101602435Y-78816777D01*
X101605453Y-78812577D01*
X101628158Y-78766638D01*
X101702136Y-78616953D01*
X101702137Y-78616951D01*
X101704430Y-78612311D01*
X101769370Y-78398569D01*
X101798529Y-78177090D01*
X101798611Y-78173740D01*
X101800074Y-78113865D01*
X101800074Y-78113861D01*
X101800156Y-78110500D01*
X101781852Y-77887861D01*
X101727431Y-77671202D01*
X101638354Y-77466340D01*
X101519012Y-77281866D01*
X103967180Y-77281866D01*
X103977062Y-77294355D01*
X104072144Y-77357887D01*
X104079281Y-77362008D01*
X104337349Y-77489272D01*
X104344953Y-77492422D01*
X104617420Y-77584912D01*
X104625383Y-77587046D01*
X104907600Y-77643183D01*
X104915751Y-77644256D01*
X105202881Y-77663075D01*
X105211119Y-77663075D01*
X105498249Y-77644256D01*
X105506400Y-77643183D01*
X105788617Y-77587046D01*
X105796580Y-77584912D01*
X106069047Y-77492422D01*
X106076651Y-77489272D01*
X106334719Y-77362008D01*
X106341856Y-77357887D01*
X106438373Y-77293397D01*
X106446661Y-77283479D01*
X106439404Y-77269300D01*
X105219812Y-76049708D01*
X105205868Y-76042094D01*
X105204035Y-76042225D01*
X105197420Y-76046476D01*
X103973376Y-77270520D01*
X103967180Y-77281866D01*
X101519012Y-77281866D01*
X101517014Y-77278777D01*
X101366670Y-77113551D01*
X101362619Y-77110352D01*
X101362615Y-77110348D01*
X101195414Y-76978300D01*
X101195410Y-76978298D01*
X101191359Y-76975098D01*
X100995789Y-76867138D01*
X100990920Y-76865414D01*
X100990916Y-76865412D01*
X100790087Y-76794295D01*
X100790083Y-76794294D01*
X100785212Y-76792569D01*
X100780119Y-76791662D01*
X100780116Y-76791661D01*
X100570373Y-76754300D01*
X100570367Y-76754299D01*
X100565284Y-76753394D01*
X100491452Y-76752492D01*
X100347081Y-76750728D01*
X100347079Y-76750728D01*
X100341911Y-76750665D01*
X100121091Y-76784455D01*
X99908756Y-76853857D01*
X99710607Y-76957007D01*
X99706474Y-76960110D01*
X99706471Y-76960112D01*
X99536100Y-77088030D01*
X99531965Y-77091135D01*
X99528393Y-77094873D01*
X99418769Y-77209588D01*
X99377629Y-77252638D01*
X99374715Y-77256910D01*
X99374714Y-77256911D01*
X99305833Y-77357887D01*
X99251743Y-77437180D01*
X99249565Y-77441873D01*
X99249560Y-77441881D01*
X99241554Y-77459129D01*
X99194730Y-77512496D01*
X99160550Y-77527603D01*
X99154687Y-77529209D01*
X98026095Y-78657801D01*
X97963783Y-78691827D01*
X97892968Y-78686762D01*
X97847905Y-78657801D01*
X96725475Y-77535371D01*
X96713095Y-77528611D01*
X96708128Y-77532330D01*
X96660338Y-77635283D01*
X96656775Y-77644970D01*
X96599864Y-77850181D01*
X96597933Y-77860300D01*
X96575302Y-78072074D01*
X96575050Y-78082363D01*
X90058221Y-78082363D01*
X90131961Y-77924225D01*
X90131961Y-77924224D01*
X90134284Y-77919243D01*
X90144150Y-77882425D01*
X90192119Y-77703402D01*
X90192119Y-77703400D01*
X90193543Y-77698087D01*
X90213498Y-77470000D01*
X90197038Y-77281866D01*
X91927180Y-77281866D01*
X91937062Y-77294355D01*
X92032144Y-77357887D01*
X92039281Y-77362008D01*
X92297349Y-77489272D01*
X92304953Y-77492422D01*
X92577420Y-77584912D01*
X92585383Y-77587046D01*
X92867600Y-77643183D01*
X92875751Y-77644256D01*
X93162881Y-77663075D01*
X93171119Y-77663075D01*
X93458249Y-77644256D01*
X93466400Y-77643183D01*
X93748617Y-77587046D01*
X93756580Y-77584912D01*
X94029047Y-77492422D01*
X94036651Y-77489272D01*
X94294719Y-77362008D01*
X94301856Y-77357887D01*
X94398373Y-77293397D01*
X94406661Y-77283479D01*
X94399404Y-77269300D01*
X94017236Y-76887132D01*
X97354522Y-76887132D01*
X97356948Y-76894052D01*
X97924188Y-77461292D01*
X97938132Y-77468906D01*
X97939965Y-77468775D01*
X97946580Y-77464524D01*
X98513650Y-76897454D01*
X98520410Y-76885074D01*
X98515596Y-76878644D01*
X98500109Y-76870095D01*
X98490710Y-76865870D01*
X98289959Y-76794780D01*
X98279989Y-76792146D01*
X98070327Y-76754801D01*
X98060073Y-76753831D01*
X97847116Y-76751228D01*
X97836832Y-76751948D01*
X97626321Y-76784161D01*
X97616293Y-76786550D01*
X97413868Y-76852711D01*
X97404361Y-76856708D01*
X97364690Y-76877360D01*
X97354522Y-76887132D01*
X94017236Y-76887132D01*
X93179812Y-76049708D01*
X93165868Y-76042094D01*
X93164035Y-76042225D01*
X93157420Y-76046476D01*
X91933376Y-77270520D01*
X91927180Y-77281866D01*
X90197038Y-77281866D01*
X90193543Y-77241913D01*
X90187593Y-77219707D01*
X90135707Y-77026067D01*
X90135706Y-77026065D01*
X90134284Y-77020757D01*
X90103443Y-76954618D01*
X90039849Y-76818238D01*
X90039846Y-76818233D01*
X90037523Y-76813251D01*
X89964098Y-76708389D01*
X89909357Y-76630211D01*
X89909355Y-76630208D01*
X89906198Y-76625700D01*
X89744300Y-76463802D01*
X89739792Y-76460645D01*
X89739789Y-76460643D01*
X89661611Y-76405902D01*
X89556749Y-76332477D01*
X89551767Y-76330154D01*
X89551762Y-76330151D01*
X89517543Y-76314195D01*
X89464258Y-76267278D01*
X89444797Y-76199001D01*
X89465339Y-76131041D01*
X89517543Y-76085805D01*
X89551762Y-76069849D01*
X89551767Y-76069846D01*
X89556749Y-76067523D01*
X89699555Y-75967529D01*
X89739789Y-75939357D01*
X89739792Y-75939355D01*
X89744300Y-75936198D01*
X89906198Y-75774300D01*
X89930923Y-75738990D01*
X90034366Y-75591257D01*
X90037523Y-75586749D01*
X90039846Y-75581767D01*
X90039849Y-75581762D01*
X90122451Y-75404619D01*
X90904425Y-75404619D01*
X90923244Y-75691749D01*
X90924317Y-75699900D01*
X90980454Y-75982117D01*
X90982588Y-75990080D01*
X91075078Y-76262547D01*
X91078228Y-76270151D01*
X91205494Y-76528221D01*
X91209610Y-76535350D01*
X91274103Y-76631872D01*
X91284021Y-76640161D01*
X91298199Y-76632905D01*
X92517792Y-75413312D01*
X92524170Y-75401632D01*
X93808594Y-75401632D01*
X93808725Y-75403465D01*
X93812976Y-75410080D01*
X95037020Y-76634124D01*
X95048367Y-76640320D01*
X95060854Y-76630440D01*
X95124390Y-76535350D01*
X95128506Y-76528221D01*
X95255772Y-76270151D01*
X95258922Y-76262547D01*
X95351412Y-75990080D01*
X95353546Y-75982117D01*
X95409683Y-75699900D01*
X95410756Y-75691749D01*
X95429575Y-75404619D01*
X102944425Y-75404619D01*
X102963244Y-75691749D01*
X102964317Y-75699900D01*
X103020454Y-75982117D01*
X103022588Y-75990080D01*
X103115078Y-76262547D01*
X103118228Y-76270151D01*
X103245494Y-76528221D01*
X103249610Y-76535350D01*
X103314103Y-76631872D01*
X103324021Y-76640161D01*
X103338199Y-76632905D01*
X104557792Y-75413312D01*
X104564170Y-75401632D01*
X105848594Y-75401632D01*
X105848725Y-75403465D01*
X105852976Y-75410080D01*
X107077020Y-76634124D01*
X107088367Y-76640320D01*
X107100854Y-76630440D01*
X107164390Y-76535350D01*
X107168506Y-76528221D01*
X107295772Y-76270151D01*
X107298922Y-76262547D01*
X107391412Y-75990080D01*
X107393546Y-75982117D01*
X107449683Y-75699900D01*
X107450756Y-75691749D01*
X107469575Y-75404619D01*
X107469575Y-75396381D01*
X107450756Y-75109251D01*
X107449683Y-75101100D01*
X107393546Y-74818883D01*
X107391412Y-74810920D01*
X107298922Y-74538453D01*
X107295772Y-74530849D01*
X107168506Y-74272779D01*
X107164390Y-74265650D01*
X107099897Y-74169128D01*
X107089979Y-74160839D01*
X107075801Y-74168095D01*
X105856208Y-75387688D01*
X105848594Y-75401632D01*
X104564170Y-75401632D01*
X104565406Y-75399368D01*
X104565275Y-75397535D01*
X104561024Y-75390920D01*
X103336980Y-74166876D01*
X103325633Y-74160680D01*
X103313146Y-74170560D01*
X103249610Y-74265650D01*
X103245494Y-74272779D01*
X103118228Y-74530849D01*
X103115078Y-74538453D01*
X103022588Y-74810920D01*
X103020454Y-74818883D01*
X102964317Y-75101100D01*
X102963244Y-75109251D01*
X102944425Y-75396381D01*
X102944425Y-75404619D01*
X95429575Y-75404619D01*
X95429575Y-75396381D01*
X95410756Y-75109251D01*
X95409683Y-75101100D01*
X95353546Y-74818883D01*
X95351412Y-74810920D01*
X95258922Y-74538453D01*
X95255772Y-74530849D01*
X95128506Y-74272779D01*
X95124390Y-74265650D01*
X95059897Y-74169128D01*
X95049979Y-74160839D01*
X95035801Y-74168095D01*
X93816208Y-75387688D01*
X93808594Y-75401632D01*
X92524170Y-75401632D01*
X92525406Y-75399368D01*
X92525275Y-75397535D01*
X92521024Y-75390920D01*
X91296980Y-74166876D01*
X91285633Y-74160680D01*
X91273146Y-74170560D01*
X91209610Y-74265650D01*
X91205494Y-74272779D01*
X91078228Y-74530849D01*
X91075078Y-74538453D01*
X90982588Y-74810920D01*
X90980454Y-74818883D01*
X90924317Y-75101100D01*
X90923244Y-75109251D01*
X90904425Y-75396381D01*
X90904425Y-75404619D01*
X90122451Y-75404619D01*
X90131961Y-75384225D01*
X90131961Y-75384224D01*
X90134284Y-75379243D01*
X90144150Y-75342425D01*
X90192119Y-75163402D01*
X90192119Y-75163400D01*
X90193543Y-75158087D01*
X90213498Y-74930000D01*
X90193543Y-74701913D01*
X90187593Y-74679707D01*
X90135707Y-74486067D01*
X90135706Y-74486065D01*
X90134284Y-74480757D01*
X90122092Y-74454610D01*
X90039849Y-74278238D01*
X90039846Y-74278233D01*
X90037523Y-74273251D01*
X89958700Y-74160680D01*
X89909357Y-74090211D01*
X89909355Y-74090208D01*
X89906198Y-74085700D01*
X89744300Y-73923802D01*
X89739792Y-73920645D01*
X89739789Y-73920643D01*
X89661611Y-73865902D01*
X89556749Y-73792477D01*
X89551767Y-73790154D01*
X89551762Y-73790151D01*
X89517543Y-73774195D01*
X89464258Y-73727278D01*
X89444797Y-73659001D01*
X89465339Y-73591041D01*
X89517543Y-73545805D01*
X89551762Y-73529849D01*
X89551767Y-73529846D01*
X89556749Y-73527523D01*
X89571033Y-73517521D01*
X91927339Y-73517521D01*
X91934595Y-73531699D01*
X93154188Y-74751292D01*
X93168132Y-74758906D01*
X93169965Y-74758775D01*
X93176580Y-74754524D01*
X94400624Y-73530480D01*
X94406820Y-73519134D01*
X94405544Y-73517521D01*
X103967339Y-73517521D01*
X103974595Y-73531699D01*
X105194188Y-74751292D01*
X105208132Y-74758906D01*
X105209965Y-74758775D01*
X105216580Y-74754524D01*
X106440624Y-73530480D01*
X106446820Y-73519134D01*
X106436938Y-73506645D01*
X106341856Y-73443113D01*
X106334719Y-73438992D01*
X106076651Y-73311728D01*
X106069047Y-73308578D01*
X105796580Y-73216088D01*
X105788617Y-73213954D01*
X105506400Y-73157817D01*
X105498249Y-73156744D01*
X105211119Y-73137925D01*
X105202881Y-73137925D01*
X104915751Y-73156744D01*
X104907600Y-73157817D01*
X104625383Y-73213954D01*
X104617420Y-73216088D01*
X104344953Y-73308578D01*
X104337349Y-73311728D01*
X104079279Y-73438994D01*
X104072150Y-73443110D01*
X103975628Y-73507603D01*
X103967339Y-73517521D01*
X94405544Y-73517521D01*
X94396938Y-73506645D01*
X94301856Y-73443113D01*
X94294719Y-73438992D01*
X94036651Y-73311728D01*
X94029047Y-73308578D01*
X93756580Y-73216088D01*
X93748617Y-73213954D01*
X93466400Y-73157817D01*
X93458249Y-73156744D01*
X93171119Y-73137925D01*
X93162881Y-73137925D01*
X92875751Y-73156744D01*
X92867600Y-73157817D01*
X92585383Y-73213954D01*
X92577420Y-73216088D01*
X92304953Y-73308578D01*
X92297349Y-73311728D01*
X92039279Y-73438994D01*
X92032150Y-73443110D01*
X91935628Y-73507603D01*
X91927339Y-73517521D01*
X89571033Y-73517521D01*
X89699555Y-73427529D01*
X89739789Y-73399357D01*
X89739792Y-73399355D01*
X89744300Y-73396198D01*
X89906198Y-73234300D01*
X89918951Y-73216088D01*
X90034366Y-73051257D01*
X90037523Y-73046749D01*
X90039846Y-73041767D01*
X90039849Y-73041762D01*
X90131961Y-72844225D01*
X90131961Y-72844224D01*
X90134284Y-72839243D01*
X90144150Y-72802425D01*
X90192119Y-72623402D01*
X90192119Y-72623400D01*
X90193543Y-72618087D01*
X90213498Y-72390000D01*
X90193543Y-72161913D01*
X90187593Y-72139707D01*
X90135707Y-71946067D01*
X90135706Y-71946065D01*
X90134284Y-71940757D01*
X90122092Y-71914610D01*
X90039849Y-71738238D01*
X90039846Y-71738233D01*
X90037523Y-71733251D01*
X89964098Y-71628389D01*
X89909357Y-71550211D01*
X89909355Y-71550208D01*
X89906198Y-71545700D01*
X89744300Y-71383802D01*
X89739792Y-71380645D01*
X89739789Y-71380643D01*
X89661611Y-71325902D01*
X89556749Y-71252477D01*
X89551767Y-71250154D01*
X89551762Y-71250151D01*
X89517543Y-71234195D01*
X89464258Y-71187278D01*
X89444797Y-71119001D01*
X89465339Y-71051041D01*
X89517543Y-71005805D01*
X89551762Y-70989849D01*
X89551767Y-70989846D01*
X89556749Y-70987523D01*
X89661611Y-70914098D01*
X89739789Y-70859357D01*
X89739792Y-70859355D01*
X89744300Y-70856198D01*
X89906198Y-70694300D01*
X90037523Y-70506749D01*
X90039846Y-70501767D01*
X90039849Y-70501762D01*
X90131961Y-70304225D01*
X90131961Y-70304224D01*
X90134284Y-70299243D01*
X90193543Y-70078087D01*
X90213498Y-69850000D01*
X90193543Y-69621913D01*
X90134284Y-69400757D01*
X90131961Y-69395775D01*
X90039849Y-69198238D01*
X90039846Y-69198233D01*
X90037523Y-69193251D01*
X89906198Y-69005700D01*
X89744300Y-68843802D01*
X89739792Y-68840645D01*
X89739789Y-68840643D01*
X89661611Y-68785902D01*
X89556749Y-68712477D01*
X89551767Y-68710154D01*
X89551762Y-68710151D01*
X89517543Y-68694195D01*
X89464258Y-68647278D01*
X89444797Y-68579001D01*
X89465339Y-68511041D01*
X89517543Y-68465805D01*
X89551762Y-68449849D01*
X89551767Y-68449846D01*
X89556749Y-68447523D01*
X89661611Y-68374098D01*
X89739789Y-68319357D01*
X89739792Y-68319355D01*
X89744300Y-68316198D01*
X89906198Y-68154300D01*
X90037523Y-67966749D01*
X90039846Y-67961767D01*
X90039849Y-67961762D01*
X90131961Y-67764225D01*
X90131961Y-67764224D01*
X90134284Y-67759243D01*
X90193543Y-67538087D01*
X90213498Y-67310000D01*
X90193543Y-67081913D01*
X90134284Y-66860757D01*
X90131961Y-66855775D01*
X90039849Y-66658238D01*
X90039846Y-66658233D01*
X90037523Y-66653251D01*
X89906198Y-66465700D01*
X89744300Y-66303802D01*
X89739792Y-66300645D01*
X89739789Y-66300643D01*
X89598779Y-66201907D01*
X89556749Y-66172477D01*
X89551767Y-66170154D01*
X89551762Y-66170151D01*
X89354225Y-66078039D01*
X89354224Y-66078039D01*
X89349243Y-66075716D01*
X89343935Y-66074294D01*
X89343933Y-66074293D01*
X89133402Y-66017881D01*
X89133400Y-66017881D01*
X89128087Y-66016457D01*
X88900000Y-65996502D01*
X88671913Y-66016457D01*
X88666600Y-66017881D01*
X88666598Y-66017881D01*
X88456067Y-66074293D01*
X88456065Y-66074294D01*
X88450757Y-66075716D01*
X88445776Y-66078039D01*
X88445775Y-66078039D01*
X88248238Y-66170151D01*
X88248233Y-66170154D01*
X88243251Y-66172477D01*
X88201221Y-66201907D01*
X88060211Y-66300643D01*
X88060208Y-66300645D01*
X88055700Y-66303802D01*
X87893802Y-66465700D01*
X87762477Y-66653251D01*
X87760154Y-66658233D01*
X87760151Y-66658238D01*
X87668039Y-66855775D01*
X87665716Y-66860757D01*
X87606457Y-67081913D01*
X87586502Y-67310000D01*
X87606457Y-67538087D01*
X87665716Y-67759243D01*
X87668039Y-67764224D01*
X87668039Y-67764225D01*
X87760151Y-67961762D01*
X87760154Y-67961767D01*
X87762477Y-67966749D01*
X87893802Y-68154300D01*
X88055700Y-68316198D01*
X88060208Y-68319355D01*
X88060211Y-68319357D01*
X88138389Y-68374098D01*
X88243251Y-68447523D01*
X88248233Y-68449846D01*
X88248238Y-68449849D01*
X88282457Y-68465805D01*
X88335742Y-68512722D01*
X88355203Y-68580999D01*
X88334661Y-68648959D01*
X88282457Y-68694195D01*
X88248238Y-68710151D01*
X88248233Y-68710154D01*
X88243251Y-68712477D01*
X88138389Y-68785902D01*
X88060211Y-68840643D01*
X88060208Y-68840645D01*
X88055700Y-68843802D01*
X87893802Y-69005700D01*
X87762477Y-69193251D01*
X87760154Y-69198233D01*
X87760151Y-69198238D01*
X87668039Y-69395775D01*
X87665716Y-69400757D01*
X87606457Y-69621913D01*
X87586502Y-69850000D01*
X87606457Y-70078087D01*
X87665716Y-70299243D01*
X87668039Y-70304224D01*
X87668039Y-70304225D01*
X87760151Y-70501762D01*
X87760154Y-70501767D01*
X87762477Y-70506749D01*
X87893802Y-70694300D01*
X88055700Y-70856198D01*
X88060208Y-70859355D01*
X88060211Y-70859357D01*
X88138389Y-70914098D01*
X88243251Y-70987523D01*
X88248233Y-70989846D01*
X88248238Y-70989849D01*
X88282457Y-71005805D01*
X88335742Y-71052722D01*
X88355203Y-71120999D01*
X88334661Y-71188959D01*
X88282457Y-71234195D01*
X88248238Y-71250151D01*
X88248233Y-71250154D01*
X88243251Y-71252477D01*
X88138389Y-71325902D01*
X88060211Y-71380643D01*
X88060208Y-71380645D01*
X88055700Y-71383802D01*
X87893802Y-71545700D01*
X87890645Y-71550208D01*
X87890643Y-71550211D01*
X87835902Y-71628389D01*
X87762477Y-71733251D01*
X87760154Y-71738233D01*
X87760151Y-71738238D01*
X87677908Y-71914610D01*
X87665716Y-71940757D01*
X87664294Y-71946065D01*
X87664293Y-71946067D01*
X87612407Y-72139707D01*
X87606457Y-72161913D01*
X87586502Y-72390000D01*
X87606457Y-72618087D01*
X87607881Y-72623400D01*
X87607881Y-72623402D01*
X87655851Y-72802425D01*
X87665716Y-72839243D01*
X87668039Y-72844224D01*
X87668039Y-72844225D01*
X87760151Y-73041762D01*
X87760154Y-73041767D01*
X87762477Y-73046749D01*
X87765634Y-73051257D01*
X87881050Y-73216088D01*
X87893802Y-73234300D01*
X88055700Y-73396198D01*
X88060208Y-73399355D01*
X88060211Y-73399357D01*
X88100445Y-73427529D01*
X88243251Y-73527523D01*
X88248233Y-73529846D01*
X88248238Y-73529849D01*
X88282457Y-73545805D01*
X88335742Y-73592722D01*
X88355203Y-73660999D01*
X88334661Y-73728959D01*
X88282457Y-73774195D01*
X88248238Y-73790151D01*
X88248233Y-73790154D01*
X88243251Y-73792477D01*
X88138389Y-73865902D01*
X88060211Y-73920643D01*
X88060208Y-73920645D01*
X88055700Y-73923802D01*
X87893802Y-74085700D01*
X87890645Y-74090208D01*
X87890643Y-74090211D01*
X87841300Y-74160680D01*
X87762477Y-74273251D01*
X87760154Y-74278233D01*
X87760151Y-74278238D01*
X87677908Y-74454610D01*
X87665716Y-74480757D01*
X87664294Y-74486065D01*
X87664293Y-74486067D01*
X87612407Y-74679707D01*
X87606457Y-74701913D01*
X87586502Y-74930000D01*
X87606457Y-75158087D01*
X87607881Y-75163400D01*
X87607881Y-75163402D01*
X87655851Y-75342425D01*
X87665716Y-75379243D01*
X87668039Y-75384224D01*
X87668039Y-75384225D01*
X87760151Y-75581762D01*
X87760154Y-75581767D01*
X87762477Y-75586749D01*
X87765634Y-75591257D01*
X87869078Y-75738990D01*
X87893802Y-75774300D01*
X88055700Y-75936198D01*
X88060208Y-75939355D01*
X88060211Y-75939357D01*
X88100445Y-75967529D01*
X88243251Y-76067523D01*
X88248233Y-76069846D01*
X88248238Y-76069849D01*
X88282457Y-76085805D01*
X88335742Y-76132722D01*
X88355203Y-76200999D01*
X88334661Y-76268959D01*
X88282457Y-76314195D01*
X88248238Y-76330151D01*
X88248233Y-76330154D01*
X88243251Y-76332477D01*
X88138389Y-76405902D01*
X88060211Y-76460643D01*
X88060208Y-76460645D01*
X88055700Y-76463802D01*
X87893802Y-76625700D01*
X87890645Y-76630208D01*
X87890643Y-76630211D01*
X87835902Y-76708389D01*
X87762477Y-76813251D01*
X87760154Y-76818233D01*
X87760151Y-76818238D01*
X87696557Y-76954618D01*
X87665716Y-77020757D01*
X87664294Y-77026065D01*
X87664293Y-77026067D01*
X87612407Y-77219707D01*
X87606457Y-77241913D01*
X87586502Y-77470000D01*
X87606457Y-77698087D01*
X87607881Y-77703400D01*
X87607881Y-77703402D01*
X87655851Y-77882425D01*
X87665716Y-77919243D01*
X87668039Y-77924224D01*
X87668039Y-77924225D01*
X87760151Y-78121762D01*
X87760154Y-78121767D01*
X87762477Y-78126749D01*
X87765634Y-78131257D01*
X87883940Y-78300215D01*
X87893802Y-78314300D01*
X88055700Y-78476198D01*
X88060208Y-78479355D01*
X88060211Y-78479357D01*
X88100445Y-78507529D01*
X88243251Y-78607523D01*
X88248233Y-78609846D01*
X88248238Y-78609849D01*
X88282457Y-78625805D01*
X88335742Y-78672722D01*
X88355203Y-78740999D01*
X88334661Y-78808959D01*
X88282457Y-78854195D01*
X88248238Y-78870151D01*
X88248233Y-78870154D01*
X88243251Y-78872477D01*
X88138389Y-78945902D01*
X88060211Y-79000643D01*
X88060208Y-79000645D01*
X88055700Y-79003802D01*
X87893802Y-79165700D01*
X87890645Y-79170208D01*
X87890643Y-79170211D01*
X87861126Y-79212366D01*
X87762477Y-79353251D01*
X87760154Y-79358233D01*
X87760151Y-79358238D01*
X87709743Y-79466340D01*
X87665716Y-79560757D01*
X87664294Y-79566065D01*
X87664293Y-79566067D01*
X87612407Y-79759707D01*
X87606457Y-79781913D01*
X87586502Y-80010000D01*
X87606457Y-80238087D01*
X87607881Y-80243400D01*
X87607881Y-80243402D01*
X87655851Y-80422425D01*
X87665716Y-80459243D01*
X87668039Y-80464224D01*
X87668039Y-80464225D01*
X87760151Y-80661762D01*
X87760154Y-80661767D01*
X87762477Y-80666749D01*
X87765634Y-80671257D01*
X87889312Y-80847887D01*
X87893802Y-80854300D01*
X88055700Y-81016198D01*
X88060208Y-81019355D01*
X88060211Y-81019357D01*
X88104631Y-81050460D01*
X88243251Y-81147523D01*
X88248233Y-81149846D01*
X88248238Y-81149849D01*
X88282457Y-81165805D01*
X88335742Y-81212722D01*
X88355203Y-81280999D01*
X88334661Y-81348959D01*
X88282457Y-81394195D01*
X88248238Y-81410151D01*
X88248233Y-81410154D01*
X88243251Y-81412477D01*
X88170957Y-81463098D01*
X88060211Y-81540643D01*
X88060208Y-81540645D01*
X88055700Y-81543802D01*
X87893802Y-81705700D01*
X87762477Y-81893251D01*
X87760154Y-81898233D01*
X87760151Y-81898238D01*
X87674516Y-82081885D01*
X87665716Y-82100757D01*
X87606457Y-82321913D01*
X87586502Y-82550000D01*
X87606457Y-82778087D01*
X87607881Y-82783400D01*
X87607881Y-82783402D01*
X87662097Y-82985735D01*
X87665716Y-82999243D01*
X87668039Y-83004224D01*
X87668039Y-83004225D01*
X87760151Y-83201762D01*
X87760154Y-83201767D01*
X87762477Y-83206749D01*
X87765634Y-83211257D01*
X87864790Y-83352866D01*
X87893802Y-83394300D01*
X88055700Y-83556198D01*
X88060208Y-83559355D01*
X88060211Y-83559357D01*
X88060281Y-83559406D01*
X88243251Y-83687523D01*
X88248233Y-83689846D01*
X88248238Y-83689849D01*
X88282457Y-83705805D01*
X88335742Y-83752722D01*
X88355203Y-83820999D01*
X88334661Y-83888959D01*
X88282457Y-83934195D01*
X88248238Y-83950151D01*
X88248233Y-83950154D01*
X88243251Y-83952477D01*
X88138389Y-84025902D01*
X88060211Y-84080643D01*
X88060208Y-84080645D01*
X88055700Y-84083802D01*
X87893802Y-84245700D01*
X87762477Y-84433251D01*
X87760154Y-84438233D01*
X87760151Y-84438238D01*
X87719694Y-84525000D01*
X87665716Y-84640757D01*
X87664294Y-84646065D01*
X87664293Y-84646067D01*
X87611598Y-84842725D01*
X87606457Y-84861913D01*
X87586502Y-85090000D01*
X74973498Y-85090000D01*
X74953543Y-84861913D01*
X74948402Y-84842725D01*
X74895707Y-84646067D01*
X74895706Y-84646065D01*
X74894284Y-84640757D01*
X74840306Y-84525000D01*
X74799849Y-84438238D01*
X74799846Y-84438233D01*
X74797523Y-84433251D01*
X74666198Y-84245700D01*
X74504300Y-84083802D01*
X74499792Y-84080645D01*
X74499789Y-84080643D01*
X74421611Y-84025902D01*
X74316749Y-83952477D01*
X74311767Y-83950154D01*
X74311762Y-83950151D01*
X74277543Y-83934195D01*
X74224258Y-83887278D01*
X74204797Y-83819001D01*
X74225339Y-83751041D01*
X74277543Y-83705805D01*
X74311762Y-83689849D01*
X74311767Y-83689846D01*
X74316749Y-83687523D01*
X74499719Y-83559406D01*
X74499789Y-83559357D01*
X74499792Y-83559355D01*
X74504300Y-83556198D01*
X74666198Y-83394300D01*
X74695211Y-83352866D01*
X74794366Y-83211257D01*
X74797523Y-83206749D01*
X74799846Y-83201767D01*
X74799849Y-83201762D01*
X74891961Y-83004225D01*
X74891961Y-83004224D01*
X74894284Y-82999243D01*
X74897904Y-82985735D01*
X74952119Y-82783402D01*
X74952119Y-82783400D01*
X74953543Y-82778087D01*
X74973498Y-82550000D01*
X74953543Y-82321913D01*
X74894284Y-82100757D01*
X74885484Y-82081885D01*
X74799849Y-81898238D01*
X74799846Y-81898233D01*
X74797523Y-81893251D01*
X74666198Y-81705700D01*
X74504300Y-81543802D01*
X74499792Y-81540645D01*
X74499789Y-81540643D01*
X74389043Y-81463098D01*
X74316749Y-81412477D01*
X74311767Y-81410154D01*
X74311762Y-81410151D01*
X74277543Y-81394195D01*
X74224258Y-81347278D01*
X74204797Y-81279001D01*
X74225339Y-81211041D01*
X74277543Y-81165805D01*
X74311762Y-81149849D01*
X74311767Y-81149846D01*
X74316749Y-81147523D01*
X74455369Y-81050460D01*
X74499789Y-81019357D01*
X74499792Y-81019355D01*
X74504300Y-81016198D01*
X74666198Y-80854300D01*
X74670689Y-80847887D01*
X74794366Y-80671257D01*
X74797523Y-80666749D01*
X74799846Y-80661767D01*
X74799849Y-80661762D01*
X74891961Y-80464225D01*
X74891961Y-80464224D01*
X74894284Y-80459243D01*
X74904150Y-80422425D01*
X74952119Y-80243402D01*
X74952119Y-80243400D01*
X74953543Y-80238087D01*
X74973498Y-80010000D01*
X74953543Y-79781913D01*
X74947593Y-79759707D01*
X74895707Y-79566067D01*
X74895706Y-79566065D01*
X74894284Y-79560757D01*
X74850257Y-79466340D01*
X74799849Y-79358238D01*
X74799846Y-79358233D01*
X74797523Y-79353251D01*
X74698874Y-79212366D01*
X74669357Y-79170211D01*
X74669355Y-79170208D01*
X74666198Y-79165700D01*
X74504300Y-79003802D01*
X74499792Y-79000645D01*
X74499789Y-79000643D01*
X74421611Y-78945902D01*
X74316749Y-78872477D01*
X74311767Y-78870154D01*
X74311762Y-78870151D01*
X74277543Y-78854195D01*
X74224258Y-78807278D01*
X74204797Y-78739001D01*
X74225339Y-78671041D01*
X74277543Y-78625805D01*
X74311762Y-78609849D01*
X74311767Y-78609846D01*
X74316749Y-78607523D01*
X74459555Y-78507529D01*
X74499789Y-78479357D01*
X74499792Y-78479355D01*
X74504300Y-78476198D01*
X74666198Y-78314300D01*
X74676061Y-78300215D01*
X74794366Y-78131257D01*
X74797523Y-78126749D01*
X74799846Y-78121767D01*
X74799849Y-78121762D01*
X74891961Y-77924225D01*
X74891961Y-77924224D01*
X74894284Y-77919243D01*
X74904150Y-77882425D01*
X74952119Y-77703402D01*
X74952119Y-77703400D01*
X74953543Y-77698087D01*
X74973498Y-77470000D01*
X74953543Y-77241913D01*
X74947593Y-77219707D01*
X74895707Y-77026067D01*
X74895706Y-77026065D01*
X74894284Y-77020757D01*
X74863443Y-76954618D01*
X74799849Y-76818238D01*
X74799846Y-76818233D01*
X74797523Y-76813251D01*
X74724098Y-76708389D01*
X74669357Y-76630211D01*
X74669355Y-76630208D01*
X74666198Y-76625700D01*
X74504300Y-76463802D01*
X74499792Y-76460645D01*
X74499789Y-76460643D01*
X74421611Y-76405902D01*
X74316749Y-76332477D01*
X74311767Y-76330154D01*
X74311762Y-76330151D01*
X74277543Y-76314195D01*
X74224258Y-76267278D01*
X74204797Y-76199001D01*
X74225339Y-76131041D01*
X74277543Y-76085805D01*
X74311762Y-76069849D01*
X74311767Y-76069846D01*
X74316749Y-76067523D01*
X74459555Y-75967529D01*
X74499789Y-75939357D01*
X74499792Y-75939355D01*
X74504300Y-75936198D01*
X74666198Y-75774300D01*
X74690923Y-75738990D01*
X74794366Y-75591257D01*
X74797523Y-75586749D01*
X74799846Y-75581767D01*
X74799849Y-75581762D01*
X74891961Y-75384225D01*
X74891961Y-75384224D01*
X74894284Y-75379243D01*
X74904150Y-75342425D01*
X74952119Y-75163402D01*
X74952119Y-75163400D01*
X74953543Y-75158087D01*
X74973498Y-74930000D01*
X74953543Y-74701913D01*
X74947593Y-74679707D01*
X74895707Y-74486067D01*
X74895706Y-74486065D01*
X74894284Y-74480757D01*
X74882092Y-74454610D01*
X74799849Y-74278238D01*
X74799846Y-74278233D01*
X74797523Y-74273251D01*
X74718700Y-74160680D01*
X74669357Y-74090211D01*
X74669355Y-74090208D01*
X74666198Y-74085700D01*
X74504300Y-73923802D01*
X74499792Y-73920645D01*
X74499789Y-73920643D01*
X74421611Y-73865902D01*
X74316749Y-73792477D01*
X74311767Y-73790154D01*
X74311762Y-73790151D01*
X74277543Y-73774195D01*
X74224258Y-73727278D01*
X74204797Y-73659001D01*
X74225339Y-73591041D01*
X74277543Y-73545805D01*
X74311762Y-73529849D01*
X74311767Y-73529846D01*
X74316749Y-73527523D01*
X74459555Y-73427529D01*
X74499789Y-73399357D01*
X74499792Y-73399355D01*
X74504300Y-73396198D01*
X74666198Y-73234300D01*
X74678951Y-73216088D01*
X74794366Y-73051257D01*
X74797523Y-73046749D01*
X74799846Y-73041767D01*
X74799849Y-73041762D01*
X74891961Y-72844225D01*
X74891961Y-72844224D01*
X74894284Y-72839243D01*
X74904150Y-72802425D01*
X74952119Y-72623402D01*
X74952119Y-72623400D01*
X74953543Y-72618087D01*
X74973498Y-72390000D01*
X74953543Y-72161913D01*
X74947593Y-72139707D01*
X74895707Y-71946067D01*
X74895706Y-71946065D01*
X74894284Y-71940757D01*
X74882092Y-71914610D01*
X74799849Y-71738238D01*
X74799846Y-71738233D01*
X74797523Y-71733251D01*
X74724098Y-71628389D01*
X74669357Y-71550211D01*
X74669355Y-71550208D01*
X74666198Y-71545700D01*
X74504300Y-71383802D01*
X74499792Y-71380645D01*
X74499789Y-71380643D01*
X74421611Y-71325902D01*
X74316749Y-71252477D01*
X74311767Y-71250154D01*
X74311762Y-71250151D01*
X74277543Y-71234195D01*
X74224258Y-71187278D01*
X74204797Y-71119001D01*
X74225339Y-71051041D01*
X74277543Y-71005805D01*
X74311762Y-70989849D01*
X74311767Y-70989846D01*
X74316749Y-70987523D01*
X74421611Y-70914098D01*
X74499789Y-70859357D01*
X74499792Y-70859355D01*
X74504300Y-70856198D01*
X74666198Y-70694300D01*
X74797523Y-70506749D01*
X74799846Y-70501767D01*
X74799849Y-70501762D01*
X74891961Y-70304225D01*
X74891961Y-70304224D01*
X74894284Y-70299243D01*
X74953543Y-70078087D01*
X74973498Y-69850000D01*
X74953543Y-69621913D01*
X74894284Y-69400757D01*
X74891961Y-69395775D01*
X74799849Y-69198238D01*
X74799846Y-69198233D01*
X74797523Y-69193251D01*
X74666198Y-69005700D01*
X74504300Y-68843802D01*
X74499792Y-68840645D01*
X74499789Y-68840643D01*
X74421611Y-68785902D01*
X74316749Y-68712477D01*
X74311767Y-68710154D01*
X74311762Y-68710151D01*
X74277543Y-68694195D01*
X74224258Y-68647278D01*
X74204797Y-68579001D01*
X74225339Y-68511041D01*
X74277543Y-68465805D01*
X74311762Y-68449849D01*
X74311767Y-68449846D01*
X74316749Y-68447523D01*
X74421611Y-68374098D01*
X74499789Y-68319357D01*
X74499792Y-68319355D01*
X74504300Y-68316198D01*
X74666198Y-68154300D01*
X74797523Y-67966749D01*
X74799846Y-67961767D01*
X74799849Y-67961762D01*
X74891961Y-67764225D01*
X74891961Y-67764224D01*
X74894284Y-67759243D01*
X74953543Y-67538087D01*
X74973498Y-67310000D01*
X74953543Y-67081913D01*
X74894284Y-66860757D01*
X74891961Y-66855775D01*
X74799849Y-66658238D01*
X74799846Y-66658233D01*
X74797523Y-66653251D01*
X74666198Y-66465700D01*
X74504300Y-66303802D01*
X74499792Y-66300645D01*
X74499789Y-66300643D01*
X74358779Y-66201907D01*
X74316749Y-66172477D01*
X74311767Y-66170154D01*
X74311762Y-66170151D01*
X74114225Y-66078039D01*
X74114224Y-66078039D01*
X74109243Y-66075716D01*
X74103935Y-66074294D01*
X74103933Y-66074293D01*
X73893402Y-66017881D01*
X73893400Y-66017881D01*
X73888087Y-66016457D01*
X73660000Y-65996502D01*
X73431913Y-66016457D01*
X73426600Y-66017881D01*
X73426598Y-66017881D01*
X73216067Y-66074293D01*
X73216065Y-66074294D01*
X73210757Y-66075716D01*
X73205776Y-66078039D01*
X73205775Y-66078039D01*
X73008238Y-66170151D01*
X73008233Y-66170154D01*
X73003251Y-66172477D01*
X72961221Y-66201907D01*
X72820211Y-66300643D01*
X72820208Y-66300645D01*
X72815700Y-66303802D01*
X72653802Y-66465700D01*
X72522477Y-66653251D01*
X72520154Y-66658233D01*
X72520151Y-66658238D01*
X72428039Y-66855775D01*
X72425716Y-66860757D01*
X72366457Y-67081913D01*
X72346502Y-67310000D01*
X72366457Y-67538087D01*
X72425716Y-67759243D01*
X72428039Y-67764224D01*
X72428039Y-67764225D01*
X72520151Y-67961762D01*
X72520154Y-67961767D01*
X72522477Y-67966749D01*
X72653802Y-68154300D01*
X72815700Y-68316198D01*
X72820208Y-68319355D01*
X72820211Y-68319357D01*
X72898389Y-68374098D01*
X73003251Y-68447523D01*
X73008233Y-68449846D01*
X73008238Y-68449849D01*
X73042457Y-68465805D01*
X73095742Y-68512722D01*
X73115203Y-68580999D01*
X73094661Y-68648959D01*
X73042457Y-68694195D01*
X73008238Y-68710151D01*
X73008233Y-68710154D01*
X73003251Y-68712477D01*
X72898389Y-68785902D01*
X72820211Y-68840643D01*
X72820208Y-68840645D01*
X72815700Y-68843802D01*
X72653802Y-69005700D01*
X72522477Y-69193251D01*
X72520154Y-69198233D01*
X72520151Y-69198238D01*
X72428039Y-69395775D01*
X72425716Y-69400757D01*
X72366457Y-69621913D01*
X72346502Y-69850000D01*
X72366457Y-70078087D01*
X72425716Y-70299243D01*
X72428039Y-70304224D01*
X72428039Y-70304225D01*
X72520151Y-70501762D01*
X72520154Y-70501767D01*
X72522477Y-70506749D01*
X72653802Y-70694300D01*
X72815700Y-70856198D01*
X72820208Y-70859355D01*
X72820211Y-70859357D01*
X72898389Y-70914098D01*
X73003251Y-70987523D01*
X73008233Y-70989846D01*
X73008238Y-70989849D01*
X73042457Y-71005805D01*
X73095742Y-71052722D01*
X73115203Y-71120999D01*
X73094661Y-71188959D01*
X73042457Y-71234195D01*
X73008238Y-71250151D01*
X73008233Y-71250154D01*
X73003251Y-71252477D01*
X72898389Y-71325902D01*
X72820211Y-71380643D01*
X72820208Y-71380645D01*
X72815700Y-71383802D01*
X72653802Y-71545700D01*
X72650645Y-71550208D01*
X72650643Y-71550211D01*
X72595902Y-71628389D01*
X72522477Y-71733251D01*
X72520154Y-71738233D01*
X72520151Y-71738238D01*
X72437908Y-71914610D01*
X72425716Y-71940757D01*
X72424294Y-71946065D01*
X72424293Y-71946067D01*
X72372407Y-72139707D01*
X72366457Y-72161913D01*
X72346502Y-72390000D01*
X72366457Y-72618087D01*
X72367881Y-72623400D01*
X72367881Y-72623402D01*
X72415851Y-72802425D01*
X72425716Y-72839243D01*
X72428039Y-72844224D01*
X72428039Y-72844225D01*
X72520151Y-73041762D01*
X72520154Y-73041767D01*
X72522477Y-73046749D01*
X72525634Y-73051257D01*
X72641050Y-73216088D01*
X72653802Y-73234300D01*
X72815700Y-73396198D01*
X72820208Y-73399355D01*
X72820211Y-73399357D01*
X72860445Y-73427529D01*
X73003251Y-73527523D01*
X73008233Y-73529846D01*
X73008238Y-73529849D01*
X73042457Y-73545805D01*
X73095742Y-73592722D01*
X73115203Y-73660999D01*
X73094661Y-73728959D01*
X73042457Y-73774195D01*
X73008238Y-73790151D01*
X73008233Y-73790154D01*
X73003251Y-73792477D01*
X72898389Y-73865902D01*
X72820211Y-73920643D01*
X72820208Y-73920645D01*
X72815700Y-73923802D01*
X72653802Y-74085700D01*
X72650645Y-74090208D01*
X72650643Y-74090211D01*
X72601300Y-74160680D01*
X72522477Y-74273251D01*
X72520154Y-74278233D01*
X72520151Y-74278238D01*
X72437908Y-74454610D01*
X72425716Y-74480757D01*
X72424294Y-74486065D01*
X72424293Y-74486067D01*
X72372407Y-74679707D01*
X72366457Y-74701913D01*
X72346502Y-74930000D01*
X72366457Y-75158087D01*
X72367881Y-75163400D01*
X72367881Y-75163402D01*
X72415851Y-75342425D01*
X72425716Y-75379243D01*
X72428039Y-75384224D01*
X72428039Y-75384225D01*
X72520151Y-75581762D01*
X72520154Y-75581767D01*
X72522477Y-75586749D01*
X72525634Y-75591257D01*
X72629078Y-75738990D01*
X72653802Y-75774300D01*
X72815700Y-75936198D01*
X72820208Y-75939355D01*
X72820211Y-75939357D01*
X72860445Y-75967529D01*
X73003251Y-76067523D01*
X73008233Y-76069846D01*
X73008238Y-76069849D01*
X73042457Y-76085805D01*
X73095742Y-76132722D01*
X73115203Y-76200999D01*
X73094661Y-76268959D01*
X73042457Y-76314195D01*
X73008238Y-76330151D01*
X73008233Y-76330154D01*
X73003251Y-76332477D01*
X72898389Y-76405902D01*
X72820211Y-76460643D01*
X72820208Y-76460645D01*
X72815700Y-76463802D01*
X72653802Y-76625700D01*
X72650645Y-76630208D01*
X72650643Y-76630211D01*
X72595902Y-76708389D01*
X72522477Y-76813251D01*
X72520154Y-76818233D01*
X72520151Y-76818238D01*
X72456557Y-76954618D01*
X72425716Y-77020757D01*
X72424294Y-77026065D01*
X72424293Y-77026067D01*
X72372407Y-77219707D01*
X72366457Y-77241913D01*
X72346502Y-77470000D01*
X72366457Y-77698087D01*
X72367881Y-77703400D01*
X72367881Y-77703402D01*
X72415851Y-77882425D01*
X72425716Y-77919243D01*
X72428039Y-77924224D01*
X72428039Y-77924225D01*
X72520151Y-78121762D01*
X72520154Y-78121767D01*
X72522477Y-78126749D01*
X72525634Y-78131257D01*
X72643940Y-78300215D01*
X72653802Y-78314300D01*
X72815700Y-78476198D01*
X72820208Y-78479355D01*
X72820211Y-78479357D01*
X72860445Y-78507529D01*
X73003251Y-78607523D01*
X73008233Y-78609846D01*
X73008238Y-78609849D01*
X73042457Y-78625805D01*
X73095742Y-78672722D01*
X73115203Y-78740999D01*
X73094661Y-78808959D01*
X73042457Y-78854195D01*
X73008238Y-78870151D01*
X73008233Y-78870154D01*
X73003251Y-78872477D01*
X72898389Y-78945902D01*
X72820211Y-79000643D01*
X72820208Y-79000645D01*
X72815700Y-79003802D01*
X72653802Y-79165700D01*
X72650645Y-79170208D01*
X72650643Y-79170211D01*
X72621126Y-79212366D01*
X72522477Y-79353251D01*
X72520154Y-79358233D01*
X72520151Y-79358238D01*
X72469743Y-79466340D01*
X72425716Y-79560757D01*
X72424294Y-79566065D01*
X72424293Y-79566067D01*
X72372407Y-79759707D01*
X72366457Y-79781913D01*
X72346502Y-80010000D01*
X72366457Y-80238087D01*
X72367881Y-80243400D01*
X72367881Y-80243402D01*
X72415851Y-80422425D01*
X72425716Y-80459243D01*
X72428039Y-80464224D01*
X72428039Y-80464225D01*
X72520151Y-80661762D01*
X72520154Y-80661767D01*
X72522477Y-80666749D01*
X72525634Y-80671257D01*
X72649312Y-80847887D01*
X72653802Y-80854300D01*
X72815700Y-81016198D01*
X72820208Y-81019355D01*
X72820211Y-81019357D01*
X72864631Y-81050460D01*
X73003251Y-81147523D01*
X73008233Y-81149846D01*
X73008238Y-81149849D01*
X73042457Y-81165805D01*
X73095742Y-81212722D01*
X73115203Y-81280999D01*
X73094661Y-81348959D01*
X73042457Y-81394195D01*
X73008238Y-81410151D01*
X73008233Y-81410154D01*
X73003251Y-81412477D01*
X72930957Y-81463098D01*
X72820211Y-81540643D01*
X72820208Y-81540645D01*
X72815700Y-81543802D01*
X72653802Y-81705700D01*
X72522477Y-81893251D01*
X72520154Y-81898233D01*
X72520151Y-81898238D01*
X72434516Y-82081885D01*
X72425716Y-82100757D01*
X72366457Y-82321913D01*
X72346502Y-82550000D01*
X72366457Y-82778087D01*
X72367881Y-82783400D01*
X72367881Y-82783402D01*
X72422097Y-82985735D01*
X72425716Y-82999243D01*
X72428039Y-83004224D01*
X72428039Y-83004225D01*
X72520151Y-83201762D01*
X72520154Y-83201767D01*
X72522477Y-83206749D01*
X72525634Y-83211257D01*
X72624790Y-83352866D01*
X72653802Y-83394300D01*
X72815700Y-83556198D01*
X72820208Y-83559355D01*
X72820211Y-83559357D01*
X72820281Y-83559406D01*
X73003251Y-83687523D01*
X73008233Y-83689846D01*
X73008238Y-83689849D01*
X73042457Y-83705805D01*
X73095742Y-83752722D01*
X73115203Y-83820999D01*
X73094661Y-83888959D01*
X73042457Y-83934195D01*
X73008238Y-83950151D01*
X73008233Y-83950154D01*
X73003251Y-83952477D01*
X72898389Y-84025902D01*
X72820211Y-84080643D01*
X72820208Y-84080645D01*
X72815700Y-84083802D01*
X72653802Y-84245700D01*
X72522477Y-84433251D01*
X72520154Y-84438233D01*
X72520151Y-84438238D01*
X72479694Y-84525000D01*
X72425716Y-84640757D01*
X72424294Y-84646065D01*
X72424293Y-84646067D01*
X72371598Y-84842725D01*
X72366457Y-84861913D01*
X72346502Y-85090000D01*
X72366457Y-85318087D01*
X72367881Y-85323400D01*
X72367881Y-85323402D01*
X72419086Y-85514498D01*
X72425716Y-85539243D01*
X72428039Y-85544224D01*
X72428039Y-85544225D01*
X72520151Y-85741762D01*
X72520154Y-85741767D01*
X72522477Y-85746749D01*
X72653802Y-85934300D01*
X72815700Y-86096198D01*
X72820208Y-86099355D01*
X72820211Y-86099357D01*
X72898389Y-86154098D01*
X73003251Y-86227523D01*
X73008233Y-86229846D01*
X73008238Y-86229849D01*
X73042457Y-86245805D01*
X73095742Y-86292722D01*
X73115203Y-86360999D01*
X73094661Y-86428959D01*
X73042457Y-86474195D01*
X73008238Y-86490151D01*
X73008233Y-86490154D01*
X73003251Y-86492477D01*
X72898389Y-86565902D01*
X72820211Y-86620643D01*
X72820208Y-86620645D01*
X72815700Y-86623802D01*
X72653802Y-86785700D01*
X72522477Y-86973251D01*
X72520154Y-86978233D01*
X72520151Y-86978238D01*
X72501985Y-87017196D01*
X72425716Y-87180757D01*
X72424294Y-87186065D01*
X72424293Y-87186067D01*
X72382316Y-87342725D01*
X72366457Y-87401913D01*
X72346502Y-87630000D01*
X72366457Y-87858087D01*
X72367881Y-87863400D01*
X72367881Y-87863402D01*
X72408368Y-88014498D01*
X72425716Y-88079243D01*
X72428039Y-88084224D01*
X72428039Y-88084225D01*
X72520151Y-88281762D01*
X72520154Y-88281767D01*
X72522477Y-88286749D01*
X72653802Y-88474300D01*
X72815700Y-88636198D01*
X72820208Y-88639355D01*
X72820211Y-88639357D01*
X72898389Y-88694098D01*
X73003251Y-88767523D01*
X73008233Y-88769846D01*
X73008238Y-88769849D01*
X73042457Y-88785805D01*
X73095742Y-88832722D01*
X73115203Y-88900999D01*
X73094661Y-88968959D01*
X73042457Y-89014195D01*
X73008238Y-89030151D01*
X73008233Y-89030154D01*
X73003251Y-89032477D01*
X72898389Y-89105902D01*
X72820211Y-89160643D01*
X72820208Y-89160645D01*
X72815700Y-89163802D01*
X72653802Y-89325700D01*
X72522477Y-89513251D01*
X72520154Y-89518233D01*
X72520151Y-89518238D01*
X72428039Y-89715775D01*
X72425716Y-89720757D01*
X72366457Y-89941913D01*
X72346502Y-90170000D01*
X66040000Y-90170000D01*
X66040000Y-83444669D01*
X68619001Y-83444669D01*
X68619371Y-83451490D01*
X68624895Y-83502352D01*
X68628521Y-83517604D01*
X68673676Y-83638054D01*
X68682214Y-83653649D01*
X68758715Y-83755724D01*
X68771276Y-83768285D01*
X68873351Y-83844786D01*
X68888946Y-83853324D01*
X69009394Y-83898478D01*
X69024649Y-83902105D01*
X69075514Y-83907631D01*
X69082328Y-83908000D01*
X69508885Y-83908000D01*
X69524124Y-83903525D01*
X69525329Y-83902135D01*
X69527000Y-83894452D01*
X69527000Y-83889884D01*
X70427000Y-83889884D01*
X70431475Y-83905123D01*
X70432865Y-83906328D01*
X70440548Y-83907999D01*
X70871669Y-83907999D01*
X70878490Y-83907629D01*
X70929352Y-83902105D01*
X70944604Y-83898479D01*
X71065054Y-83853324D01*
X71080649Y-83844786D01*
X71182724Y-83768285D01*
X71195285Y-83755724D01*
X71271786Y-83653649D01*
X71280324Y-83638054D01*
X71325478Y-83517606D01*
X71329105Y-83502351D01*
X71334631Y-83451486D01*
X71335000Y-83444672D01*
X71335000Y-83018115D01*
X71330525Y-83002876D01*
X71329135Y-83001671D01*
X71321452Y-83000000D01*
X70445115Y-83000000D01*
X70429876Y-83004475D01*
X70428671Y-83005865D01*
X70427000Y-83013548D01*
X70427000Y-83889884D01*
X69527000Y-83889884D01*
X69527000Y-83018115D01*
X69522525Y-83002876D01*
X69521135Y-83001671D01*
X69513452Y-83000000D01*
X68637116Y-83000000D01*
X68621877Y-83004475D01*
X68620672Y-83005865D01*
X68619001Y-83013548D01*
X68619001Y-83444669D01*
X66040000Y-83444669D01*
X66040000Y-79976695D01*
X68614251Y-79976695D01*
X68614548Y-79981848D01*
X68614548Y-79981851D01*
X68621966Y-80110500D01*
X68627110Y-80199715D01*
X68628247Y-80204761D01*
X68628248Y-80204767D01*
X68636955Y-80243402D01*
X68676222Y-80417639D01*
X68760266Y-80624616D01*
X68876987Y-80815088D01*
X69023250Y-80983938D01*
X69027225Y-80987238D01*
X69027231Y-80987244D01*
X69032425Y-80991556D01*
X69072059Y-81050460D01*
X69073555Y-81121441D01*
X69036439Y-81181962D01*
X68996168Y-81206480D01*
X68888946Y-81246676D01*
X68873351Y-81255214D01*
X68771276Y-81331715D01*
X68758715Y-81344276D01*
X68682214Y-81446351D01*
X68673676Y-81461946D01*
X68628522Y-81582394D01*
X68624895Y-81597649D01*
X68619369Y-81648514D01*
X68619000Y-81655328D01*
X68619000Y-82081885D01*
X68623475Y-82097124D01*
X68624865Y-82098329D01*
X68632548Y-82100000D01*
X71316884Y-82100000D01*
X71332123Y-82095525D01*
X71333328Y-82094135D01*
X71334999Y-82086452D01*
X71334999Y-81655331D01*
X71334629Y-81648510D01*
X71329105Y-81597648D01*
X71325479Y-81582396D01*
X71280324Y-81461946D01*
X71271786Y-81446351D01*
X71195285Y-81344276D01*
X71182724Y-81331715D01*
X71080649Y-81255214D01*
X71065054Y-81246676D01*
X70954813Y-81205348D01*
X70898049Y-81162706D01*
X70873349Y-81096145D01*
X70888557Y-81026796D01*
X70910104Y-80998115D01*
X71011430Y-80897144D01*
X71011440Y-80897132D01*
X71015096Y-80893489D01*
X71046498Y-80849789D01*
X71142435Y-80716277D01*
X71145453Y-80712077D01*
X71165628Y-80671257D01*
X71242136Y-80516453D01*
X71242137Y-80516451D01*
X71244430Y-80511811D01*
X71309370Y-80298069D01*
X71338529Y-80076590D01*
X71340156Y-80010000D01*
X71321852Y-79787361D01*
X71267431Y-79570702D01*
X71178354Y-79365840D01*
X71057014Y-79178277D01*
X70906670Y-79013051D01*
X70902619Y-79009852D01*
X70902615Y-79009848D01*
X70735414Y-78877800D01*
X70735410Y-78877798D01*
X70731359Y-78874598D01*
X70690053Y-78851796D01*
X70640084Y-78801364D01*
X70625312Y-78731921D01*
X70650428Y-78665516D01*
X70677780Y-78638909D01*
X70726207Y-78604366D01*
X70856860Y-78511173D01*
X70888788Y-78479357D01*
X71011435Y-78357137D01*
X71015096Y-78353489D01*
X71046498Y-78309789D01*
X71142435Y-78176277D01*
X71145453Y-78172077D01*
X71165628Y-78131257D01*
X71242136Y-77976453D01*
X71242137Y-77976451D01*
X71244430Y-77971811D01*
X71309370Y-77758069D01*
X71338529Y-77536590D01*
X71340156Y-77470000D01*
X71321852Y-77247361D01*
X71267431Y-77030702D01*
X71178354Y-76825840D01*
X71057014Y-76638277D01*
X70906670Y-76473051D01*
X70902619Y-76469852D01*
X70902615Y-76469848D01*
X70735414Y-76337800D01*
X70735410Y-76337798D01*
X70731359Y-76334598D01*
X70690053Y-76311796D01*
X70640084Y-76261364D01*
X70625312Y-76191921D01*
X70650428Y-76125516D01*
X70677780Y-76098909D01*
X70746757Y-76049708D01*
X70856860Y-75971173D01*
X70888788Y-75939357D01*
X71011435Y-75817137D01*
X71015096Y-75813489D01*
X71046498Y-75769789D01*
X71142435Y-75636277D01*
X71145453Y-75632077D01*
X71165628Y-75591257D01*
X71242136Y-75436453D01*
X71242137Y-75436451D01*
X71244430Y-75431811D01*
X71309370Y-75218069D01*
X71338529Y-74996590D01*
X71340156Y-74930000D01*
X71321852Y-74707361D01*
X71267431Y-74490702D01*
X71178354Y-74285840D01*
X71097487Y-74160839D01*
X71059822Y-74102617D01*
X71059820Y-74102614D01*
X71057014Y-74098277D01*
X70906670Y-73933051D01*
X70902619Y-73929852D01*
X70902615Y-73929848D01*
X70735414Y-73797800D01*
X70735410Y-73797798D01*
X70731359Y-73794598D01*
X70690053Y-73771796D01*
X70640084Y-73721364D01*
X70625312Y-73651921D01*
X70650428Y-73585516D01*
X70677780Y-73558909D01*
X70726207Y-73524366D01*
X70856860Y-73431173D01*
X70888788Y-73399357D01*
X71011435Y-73277137D01*
X71015096Y-73273489D01*
X71046498Y-73229789D01*
X71142435Y-73096277D01*
X71145453Y-73092077D01*
X71165628Y-73051257D01*
X71242136Y-72896453D01*
X71242137Y-72896451D01*
X71244430Y-72891811D01*
X71309370Y-72678069D01*
X71338529Y-72456590D01*
X71340156Y-72390000D01*
X71321852Y-72167361D01*
X71267431Y-71950702D01*
X71178354Y-71745840D01*
X71057014Y-71558277D01*
X70906670Y-71393051D01*
X70902619Y-71389852D01*
X70902615Y-71389848D01*
X70735414Y-71257800D01*
X70735410Y-71257798D01*
X70731359Y-71254598D01*
X70723304Y-71250151D01*
X70679136Y-71225769D01*
X70535789Y-71146638D01*
X70530920Y-71144914D01*
X70530916Y-71144912D01*
X70330087Y-71073795D01*
X70330083Y-71073794D01*
X70325212Y-71072069D01*
X70320119Y-71071162D01*
X70320116Y-71071161D01*
X70110373Y-71033800D01*
X70110367Y-71033799D01*
X70105284Y-71032894D01*
X70031452Y-71031992D01*
X69887081Y-71030228D01*
X69887079Y-71030228D01*
X69881911Y-71030165D01*
X69661091Y-71063955D01*
X69448756Y-71133357D01*
X69250607Y-71236507D01*
X69246474Y-71239610D01*
X69246471Y-71239612D01*
X69225132Y-71255634D01*
X69071965Y-71370635D01*
X68917629Y-71532138D01*
X68914715Y-71536410D01*
X68914714Y-71536411D01*
X68905300Y-71550211D01*
X68791743Y-71716680D01*
X68697688Y-71919305D01*
X68637989Y-72134570D01*
X68614251Y-72356695D01*
X68614548Y-72361848D01*
X68614548Y-72361851D01*
X68620011Y-72456590D01*
X68627110Y-72579715D01*
X68628247Y-72584761D01*
X68628248Y-72584767D01*
X68636955Y-72623402D01*
X68676222Y-72797639D01*
X68760266Y-73004616D01*
X68762965Y-73009020D01*
X68841958Y-73137925D01*
X68876987Y-73195088D01*
X69023250Y-73363938D01*
X69195126Y-73506632D01*
X69235937Y-73530480D01*
X69268445Y-73549476D01*
X69317169Y-73601114D01*
X69330240Y-73670897D01*
X69303509Y-73736669D01*
X69263055Y-73770027D01*
X69250607Y-73776507D01*
X69246474Y-73779610D01*
X69246471Y-73779612D01*
X69225132Y-73795634D01*
X69071965Y-73910635D01*
X68917629Y-74072138D01*
X68914715Y-74076410D01*
X68914714Y-74076411D01*
X68905300Y-74090211D01*
X68791743Y-74256680D01*
X68697688Y-74459305D01*
X68637989Y-74674570D01*
X68614251Y-74896695D01*
X68614548Y-74901848D01*
X68614548Y-74901851D01*
X68620011Y-74996590D01*
X68627110Y-75119715D01*
X68628247Y-75124761D01*
X68628248Y-75124767D01*
X68636955Y-75163402D01*
X68676222Y-75337639D01*
X68760266Y-75544616D01*
X68876987Y-75735088D01*
X69023250Y-75903938D01*
X69195126Y-76046632D01*
X69262163Y-76085805D01*
X69268445Y-76089476D01*
X69317169Y-76141114D01*
X69330240Y-76210897D01*
X69303509Y-76276669D01*
X69263055Y-76310027D01*
X69250607Y-76316507D01*
X69246474Y-76319610D01*
X69246471Y-76319612D01*
X69225132Y-76335634D01*
X69071965Y-76450635D01*
X68917629Y-76612138D01*
X68914715Y-76616410D01*
X68914714Y-76616411D01*
X68896838Y-76642617D01*
X68791743Y-76796680D01*
X68764093Y-76856247D01*
X68710084Y-76972601D01*
X68697688Y-76999305D01*
X68637989Y-77214570D01*
X68614251Y-77436695D01*
X68614548Y-77441848D01*
X68614548Y-77441851D01*
X68620011Y-77536590D01*
X68627110Y-77659715D01*
X68628247Y-77664761D01*
X68628248Y-77664767D01*
X68636955Y-77703402D01*
X68676222Y-77877639D01*
X68714461Y-77971811D01*
X68757253Y-78077195D01*
X68760266Y-78084616D01*
X68876987Y-78275088D01*
X69023250Y-78443938D01*
X69195126Y-78586632D01*
X69262163Y-78625805D01*
X69268445Y-78629476D01*
X69317169Y-78681114D01*
X69330240Y-78750897D01*
X69303509Y-78816669D01*
X69263055Y-78850027D01*
X69250607Y-78856507D01*
X69246474Y-78859610D01*
X69246471Y-78859612D01*
X69188572Y-78903084D01*
X69071965Y-78990635D01*
X68917629Y-79152138D01*
X68914715Y-79156410D01*
X68914714Y-79156411D01*
X68876544Y-79212366D01*
X68791743Y-79336680D01*
X68697688Y-79539305D01*
X68637989Y-79754570D01*
X68614251Y-79976695D01*
X66040000Y-79976695D01*
X66040000Y-66429610D01*
X66060002Y-66361489D01*
X66076905Y-66340515D01*
X66848515Y-65568905D01*
X66910827Y-65534879D01*
X66937610Y-65532000D01*
X108195390Y-65532000D01*
X108263511Y-65552002D01*
G37*
%TD.AperFunction*%
%TD*%
M02*
