%TF.GenerationSoftware,KiCad,Pcbnew,6.0.0+dfsg1-2*%
%TF.CreationDate,2022-03-14T17:52:30-05:00*%
%TF.ProjectId,remote64-controller,72656d6f-7465-4363-942d-636f6e74726f,rev?*%
%TF.SameCoordinates,Original*%
%TF.FileFunction,Soldermask,Top*%
%TF.FilePolarity,Negative*%
%FSLAX46Y46*%
G04 Gerber Fmt 4.6, Leading zero omitted, Abs format (unit mm)*
G04 Created by KiCad (PCBNEW 6.0.0+dfsg1-2) date 2022-03-14 17:52:30*
%MOMM*%
%LPD*%
G01*
G04 APERTURE LIST*
%ADD10O,1.700000X1.700000*%
%ADD11R,1.700000X1.700000*%
%ADD12R,1.600000X1.600000*%
%ADD13O,1.600000X1.600000*%
%ADD14C,1.600000*%
%ADD15R,2.600000X2.600000*%
%ADD16C,2.600000*%
%ADD17C,1.700000*%
%ADD18C,3.500000*%
%ADD19R,2.200000X2.200000*%
%ADD20O,2.200000X2.200000*%
%ADD21C,2.500000*%
%ADD22C,2.000000*%
%ADD23R,1.500000X1.050000*%
%ADD24O,1.500000X1.050000*%
G04 APERTURE END LIST*
D10*
%TO.C,J3*%
X69977000Y-102870000D03*
X69977000Y-105410000D03*
X69977000Y-107950000D03*
X69977000Y-110490000D03*
X69977000Y-113030000D03*
D11*
X69977000Y-115570000D03*
%TD*%
D12*
%TO.C,U2*%
X88900000Y-115570000D03*
D13*
X88900000Y-113030000D03*
X88900000Y-110490000D03*
X88900000Y-107950000D03*
X88900000Y-105410000D03*
X88900000Y-102870000D03*
X88900000Y-100330000D03*
X88900000Y-97790000D03*
X88900000Y-95250000D03*
X88900000Y-92710000D03*
X88900000Y-90170000D03*
X88900000Y-87630000D03*
X88900000Y-85090000D03*
X88900000Y-82550000D03*
X88900000Y-80010000D03*
X88900000Y-77470000D03*
X88900000Y-74930000D03*
X88900000Y-72390000D03*
X88900000Y-69850000D03*
X88900000Y-67310000D03*
X73660000Y-67310000D03*
X73660000Y-69850000D03*
X73660000Y-72390000D03*
X73660000Y-74930000D03*
X73660000Y-77470000D03*
X73660000Y-80010000D03*
X73660000Y-82550000D03*
X73660000Y-85090000D03*
X73660000Y-87630000D03*
X73660000Y-90170000D03*
X73660000Y-92710000D03*
X73660000Y-95250000D03*
X73660000Y-97790000D03*
X73660000Y-100330000D03*
X73660000Y-102870000D03*
X73660000Y-105410000D03*
X73660000Y-107950000D03*
X73660000Y-110490000D03*
X73660000Y-113030000D03*
X73660000Y-115570000D03*
%TD*%
D14*
%TO.C,C2*%
X70358000Y-92750000D03*
X70358000Y-95250000D03*
%TD*%
D15*
%TO.C,J4*%
X105029000Y-142922000D03*
D16*
X105029000Y-137922000D03*
%TD*%
D11*
%TO.C,J5*%
X69977000Y-82550000D03*
D10*
X69977000Y-80010000D03*
X69977000Y-77470000D03*
X69977000Y-74930000D03*
X69977000Y-72390000D03*
%TD*%
D14*
%TO.C,C3*%
X92964000Y-86701000D03*
X92964000Y-84201000D03*
%TD*%
D11*
%TO.C,J1*%
X97937000Y-80110500D03*
D17*
X100437000Y-80110500D03*
X100437000Y-78110500D03*
X97937000Y-78110500D03*
D18*
X105207000Y-75400500D03*
X93167000Y-75400500D03*
%TD*%
D14*
%TO.C,R3*%
X67691000Y-135255000D03*
D13*
X67691000Y-145415000D03*
%TD*%
D15*
%TO.C,J2*%
X105029000Y-128992000D03*
D16*
X105029000Y-123992000D03*
%TD*%
D19*
%TO.C,D1*%
X78867000Y-121412000D03*
D20*
X78867000Y-131572000D03*
%TD*%
D21*
%TO.C,K1*%
X95504000Y-130302000D03*
X98044000Y-122682000D03*
X82804000Y-122682000D03*
X82804000Y-130302000D03*
%TD*%
D12*
%TO.C,U1*%
X96774000Y-84201000D03*
D13*
X96774000Y-86741000D03*
X96774000Y-89281000D03*
X96774000Y-91821000D03*
X96774000Y-94361000D03*
X96774000Y-96901000D03*
X96774000Y-99441000D03*
X104394000Y-99441000D03*
X104394000Y-96901000D03*
X104394000Y-94361000D03*
X104394000Y-91821000D03*
X104394000Y-89281000D03*
X104394000Y-86741000D03*
X104394000Y-84201000D03*
%TD*%
D21*
%TO.C,K2*%
X95504000Y-144145000D03*
X98044000Y-136525000D03*
X82804000Y-136525000D03*
X82804000Y-144145000D03*
%TD*%
D19*
%TO.C,D2*%
X78867000Y-135255000D03*
D20*
X78867000Y-145415000D03*
%TD*%
D22*
%TO.C,SW1*%
X97464000Y-111506000D03*
X97464000Y-105006000D03*
X92964000Y-111506000D03*
X92964000Y-105006000D03*
%TD*%
D23*
%TO.C,Q2*%
X72771000Y-139065000D03*
D24*
X72771000Y-140335000D03*
X72771000Y-141605000D03*
%TD*%
D14*
%TO.C,C1*%
X107188000Y-84201000D03*
X107188000Y-86701000D03*
%TD*%
%TO.C,R2*%
X92964000Y-90170000D03*
D13*
X92964000Y-100330000D03*
%TD*%
D23*
%TO.C,Q1*%
X72771000Y-125222000D03*
D24*
X72771000Y-126492000D03*
X72771000Y-127762000D03*
%TD*%
D14*
%TO.C,R1*%
X67691000Y-121412000D03*
D13*
X67691000Y-131572000D03*
%TD*%
M02*
