M48
; DRILL file {KiCad 6.0.0+dfsg1-2} date Mon Mar 14 17:53:08 2022
; FORMAT={-:-/ absolute / metric / decimal}
; #@! TF.CreationDate,2022-03-14T17:53:08-05:00
; #@! TF.GenerationSoftware,Kicad,Pcbnew,6.0.0+dfsg1-2
; #@! TF.FileFunction,Plated,1,2,PTH
FMAT,2
METRIC
; #@! TA.AperFunction,Plated,PTH,ViaDrill
T1C0.400
; #@! TA.AperFunction,Plated,PTH,ComponentDrill
T2C0.750
; #@! TA.AperFunction,Plated,PTH,ComponentDrill
T3C0.800
; #@! TA.AperFunction,Plated,PTH,ComponentDrill
T4C0.920
; #@! TA.AperFunction,Plated,PTH,ComponentDrill
T5C1.000
; #@! TA.AperFunction,Plated,PTH,ComponentDrill
T6C1.100
; #@! TA.AperFunction,Plated,PTH,ComponentDrill
T7C1.300
; #@! TA.AperFunction,Plated,PTH,ComponentDrill
T8C2.330
%
G90
G05
T1
X83.82Y-108.585
X83.82Y-114.935
T2
X72.771Y-125.222
X72.771Y-126.492
X72.771Y-127.762
X72.771Y-139.065
X72.771Y-140.335
X72.771Y-141.605
T3
X67.691Y-121.412
X67.691Y-131.572
X67.691Y-135.255
X67.691Y-145.415
X70.358Y-92.75
X70.358Y-95.25
X73.66Y-67.31
X73.66Y-69.85
X73.66Y-72.39
X73.66Y-74.93
X73.66Y-77.47
X73.66Y-80.01
X73.66Y-82.55
X73.66Y-85.09
X73.66Y-87.63
X73.66Y-90.17
X73.66Y-92.71
X73.66Y-95.25
X73.66Y-97.79
X73.66Y-100.33
X73.66Y-102.87
X73.66Y-105.41
X73.66Y-107.95
X73.66Y-110.49
X73.66Y-113.03
X73.66Y-115.57
X88.9Y-67.31
X88.9Y-69.85
X88.9Y-72.39
X88.9Y-74.93
X88.9Y-77.47
X88.9Y-80.01
X88.9Y-82.55
X88.9Y-85.09
X88.9Y-87.63
X88.9Y-90.17
X88.9Y-92.71
X88.9Y-95.25
X88.9Y-97.79
X88.9Y-100.33
X88.9Y-102.87
X88.9Y-105.41
X88.9Y-107.95
X88.9Y-110.49
X88.9Y-113.03
X88.9Y-115.57
X92.964Y-84.201
X92.964Y-86.701
X92.964Y-90.17
X92.964Y-100.33
X96.774Y-84.201
X96.774Y-86.741
X96.774Y-89.281
X96.774Y-91.821
X96.774Y-94.361
X96.774Y-96.901
X96.774Y-99.441
X104.394Y-84.201
X104.394Y-86.741
X104.394Y-89.281
X104.394Y-91.821
X104.394Y-94.361
X104.394Y-96.901
X104.394Y-99.441
X107.188Y-84.201
X107.188Y-86.701
T4
X97.937Y-78.111
X97.937Y-80.111
X100.437Y-78.111
X100.437Y-80.111
T5
X69.977Y-72.39
X69.977Y-74.93
X69.977Y-77.47
X69.977Y-80.01
X69.977Y-82.55
X69.977Y-102.87
X69.977Y-105.41
X69.977Y-107.95
X69.977Y-110.49
X69.977Y-113.03
X69.977Y-115.57
T6
X78.867Y-121.412
X78.867Y-131.572
X78.867Y-135.255
X78.867Y-145.415
X92.964Y-105.006
X92.964Y-111.506
X97.464Y-105.006
X97.464Y-111.506
T7
X82.804Y-122.682
X82.804Y-130.302
X82.804Y-136.525
X82.804Y-144.145
X95.504Y-130.302
X95.504Y-144.145
X98.044Y-122.682
X98.044Y-136.525
X105.029Y-123.992
X105.029Y-128.992
X105.029Y-137.922
X105.029Y-142.922
T8
X93.167Y-75.4
X105.207Y-75.4
T0
M30
