%FSLAX45Y45*%
G04 Gerber Fmt 4.5, Leading zero omitted, Abs format (unit mm)*
G04 Created by KiCad (PCBNEW 6.0.0+dfsg1-2) date 2022-03-14 17:53:09*
%MOMM*%
%LPD*%
G01*
G04 APERTURE LIST*
%TA.AperFunction,Profile*%
%ADD10C,0.100000*%
%TD*%
%ADD11C,0.200000*%
%ADD12C,0.040000*%
%ADD13C,0.075000*%
%ADD14C,0.080000*%
%ADD15C,0.092000*%
%ADD16C,0.100000*%
%ADD17C,0.110000*%
%ADD18C,0.130000*%
%ADD19C,0.233000*%
G04 APERTURE END LIST*
D10*
X10845800Y-6502400D02*
X10960100Y-6616700D01*
X6667500Y-14770100D02*
X10845800Y-14770100D01*
X6553200Y-6616700D02*
X6553200Y-14655800D01*
X10960100Y-14655800D02*
X10845800Y-14770100D01*
X6667500Y-6502400D02*
X10845800Y-6502400D01*
X6553200Y-14655800D02*
X6667500Y-14770100D01*
X6553200Y-6616700D02*
X6667500Y-6502400D01*
X10960100Y-14655800D02*
X10960100Y-6616700D01*
D11*
D12*
X8362000Y-10838500D02*
X8402000Y-10878500D01*
X8402000Y-10838500D02*
X8362000Y-10878500D01*
X8362000Y-11473500D02*
X8402000Y-11513500D01*
X8402000Y-11473500D02*
X8362000Y-11513500D01*
D13*
X7314600Y-12522200D02*
G75*
G03*
X7314600Y-12522200I-37500J0D01*
G01*
X7314600Y-12649200D02*
G75*
G03*
X7314600Y-12649200I-37500J0D01*
G01*
X7314600Y-12776200D02*
G75*
G03*
X7314600Y-12776200I-37500J0D01*
G01*
X7314600Y-13906500D02*
G75*
G03*
X7314600Y-13906500I-37500J0D01*
G01*
X7314600Y-14033500D02*
G75*
G03*
X7314600Y-14033500I-37500J0D01*
G01*
X7314600Y-14160500D02*
G75*
G03*
X7314600Y-14160500I-37500J0D01*
G01*
D14*
X6769100Y-12101200D02*
X6769100Y-12181200D01*
X6729100Y-12141200D02*
X6809100Y-12141200D01*
X6769100Y-13117200D02*
X6769100Y-13197200D01*
X6729100Y-13157200D02*
X6809100Y-13157200D01*
X6769100Y-13485500D02*
X6769100Y-13565500D01*
X6729100Y-13525500D02*
X6809100Y-13525500D01*
X6769100Y-14501500D02*
X6769100Y-14581500D01*
X6729100Y-14541500D02*
X6809100Y-14541500D01*
X7035800Y-9235000D02*
X7035800Y-9315000D01*
X6995800Y-9275000D02*
X7075800Y-9275000D01*
X7035800Y-9485000D02*
X7035800Y-9565000D01*
X6995800Y-9525000D02*
X7075800Y-9525000D01*
X7366000Y-6691000D02*
X7366000Y-6771000D01*
X7326000Y-6731000D02*
X7406000Y-6731000D01*
X7366000Y-6945000D02*
X7366000Y-7025000D01*
X7326000Y-6985000D02*
X7406000Y-6985000D01*
X7366000Y-7199000D02*
X7366000Y-7279000D01*
X7326000Y-7239000D02*
X7406000Y-7239000D01*
X7366000Y-7453000D02*
X7366000Y-7533000D01*
X7326000Y-7493000D02*
X7406000Y-7493000D01*
X7366000Y-7707000D02*
X7366000Y-7787000D01*
X7326000Y-7747000D02*
X7406000Y-7747000D01*
X7366000Y-7961000D02*
X7366000Y-8041000D01*
X7326000Y-8001000D02*
X7406000Y-8001000D01*
X7366000Y-8215000D02*
X7366000Y-8295000D01*
X7326000Y-8255000D02*
X7406000Y-8255000D01*
X7366000Y-8469000D02*
X7366000Y-8549000D01*
X7326000Y-8509000D02*
X7406000Y-8509000D01*
X7366000Y-8723000D02*
X7366000Y-8803000D01*
X7326000Y-8763000D02*
X7406000Y-8763000D01*
X7366000Y-8977000D02*
X7366000Y-9057000D01*
X7326000Y-9017000D02*
X7406000Y-9017000D01*
X7366000Y-9231000D02*
X7366000Y-9311000D01*
X7326000Y-9271000D02*
X7406000Y-9271000D01*
X7366000Y-9485000D02*
X7366000Y-9565000D01*
X7326000Y-9525000D02*
X7406000Y-9525000D01*
X7366000Y-9739000D02*
X7366000Y-9819000D01*
X7326000Y-9779000D02*
X7406000Y-9779000D01*
X7366000Y-9993000D02*
X7366000Y-10073000D01*
X7326000Y-10033000D02*
X7406000Y-10033000D01*
X7366000Y-10247000D02*
X7366000Y-10327000D01*
X7326000Y-10287000D02*
X7406000Y-10287000D01*
X7366000Y-10501000D02*
X7366000Y-10581000D01*
X7326000Y-10541000D02*
X7406000Y-10541000D01*
X7366000Y-10755000D02*
X7366000Y-10835000D01*
X7326000Y-10795000D02*
X7406000Y-10795000D01*
X7366000Y-11009000D02*
X7366000Y-11089000D01*
X7326000Y-11049000D02*
X7406000Y-11049000D01*
X7366000Y-11263000D02*
X7366000Y-11343000D01*
X7326000Y-11303000D02*
X7406000Y-11303000D01*
X7366000Y-11517000D02*
X7366000Y-11597000D01*
X7326000Y-11557000D02*
X7406000Y-11557000D01*
X8890000Y-6691000D02*
X8890000Y-6771000D01*
X8850000Y-6731000D02*
X8930000Y-6731000D01*
X8890000Y-6945000D02*
X8890000Y-7025000D01*
X8850000Y-6985000D02*
X8930000Y-6985000D01*
X8890000Y-7199000D02*
X8890000Y-7279000D01*
X8850000Y-7239000D02*
X8930000Y-7239000D01*
X8890000Y-7453000D02*
X8890000Y-7533000D01*
X8850000Y-7493000D02*
X8930000Y-7493000D01*
X8890000Y-7707000D02*
X8890000Y-7787000D01*
X8850000Y-7747000D02*
X8930000Y-7747000D01*
X8890000Y-7961000D02*
X8890000Y-8041000D01*
X8850000Y-8001000D02*
X8930000Y-8001000D01*
X8890000Y-8215000D02*
X8890000Y-8295000D01*
X8850000Y-8255000D02*
X8930000Y-8255000D01*
X8890000Y-8469000D02*
X8890000Y-8549000D01*
X8850000Y-8509000D02*
X8930000Y-8509000D01*
X8890000Y-8723000D02*
X8890000Y-8803000D01*
X8850000Y-8763000D02*
X8930000Y-8763000D01*
X8890000Y-8977000D02*
X8890000Y-9057000D01*
X8850000Y-9017000D02*
X8930000Y-9017000D01*
X8890000Y-9231000D02*
X8890000Y-9311000D01*
X8850000Y-9271000D02*
X8930000Y-9271000D01*
X8890000Y-9485000D02*
X8890000Y-9565000D01*
X8850000Y-9525000D02*
X8930000Y-9525000D01*
X8890000Y-9739000D02*
X8890000Y-9819000D01*
X8850000Y-9779000D02*
X8930000Y-9779000D01*
X8890000Y-9993000D02*
X8890000Y-10073000D01*
X8850000Y-10033000D02*
X8930000Y-10033000D01*
X8890000Y-10247000D02*
X8890000Y-10327000D01*
X8850000Y-10287000D02*
X8930000Y-10287000D01*
X8890000Y-10501000D02*
X8890000Y-10581000D01*
X8850000Y-10541000D02*
X8930000Y-10541000D01*
X8890000Y-10755000D02*
X8890000Y-10835000D01*
X8850000Y-10795000D02*
X8930000Y-10795000D01*
X8890000Y-11009000D02*
X8890000Y-11089000D01*
X8850000Y-11049000D02*
X8930000Y-11049000D01*
X8890000Y-11263000D02*
X8890000Y-11343000D01*
X8850000Y-11303000D02*
X8930000Y-11303000D01*
X8890000Y-11517000D02*
X8890000Y-11597000D01*
X8850000Y-11557000D02*
X8930000Y-11557000D01*
X9296400Y-8380100D02*
X9296400Y-8460100D01*
X9256400Y-8420100D02*
X9336400Y-8420100D01*
X9296400Y-8630100D02*
X9296400Y-8710100D01*
X9256400Y-8670100D02*
X9336400Y-8670100D01*
X9296400Y-8977000D02*
X9296400Y-9057000D01*
X9256400Y-9017000D02*
X9336400Y-9017000D01*
X9296400Y-9993000D02*
X9296400Y-10073000D01*
X9256400Y-10033000D02*
X9336400Y-10033000D01*
X9677400Y-8380100D02*
X9677400Y-8460100D01*
X9637400Y-8420100D02*
X9717400Y-8420100D01*
X9677400Y-8634100D02*
X9677400Y-8714100D01*
X9637400Y-8674100D02*
X9717400Y-8674100D01*
X9677400Y-8888100D02*
X9677400Y-8968100D01*
X9637400Y-8928100D02*
X9717400Y-8928100D01*
X9677400Y-9142100D02*
X9677400Y-9222100D01*
X9637400Y-9182100D02*
X9717400Y-9182100D01*
X9677400Y-9396100D02*
X9677400Y-9476100D01*
X9637400Y-9436100D02*
X9717400Y-9436100D01*
X9677400Y-9650100D02*
X9677400Y-9730100D01*
X9637400Y-9690100D02*
X9717400Y-9690100D01*
X9677400Y-9904100D02*
X9677400Y-9984100D01*
X9637400Y-9944100D02*
X9717400Y-9944100D01*
X10439400Y-8380100D02*
X10439400Y-8460100D01*
X10399400Y-8420100D02*
X10479400Y-8420100D01*
X10439400Y-8634100D02*
X10439400Y-8714100D01*
X10399400Y-8674100D02*
X10479400Y-8674100D01*
X10439400Y-8888100D02*
X10439400Y-8968100D01*
X10399400Y-8928100D02*
X10479400Y-8928100D01*
X10439400Y-9142100D02*
X10439400Y-9222100D01*
X10399400Y-9182100D02*
X10479400Y-9182100D01*
X10439400Y-9396100D02*
X10439400Y-9476100D01*
X10399400Y-9436100D02*
X10479400Y-9436100D01*
X10439400Y-9650100D02*
X10439400Y-9730100D01*
X10399400Y-9690100D02*
X10479400Y-9690100D01*
X10439400Y-9904100D02*
X10439400Y-9984100D01*
X10399400Y-9944100D02*
X10479400Y-9944100D01*
X10718800Y-8380100D02*
X10718800Y-8460100D01*
X10678800Y-8420100D02*
X10758800Y-8420100D01*
X10718800Y-8630100D02*
X10718800Y-8710100D01*
X10678800Y-8670100D02*
X10758800Y-8670100D01*
D15*
X9826227Y-7843577D02*
X9826227Y-7778523D01*
X9761173Y-7778523D01*
X9761173Y-7843577D01*
X9826227Y-7843577D01*
X9826227Y-8043577D02*
X9826227Y-7978523D01*
X9761173Y-7978523D01*
X9761173Y-8043577D01*
X9826227Y-8043577D01*
X10076227Y-7843577D02*
X10076227Y-7778523D01*
X10011173Y-7778523D01*
X10011173Y-7843577D01*
X10076227Y-7843577D01*
X10076227Y-8043577D02*
X10076227Y-7978523D01*
X10011173Y-7978523D01*
X10011173Y-8043577D01*
X10076227Y-8043577D01*
D16*
X6997700Y-7289000D02*
X7047700Y-7239000D01*
X6997700Y-7189000D01*
X6947700Y-7239000D01*
X6997700Y-7289000D01*
X6997700Y-7543000D02*
X7047700Y-7493000D01*
X6997700Y-7443000D01*
X6947700Y-7493000D01*
X6997700Y-7543000D01*
X6997700Y-7797000D02*
X7047700Y-7747000D01*
X6997700Y-7697000D01*
X6947700Y-7747000D01*
X6997700Y-7797000D01*
X6997700Y-8051000D02*
X7047700Y-8001000D01*
X6997700Y-7951000D01*
X6947700Y-8001000D01*
X6997700Y-8051000D01*
X6997700Y-8305000D02*
X7047700Y-8255000D01*
X6997700Y-8205000D01*
X6947700Y-8255000D01*
X6997700Y-8305000D01*
X6997700Y-10337000D02*
X7047700Y-10287000D01*
X6997700Y-10237000D01*
X6947700Y-10287000D01*
X6997700Y-10337000D01*
X6997700Y-10591000D02*
X7047700Y-10541000D01*
X6997700Y-10491000D01*
X6947700Y-10541000D01*
X6997700Y-10591000D01*
X6997700Y-10845000D02*
X7047700Y-10795000D01*
X6997700Y-10745000D01*
X6947700Y-10795000D01*
X6997700Y-10845000D01*
X6997700Y-11099000D02*
X7047700Y-11049000D01*
X6997700Y-10999000D01*
X6947700Y-11049000D01*
X6997700Y-11099000D01*
X6997700Y-11353000D02*
X7047700Y-11303000D01*
X6997700Y-11253000D01*
X6947700Y-11303000D01*
X6997700Y-11353000D01*
X6997700Y-11607000D02*
X7047700Y-11557000D01*
X6997700Y-11507000D01*
X6947700Y-11557000D01*
X6997700Y-11607000D01*
D17*
X7831700Y-12086200D02*
X7941700Y-12196200D01*
X7941700Y-12086200D02*
X7831700Y-12196200D01*
X7941700Y-12141200D02*
G75*
G03*
X7941700Y-12141200I-55000J0D01*
G01*
X7831700Y-13102200D02*
X7941700Y-13212200D01*
X7941700Y-13102200D02*
X7831700Y-13212200D01*
X7941700Y-13157200D02*
G75*
G03*
X7941700Y-13157200I-55000J0D01*
G01*
X7831700Y-13470500D02*
X7941700Y-13580500D01*
X7941700Y-13470500D02*
X7831700Y-13580500D01*
X7941700Y-13525500D02*
G75*
G03*
X7941700Y-13525500I-55000J0D01*
G01*
X7831700Y-14486500D02*
X7941700Y-14596500D01*
X7941700Y-14486500D02*
X7831700Y-14596500D01*
X7941700Y-14541500D02*
G75*
G03*
X7941700Y-14541500I-55000J0D01*
G01*
X9241400Y-10445600D02*
X9351400Y-10555600D01*
X9351400Y-10445600D02*
X9241400Y-10555600D01*
X9351400Y-10500600D02*
G75*
G03*
X9351400Y-10500600I-55000J0D01*
G01*
X9241400Y-11095600D02*
X9351400Y-11205600D01*
X9351400Y-11095600D02*
X9241400Y-11205600D01*
X9351400Y-11150600D02*
G75*
G03*
X9351400Y-11150600I-55000J0D01*
G01*
X9691400Y-10445600D02*
X9801400Y-10555600D01*
X9801400Y-10445600D02*
X9691400Y-10555600D01*
X9801400Y-10500600D02*
G75*
G03*
X9801400Y-10500600I-55000J0D01*
G01*
X9691400Y-11095600D02*
X9801400Y-11205600D01*
X9801400Y-11095600D02*
X9691400Y-11205600D01*
X9801400Y-11150600D02*
G75*
G03*
X9801400Y-11150600I-55000J0D01*
G01*
D18*
X8215400Y-12203200D02*
X8345400Y-12333200D01*
X8345400Y-12203200D02*
X8215400Y-12333200D01*
X8280400Y-12203200D02*
X8280400Y-12333200D01*
X8215400Y-12268200D02*
X8345400Y-12268200D01*
X8215400Y-12965200D02*
X8345400Y-13095200D01*
X8345400Y-12965200D02*
X8215400Y-13095200D01*
X8280400Y-12965200D02*
X8280400Y-13095200D01*
X8215400Y-13030200D02*
X8345400Y-13030200D01*
X8215400Y-13587500D02*
X8345400Y-13717500D01*
X8345400Y-13587500D02*
X8215400Y-13717500D01*
X8280400Y-13587500D02*
X8280400Y-13717500D01*
X8215400Y-13652500D02*
X8345400Y-13652500D01*
X8215400Y-14349500D02*
X8345400Y-14479500D01*
X8345400Y-14349500D02*
X8215400Y-14479500D01*
X8280400Y-14349500D02*
X8280400Y-14479500D01*
X8215400Y-14414500D02*
X8345400Y-14414500D01*
X9485400Y-12965200D02*
X9615400Y-13095200D01*
X9615400Y-12965200D02*
X9485400Y-13095200D01*
X9550400Y-12965200D02*
X9550400Y-13095200D01*
X9485400Y-13030200D02*
X9615400Y-13030200D01*
X9485400Y-14349500D02*
X9615400Y-14479500D01*
X9615400Y-14349500D02*
X9485400Y-14479500D01*
X9550400Y-14349500D02*
X9550400Y-14479500D01*
X9485400Y-14414500D02*
X9615400Y-14414500D01*
X9739400Y-12203200D02*
X9869400Y-12333200D01*
X9869400Y-12203200D02*
X9739400Y-12333200D01*
X9804400Y-12203200D02*
X9804400Y-12333200D01*
X9739400Y-12268200D02*
X9869400Y-12268200D01*
X9739400Y-13587500D02*
X9869400Y-13717500D01*
X9869400Y-13587500D02*
X9739400Y-13717500D01*
X9804400Y-13587500D02*
X9804400Y-13717500D01*
X9739400Y-13652500D02*
X9869400Y-13652500D01*
X10437900Y-12334200D02*
X10567900Y-12464200D01*
X10567900Y-12334200D02*
X10437900Y-12464200D01*
X10502900Y-12334200D02*
X10502900Y-12464200D01*
X10437900Y-12399200D02*
X10567900Y-12399200D01*
X10437900Y-12834200D02*
X10567900Y-12964200D01*
X10567900Y-12834200D02*
X10437900Y-12964200D01*
X10502900Y-12834200D02*
X10502900Y-12964200D01*
X10437900Y-12899200D02*
X10567900Y-12899200D01*
X10437900Y-13727200D02*
X10567900Y-13857200D01*
X10567900Y-13727200D02*
X10437900Y-13857200D01*
X10502900Y-13727200D02*
X10502900Y-13857200D01*
X10437900Y-13792200D02*
X10567900Y-13792200D01*
X10437900Y-14227200D02*
X10567900Y-14357200D01*
X10567900Y-14227200D02*
X10437900Y-14357200D01*
X10502900Y-14227200D02*
X10502900Y-14357200D01*
X10437900Y-14292200D02*
X10567900Y-14292200D01*
D19*
X9200200Y-7423550D02*
X9433200Y-7656550D01*
X9433200Y-7423550D02*
X9200200Y-7656550D01*
X9399079Y-7622429D02*
X9399079Y-7457671D01*
X9234321Y-7457671D01*
X9234321Y-7622429D01*
X9399079Y-7622429D01*
X10404200Y-7423550D02*
X10637200Y-7656550D01*
X10637200Y-7423550D02*
X10404200Y-7656550D01*
X10603079Y-7622429D02*
X10603079Y-7457671D01*
X10438321Y-7457671D01*
X10438321Y-7622429D01*
X10603079Y-7622429D01*
D11*
X6805819Y-15085576D02*
X6805819Y-14885576D01*
X6853438Y-14885576D01*
X6882009Y-14895100D01*
X6901057Y-14914148D01*
X6910581Y-14933195D01*
X6920105Y-14971290D01*
X6920105Y-14999862D01*
X6910581Y-15037957D01*
X6901057Y-15057005D01*
X6882009Y-15076052D01*
X6853438Y-15085576D01*
X6805819Y-15085576D01*
X7005819Y-15085576D02*
X7005819Y-14952243D01*
X7005819Y-14990338D02*
X7015343Y-14971290D01*
X7024867Y-14961767D01*
X7043914Y-14952243D01*
X7062962Y-14952243D01*
X7129628Y-15085576D02*
X7129628Y-14952243D01*
X7129628Y-14885576D02*
X7120105Y-14895100D01*
X7129628Y-14904624D01*
X7139152Y-14895100D01*
X7129628Y-14885576D01*
X7129628Y-14904624D01*
X7253438Y-15085576D02*
X7234390Y-15076052D01*
X7224867Y-15057005D01*
X7224867Y-14885576D01*
X7358200Y-15085576D02*
X7339152Y-15076052D01*
X7329628Y-15057005D01*
X7329628Y-14885576D01*
X7586771Y-15085576D02*
X7586771Y-14885576D01*
X7653438Y-15028433D01*
X7720105Y-14885576D01*
X7720105Y-15085576D01*
X7901057Y-15085576D02*
X7901057Y-14980814D01*
X7891533Y-14961767D01*
X7872486Y-14952243D01*
X7834390Y-14952243D01*
X7815343Y-14961767D01*
X7901057Y-15076052D02*
X7882009Y-15085576D01*
X7834390Y-15085576D01*
X7815343Y-15076052D01*
X7805819Y-15057005D01*
X7805819Y-15037957D01*
X7815343Y-15018909D01*
X7834390Y-15009386D01*
X7882009Y-15009386D01*
X7901057Y-14999862D01*
X7996295Y-14952243D02*
X7996295Y-15152243D01*
X7996295Y-14961767D02*
X8015343Y-14952243D01*
X8053438Y-14952243D01*
X8072486Y-14961767D01*
X8082009Y-14971290D01*
X8091533Y-14990338D01*
X8091533Y-15047481D01*
X8082009Y-15066528D01*
X8072486Y-15076052D01*
X8053438Y-15085576D01*
X8015343Y-15085576D01*
X7996295Y-15076052D01*
X8177248Y-15066528D02*
X8186771Y-15076052D01*
X8177248Y-15085576D01*
X8167724Y-15076052D01*
X8177248Y-15066528D01*
X8177248Y-15085576D01*
X8177248Y-14961767D02*
X8186771Y-14971290D01*
X8177248Y-14980814D01*
X8167724Y-14971290D01*
X8177248Y-14961767D01*
X8177248Y-14980814D01*
D12*
X6508200Y-15395100D02*
X6548200Y-15435100D01*
X6548200Y-15395100D02*
X6508200Y-15435100D01*
D11*
X6843914Y-15305576D02*
X6862962Y-15305576D01*
X6882009Y-15315100D01*
X6891533Y-15324624D01*
X6901057Y-15343671D01*
X6910581Y-15381767D01*
X6910581Y-15429386D01*
X6901057Y-15467481D01*
X6891533Y-15486528D01*
X6882009Y-15496052D01*
X6862962Y-15505576D01*
X6843914Y-15505576D01*
X6824867Y-15496052D01*
X6815343Y-15486528D01*
X6805819Y-15467481D01*
X6796295Y-15429386D01*
X6796295Y-15381767D01*
X6805819Y-15343671D01*
X6815343Y-15324624D01*
X6824867Y-15315100D01*
X6843914Y-15305576D01*
X6996295Y-15486528D02*
X7005819Y-15496052D01*
X6996295Y-15505576D01*
X6986771Y-15496052D01*
X6996295Y-15486528D01*
X6996295Y-15505576D01*
X7177248Y-15372243D02*
X7177248Y-15505576D01*
X7129628Y-15296052D02*
X7082009Y-15438909D01*
X7205819Y-15438909D01*
X7320105Y-15305576D02*
X7339152Y-15305576D01*
X7358200Y-15315100D01*
X7367724Y-15324624D01*
X7377248Y-15343671D01*
X7386771Y-15381767D01*
X7386771Y-15429386D01*
X7377248Y-15467481D01*
X7367724Y-15486528D01*
X7358200Y-15496052D01*
X7339152Y-15505576D01*
X7320105Y-15505576D01*
X7301057Y-15496052D01*
X7291533Y-15486528D01*
X7282009Y-15467481D01*
X7272486Y-15429386D01*
X7272486Y-15381767D01*
X7282009Y-15343671D01*
X7291533Y-15324624D01*
X7301057Y-15315100D01*
X7320105Y-15305576D01*
X7510581Y-15305576D02*
X7529628Y-15305576D01*
X7548676Y-15315100D01*
X7558200Y-15324624D01*
X7567724Y-15343671D01*
X7577248Y-15381767D01*
X7577248Y-15429386D01*
X7567724Y-15467481D01*
X7558200Y-15486528D01*
X7548676Y-15496052D01*
X7529628Y-15505576D01*
X7510581Y-15505576D01*
X7491533Y-15496052D01*
X7482009Y-15486528D01*
X7472486Y-15467481D01*
X7462962Y-15429386D01*
X7462962Y-15381767D01*
X7472486Y-15343671D01*
X7482009Y-15324624D01*
X7491533Y-15315100D01*
X7510581Y-15305576D01*
X7662962Y-15505576D02*
X7662962Y-15372243D01*
X7662962Y-15391290D02*
X7672486Y-15381767D01*
X7691533Y-15372243D01*
X7720105Y-15372243D01*
X7739152Y-15381767D01*
X7748676Y-15400814D01*
X7748676Y-15505576D01*
X7748676Y-15400814D02*
X7758200Y-15381767D01*
X7777248Y-15372243D01*
X7805819Y-15372243D01*
X7824867Y-15381767D01*
X7834390Y-15400814D01*
X7834390Y-15505576D01*
X7929628Y-15505576D02*
X7929628Y-15372243D01*
X7929628Y-15391290D02*
X7939152Y-15381767D01*
X7958200Y-15372243D01*
X7986771Y-15372243D01*
X8005819Y-15381767D01*
X8015343Y-15400814D01*
X8015343Y-15505576D01*
X8015343Y-15400814D02*
X8024867Y-15381767D01*
X8043914Y-15372243D01*
X8072486Y-15372243D01*
X8091533Y-15381767D01*
X8101057Y-15400814D01*
X8101057Y-15505576D01*
X8491533Y-15296052D02*
X8320105Y-15553195D01*
X8748676Y-15305576D02*
X8767724Y-15305576D01*
X8786771Y-15315100D01*
X8796295Y-15324624D01*
X8805819Y-15343671D01*
X8815343Y-15381767D01*
X8815343Y-15429386D01*
X8805819Y-15467481D01*
X8796295Y-15486528D01*
X8786771Y-15496052D01*
X8767724Y-15505576D01*
X8748676Y-15505576D01*
X8729629Y-15496052D01*
X8720105Y-15486528D01*
X8710581Y-15467481D01*
X8701057Y-15429386D01*
X8701057Y-15381767D01*
X8710581Y-15343671D01*
X8720105Y-15324624D01*
X8729629Y-15315100D01*
X8748676Y-15305576D01*
X8901057Y-15486528D02*
X8910581Y-15496052D01*
X8901057Y-15505576D01*
X8891533Y-15496052D01*
X8901057Y-15486528D01*
X8901057Y-15505576D01*
X9034390Y-15305576D02*
X9053438Y-15305576D01*
X9072486Y-15315100D01*
X9082010Y-15324624D01*
X9091533Y-15343671D01*
X9101057Y-15381767D01*
X9101057Y-15429386D01*
X9091533Y-15467481D01*
X9082010Y-15486528D01*
X9072486Y-15496052D01*
X9053438Y-15505576D01*
X9034390Y-15505576D01*
X9015343Y-15496052D01*
X9005819Y-15486528D01*
X8996295Y-15467481D01*
X8986771Y-15429386D01*
X8986771Y-15381767D01*
X8996295Y-15343671D01*
X9005819Y-15324624D01*
X9015343Y-15315100D01*
X9034390Y-15305576D01*
X9291533Y-15505576D02*
X9177248Y-15505576D01*
X9234390Y-15505576D02*
X9234390Y-15305576D01*
X9215343Y-15334148D01*
X9196295Y-15353195D01*
X9177248Y-15362719D01*
X9472486Y-15305576D02*
X9377248Y-15305576D01*
X9367724Y-15400814D01*
X9377248Y-15391290D01*
X9396295Y-15381767D01*
X9443914Y-15381767D01*
X9462962Y-15391290D01*
X9472486Y-15400814D01*
X9482010Y-15419862D01*
X9482010Y-15467481D01*
X9472486Y-15486528D01*
X9462962Y-15496052D01*
X9443914Y-15505576D01*
X9396295Y-15505576D01*
X9377248Y-15496052D01*
X9367724Y-15486528D01*
X9548676Y-15305576D02*
X9682010Y-15305576D01*
X9596295Y-15505576D01*
X9748676Y-15305576D02*
X9748676Y-15343671D01*
X9824867Y-15305576D02*
X9824867Y-15343671D01*
X10120105Y-15581767D02*
X10110581Y-15572243D01*
X10091533Y-15543671D01*
X10082010Y-15524624D01*
X10072486Y-15496052D01*
X10062962Y-15448433D01*
X10062962Y-15410338D01*
X10072486Y-15362719D01*
X10082010Y-15334148D01*
X10091533Y-15315100D01*
X10110581Y-15286528D01*
X10120105Y-15277005D01*
X10186771Y-15324624D02*
X10196295Y-15315100D01*
X10215343Y-15305576D01*
X10262962Y-15305576D01*
X10282010Y-15315100D01*
X10291533Y-15324624D01*
X10301057Y-15343671D01*
X10301057Y-15362719D01*
X10291533Y-15391290D01*
X10177248Y-15505576D01*
X10301057Y-15505576D01*
X10539152Y-15505576D02*
X10539152Y-15305576D01*
X10624867Y-15505576D02*
X10624867Y-15400814D01*
X10615343Y-15381767D01*
X10596295Y-15372243D01*
X10567724Y-15372243D01*
X10548676Y-15381767D01*
X10539152Y-15391290D01*
X10748676Y-15505576D02*
X10729629Y-15496052D01*
X10720105Y-15486528D01*
X10710581Y-15467481D01*
X10710581Y-15410338D01*
X10720105Y-15391290D01*
X10729629Y-15381767D01*
X10748676Y-15372243D01*
X10777248Y-15372243D01*
X10796295Y-15381767D01*
X10805819Y-15391290D01*
X10815343Y-15410338D01*
X10815343Y-15467481D01*
X10805819Y-15486528D01*
X10796295Y-15496052D01*
X10777248Y-15505576D01*
X10748676Y-15505576D01*
X10929629Y-15505576D02*
X10910581Y-15496052D01*
X10901057Y-15477005D01*
X10901057Y-15305576D01*
X11082010Y-15496052D02*
X11062962Y-15505576D01*
X11024867Y-15505576D01*
X11005819Y-15496052D01*
X10996295Y-15477005D01*
X10996295Y-15400814D01*
X11005819Y-15381767D01*
X11024867Y-15372243D01*
X11062962Y-15372243D01*
X11082010Y-15381767D01*
X11091533Y-15400814D01*
X11091533Y-15419862D01*
X10996295Y-15438909D01*
X11167724Y-15496052D02*
X11186771Y-15505576D01*
X11224867Y-15505576D01*
X11243914Y-15496052D01*
X11253438Y-15477005D01*
X11253438Y-15467481D01*
X11243914Y-15448433D01*
X11224867Y-15438909D01*
X11196295Y-15438909D01*
X11177248Y-15429386D01*
X11167724Y-15410338D01*
X11167724Y-15400814D01*
X11177248Y-15381767D01*
X11196295Y-15372243D01*
X11224867Y-15372243D01*
X11243914Y-15381767D01*
X11320105Y-15581767D02*
X11329628Y-15572243D01*
X11348676Y-15543671D01*
X11358200Y-15524624D01*
X11367724Y-15496052D01*
X11377248Y-15448433D01*
X11377248Y-15410338D01*
X11367724Y-15362719D01*
X11358200Y-15334148D01*
X11348676Y-15315100D01*
X11329628Y-15286528D01*
X11320105Y-15277005D01*
D13*
X6548200Y-15679100D02*
G75*
G03*
X6548200Y-15679100I-37500J0D01*
G01*
D11*
X6843914Y-15569576D02*
X6862962Y-15569576D01*
X6882009Y-15579100D01*
X6891533Y-15588624D01*
X6901057Y-15607671D01*
X6910581Y-15645767D01*
X6910581Y-15693386D01*
X6901057Y-15731481D01*
X6891533Y-15750528D01*
X6882009Y-15760052D01*
X6862962Y-15769576D01*
X6843914Y-15769576D01*
X6824867Y-15760052D01*
X6815343Y-15750528D01*
X6805819Y-15731481D01*
X6796295Y-15693386D01*
X6796295Y-15645767D01*
X6805819Y-15607671D01*
X6815343Y-15588624D01*
X6824867Y-15579100D01*
X6843914Y-15569576D01*
X6996295Y-15750528D02*
X7005819Y-15760052D01*
X6996295Y-15769576D01*
X6986771Y-15760052D01*
X6996295Y-15750528D01*
X6996295Y-15769576D01*
X7072486Y-15569576D02*
X7205819Y-15569576D01*
X7120105Y-15769576D01*
X7377248Y-15569576D02*
X7282009Y-15569576D01*
X7272486Y-15664814D01*
X7282009Y-15655290D01*
X7301057Y-15645767D01*
X7348676Y-15645767D01*
X7367724Y-15655290D01*
X7377248Y-15664814D01*
X7386771Y-15683862D01*
X7386771Y-15731481D01*
X7377248Y-15750528D01*
X7367724Y-15760052D01*
X7348676Y-15769576D01*
X7301057Y-15769576D01*
X7282009Y-15760052D01*
X7272486Y-15750528D01*
X7510581Y-15569576D02*
X7529628Y-15569576D01*
X7548676Y-15579100D01*
X7558200Y-15588624D01*
X7567724Y-15607671D01*
X7577248Y-15645767D01*
X7577248Y-15693386D01*
X7567724Y-15731481D01*
X7558200Y-15750528D01*
X7548676Y-15760052D01*
X7529628Y-15769576D01*
X7510581Y-15769576D01*
X7491533Y-15760052D01*
X7482009Y-15750528D01*
X7472486Y-15731481D01*
X7462962Y-15693386D01*
X7462962Y-15645767D01*
X7472486Y-15607671D01*
X7482009Y-15588624D01*
X7491533Y-15579100D01*
X7510581Y-15569576D01*
X7662962Y-15769576D02*
X7662962Y-15636243D01*
X7662962Y-15655290D02*
X7672486Y-15645767D01*
X7691533Y-15636243D01*
X7720105Y-15636243D01*
X7739152Y-15645767D01*
X7748676Y-15664814D01*
X7748676Y-15769576D01*
X7748676Y-15664814D02*
X7758200Y-15645767D01*
X7777248Y-15636243D01*
X7805819Y-15636243D01*
X7824867Y-15645767D01*
X7834390Y-15664814D01*
X7834390Y-15769576D01*
X7929628Y-15769576D02*
X7929628Y-15636243D01*
X7929628Y-15655290D02*
X7939152Y-15645767D01*
X7958200Y-15636243D01*
X7986771Y-15636243D01*
X8005819Y-15645767D01*
X8015343Y-15664814D01*
X8015343Y-15769576D01*
X8015343Y-15664814D02*
X8024867Y-15645767D01*
X8043914Y-15636243D01*
X8072486Y-15636243D01*
X8091533Y-15645767D01*
X8101057Y-15664814D01*
X8101057Y-15769576D01*
X8491533Y-15560052D02*
X8320105Y-15817195D01*
X8748676Y-15569576D02*
X8767724Y-15569576D01*
X8786771Y-15579100D01*
X8796295Y-15588624D01*
X8805819Y-15607671D01*
X8815343Y-15645767D01*
X8815343Y-15693386D01*
X8805819Y-15731481D01*
X8796295Y-15750528D01*
X8786771Y-15760052D01*
X8767724Y-15769576D01*
X8748676Y-15769576D01*
X8729629Y-15760052D01*
X8720105Y-15750528D01*
X8710581Y-15731481D01*
X8701057Y-15693386D01*
X8701057Y-15645767D01*
X8710581Y-15607671D01*
X8720105Y-15588624D01*
X8729629Y-15579100D01*
X8748676Y-15569576D01*
X8901057Y-15750528D02*
X8910581Y-15760052D01*
X8901057Y-15769576D01*
X8891533Y-15760052D01*
X8901057Y-15750528D01*
X8901057Y-15769576D01*
X9034390Y-15569576D02*
X9053438Y-15569576D01*
X9072486Y-15579100D01*
X9082010Y-15588624D01*
X9091533Y-15607671D01*
X9101057Y-15645767D01*
X9101057Y-15693386D01*
X9091533Y-15731481D01*
X9082010Y-15750528D01*
X9072486Y-15760052D01*
X9053438Y-15769576D01*
X9034390Y-15769576D01*
X9015343Y-15760052D01*
X9005819Y-15750528D01*
X8996295Y-15731481D01*
X8986771Y-15693386D01*
X8986771Y-15645767D01*
X8996295Y-15607671D01*
X9005819Y-15588624D01*
X9015343Y-15579100D01*
X9034390Y-15569576D01*
X9177248Y-15588624D02*
X9186771Y-15579100D01*
X9205819Y-15569576D01*
X9253438Y-15569576D01*
X9272486Y-15579100D01*
X9282010Y-15588624D01*
X9291533Y-15607671D01*
X9291533Y-15626719D01*
X9282010Y-15655290D01*
X9167724Y-15769576D01*
X9291533Y-15769576D01*
X9386771Y-15769576D02*
X9424867Y-15769576D01*
X9443914Y-15760052D01*
X9453438Y-15750528D01*
X9472486Y-15721957D01*
X9482010Y-15683862D01*
X9482010Y-15607671D01*
X9472486Y-15588624D01*
X9462962Y-15579100D01*
X9443914Y-15569576D01*
X9405819Y-15569576D01*
X9386771Y-15579100D01*
X9377248Y-15588624D01*
X9367724Y-15607671D01*
X9367724Y-15655290D01*
X9377248Y-15674338D01*
X9386771Y-15683862D01*
X9405819Y-15693386D01*
X9443914Y-15693386D01*
X9462962Y-15683862D01*
X9472486Y-15674338D01*
X9482010Y-15655290D01*
X9662962Y-15569576D02*
X9567724Y-15569576D01*
X9558200Y-15664814D01*
X9567724Y-15655290D01*
X9586771Y-15645767D01*
X9634390Y-15645767D01*
X9653438Y-15655290D01*
X9662962Y-15664814D01*
X9672486Y-15683862D01*
X9672486Y-15731481D01*
X9662962Y-15750528D01*
X9653438Y-15760052D01*
X9634390Y-15769576D01*
X9586771Y-15769576D01*
X9567724Y-15760052D01*
X9558200Y-15750528D01*
X9748676Y-15569576D02*
X9748676Y-15607671D01*
X9824867Y-15569576D02*
X9824867Y-15607671D01*
X10120105Y-15845767D02*
X10110581Y-15836243D01*
X10091533Y-15807671D01*
X10082010Y-15788624D01*
X10072486Y-15760052D01*
X10062962Y-15712433D01*
X10062962Y-15674338D01*
X10072486Y-15626719D01*
X10082010Y-15598148D01*
X10091533Y-15579100D01*
X10110581Y-15550528D01*
X10120105Y-15541005D01*
X10282010Y-15569576D02*
X10243914Y-15569576D01*
X10224867Y-15579100D01*
X10215343Y-15588624D01*
X10196295Y-15617195D01*
X10186771Y-15655290D01*
X10186771Y-15731481D01*
X10196295Y-15750528D01*
X10205819Y-15760052D01*
X10224867Y-15769576D01*
X10262962Y-15769576D01*
X10282010Y-15760052D01*
X10291533Y-15750528D01*
X10301057Y-15731481D01*
X10301057Y-15683862D01*
X10291533Y-15664814D01*
X10282010Y-15655290D01*
X10262962Y-15645767D01*
X10224867Y-15645767D01*
X10205819Y-15655290D01*
X10196295Y-15664814D01*
X10186771Y-15683862D01*
X10539152Y-15769576D02*
X10539152Y-15569576D01*
X10624867Y-15769576D02*
X10624867Y-15664814D01*
X10615343Y-15645767D01*
X10596295Y-15636243D01*
X10567724Y-15636243D01*
X10548676Y-15645767D01*
X10539152Y-15655290D01*
X10748676Y-15769576D02*
X10729629Y-15760052D01*
X10720105Y-15750528D01*
X10710581Y-15731481D01*
X10710581Y-15674338D01*
X10720105Y-15655290D01*
X10729629Y-15645767D01*
X10748676Y-15636243D01*
X10777248Y-15636243D01*
X10796295Y-15645767D01*
X10805819Y-15655290D01*
X10815343Y-15674338D01*
X10815343Y-15731481D01*
X10805819Y-15750528D01*
X10796295Y-15760052D01*
X10777248Y-15769576D01*
X10748676Y-15769576D01*
X10929629Y-15769576D02*
X10910581Y-15760052D01*
X10901057Y-15741005D01*
X10901057Y-15569576D01*
X11082010Y-15760052D02*
X11062962Y-15769576D01*
X11024867Y-15769576D01*
X11005819Y-15760052D01*
X10996295Y-15741005D01*
X10996295Y-15664814D01*
X11005819Y-15645767D01*
X11024867Y-15636243D01*
X11062962Y-15636243D01*
X11082010Y-15645767D01*
X11091533Y-15664814D01*
X11091533Y-15683862D01*
X10996295Y-15702909D01*
X11167724Y-15760052D02*
X11186771Y-15769576D01*
X11224867Y-15769576D01*
X11243914Y-15760052D01*
X11253438Y-15741005D01*
X11253438Y-15731481D01*
X11243914Y-15712433D01*
X11224867Y-15702909D01*
X11196295Y-15702909D01*
X11177248Y-15693386D01*
X11167724Y-15674338D01*
X11167724Y-15664814D01*
X11177248Y-15645767D01*
X11196295Y-15636243D01*
X11224867Y-15636243D01*
X11243914Y-15645767D01*
X11320105Y-15845767D02*
X11329628Y-15836243D01*
X11348676Y-15807671D01*
X11358200Y-15788624D01*
X11367724Y-15760052D01*
X11377248Y-15712433D01*
X11377248Y-15674338D01*
X11367724Y-15626719D01*
X11358200Y-15598148D01*
X11348676Y-15579100D01*
X11329628Y-15550528D01*
X11320105Y-15541005D01*
D14*
X6508200Y-15903100D02*
X6508200Y-15983100D01*
X6468200Y-15943100D02*
X6548200Y-15943100D01*
D11*
X6843914Y-15833576D02*
X6862962Y-15833576D01*
X6882009Y-15843100D01*
X6891533Y-15852624D01*
X6901057Y-15871671D01*
X6910581Y-15909767D01*
X6910581Y-15957386D01*
X6901057Y-15995481D01*
X6891533Y-16014528D01*
X6882009Y-16024052D01*
X6862962Y-16033576D01*
X6843914Y-16033576D01*
X6824867Y-16024052D01*
X6815343Y-16014528D01*
X6805819Y-15995481D01*
X6796295Y-15957386D01*
X6796295Y-15909767D01*
X6805819Y-15871671D01*
X6815343Y-15852624D01*
X6824867Y-15843100D01*
X6843914Y-15833576D01*
X6996295Y-16014528D02*
X7005819Y-16024052D01*
X6996295Y-16033576D01*
X6986771Y-16024052D01*
X6996295Y-16014528D01*
X6996295Y-16033576D01*
X7120105Y-15919290D02*
X7101057Y-15909767D01*
X7091533Y-15900243D01*
X7082009Y-15881195D01*
X7082009Y-15871671D01*
X7091533Y-15852624D01*
X7101057Y-15843100D01*
X7120105Y-15833576D01*
X7158200Y-15833576D01*
X7177248Y-15843100D01*
X7186771Y-15852624D01*
X7196295Y-15871671D01*
X7196295Y-15881195D01*
X7186771Y-15900243D01*
X7177248Y-15909767D01*
X7158200Y-15919290D01*
X7120105Y-15919290D01*
X7101057Y-15928814D01*
X7091533Y-15938338D01*
X7082009Y-15957386D01*
X7082009Y-15995481D01*
X7091533Y-16014528D01*
X7101057Y-16024052D01*
X7120105Y-16033576D01*
X7158200Y-16033576D01*
X7177248Y-16024052D01*
X7186771Y-16014528D01*
X7196295Y-15995481D01*
X7196295Y-15957386D01*
X7186771Y-15938338D01*
X7177248Y-15928814D01*
X7158200Y-15919290D01*
X7320105Y-15833576D02*
X7339152Y-15833576D01*
X7358200Y-15843100D01*
X7367724Y-15852624D01*
X7377248Y-15871671D01*
X7386771Y-15909767D01*
X7386771Y-15957386D01*
X7377248Y-15995481D01*
X7367724Y-16014528D01*
X7358200Y-16024052D01*
X7339152Y-16033576D01*
X7320105Y-16033576D01*
X7301057Y-16024052D01*
X7291533Y-16014528D01*
X7282009Y-15995481D01*
X7272486Y-15957386D01*
X7272486Y-15909767D01*
X7282009Y-15871671D01*
X7291533Y-15852624D01*
X7301057Y-15843100D01*
X7320105Y-15833576D01*
X7510581Y-15833576D02*
X7529628Y-15833576D01*
X7548676Y-15843100D01*
X7558200Y-15852624D01*
X7567724Y-15871671D01*
X7577248Y-15909767D01*
X7577248Y-15957386D01*
X7567724Y-15995481D01*
X7558200Y-16014528D01*
X7548676Y-16024052D01*
X7529628Y-16033576D01*
X7510581Y-16033576D01*
X7491533Y-16024052D01*
X7482009Y-16014528D01*
X7472486Y-15995481D01*
X7462962Y-15957386D01*
X7462962Y-15909767D01*
X7472486Y-15871671D01*
X7482009Y-15852624D01*
X7491533Y-15843100D01*
X7510581Y-15833576D01*
X7662962Y-16033576D02*
X7662962Y-15900243D01*
X7662962Y-15919290D02*
X7672486Y-15909767D01*
X7691533Y-15900243D01*
X7720105Y-15900243D01*
X7739152Y-15909767D01*
X7748676Y-15928814D01*
X7748676Y-16033576D01*
X7748676Y-15928814D02*
X7758200Y-15909767D01*
X7777248Y-15900243D01*
X7805819Y-15900243D01*
X7824867Y-15909767D01*
X7834390Y-15928814D01*
X7834390Y-16033576D01*
X7929628Y-16033576D02*
X7929628Y-15900243D01*
X7929628Y-15919290D02*
X7939152Y-15909767D01*
X7958200Y-15900243D01*
X7986771Y-15900243D01*
X8005819Y-15909767D01*
X8015343Y-15928814D01*
X8015343Y-16033576D01*
X8015343Y-15928814D02*
X8024867Y-15909767D01*
X8043914Y-15900243D01*
X8072486Y-15900243D01*
X8091533Y-15909767D01*
X8101057Y-15928814D01*
X8101057Y-16033576D01*
X8491533Y-15824052D02*
X8320105Y-16081195D01*
X8748676Y-15833576D02*
X8767724Y-15833576D01*
X8786771Y-15843100D01*
X8796295Y-15852624D01*
X8805819Y-15871671D01*
X8815343Y-15909767D01*
X8815343Y-15957386D01*
X8805819Y-15995481D01*
X8796295Y-16014528D01*
X8786771Y-16024052D01*
X8767724Y-16033576D01*
X8748676Y-16033576D01*
X8729629Y-16024052D01*
X8720105Y-16014528D01*
X8710581Y-15995481D01*
X8701057Y-15957386D01*
X8701057Y-15909767D01*
X8710581Y-15871671D01*
X8720105Y-15852624D01*
X8729629Y-15843100D01*
X8748676Y-15833576D01*
X8901057Y-16014528D02*
X8910581Y-16024052D01*
X8901057Y-16033576D01*
X8891533Y-16024052D01*
X8901057Y-16014528D01*
X8901057Y-16033576D01*
X9034390Y-15833576D02*
X9053438Y-15833576D01*
X9072486Y-15843100D01*
X9082010Y-15852624D01*
X9091533Y-15871671D01*
X9101057Y-15909767D01*
X9101057Y-15957386D01*
X9091533Y-15995481D01*
X9082010Y-16014528D01*
X9072486Y-16024052D01*
X9053438Y-16033576D01*
X9034390Y-16033576D01*
X9015343Y-16024052D01*
X9005819Y-16014528D01*
X8996295Y-15995481D01*
X8986771Y-15957386D01*
X8986771Y-15909767D01*
X8996295Y-15871671D01*
X9005819Y-15852624D01*
X9015343Y-15843100D01*
X9034390Y-15833576D01*
X9167724Y-15833576D02*
X9291533Y-15833576D01*
X9224867Y-15909767D01*
X9253438Y-15909767D01*
X9272486Y-15919290D01*
X9282010Y-15928814D01*
X9291533Y-15947862D01*
X9291533Y-15995481D01*
X9282010Y-16014528D01*
X9272486Y-16024052D01*
X9253438Y-16033576D01*
X9196295Y-16033576D01*
X9177248Y-16024052D01*
X9167724Y-16014528D01*
X9482010Y-16033576D02*
X9367724Y-16033576D01*
X9424867Y-16033576D02*
X9424867Y-15833576D01*
X9405819Y-15862148D01*
X9386771Y-15881195D01*
X9367724Y-15890719D01*
X9662962Y-15833576D02*
X9567724Y-15833576D01*
X9558200Y-15928814D01*
X9567724Y-15919290D01*
X9586771Y-15909767D01*
X9634390Y-15909767D01*
X9653438Y-15919290D01*
X9662962Y-15928814D01*
X9672486Y-15947862D01*
X9672486Y-15995481D01*
X9662962Y-16014528D01*
X9653438Y-16024052D01*
X9634390Y-16033576D01*
X9586771Y-16033576D01*
X9567724Y-16024052D01*
X9558200Y-16014528D01*
X9748676Y-15833576D02*
X9748676Y-15871671D01*
X9824867Y-15833576D02*
X9824867Y-15871671D01*
X10120105Y-16109767D02*
X10110581Y-16100243D01*
X10091533Y-16071671D01*
X10082010Y-16052624D01*
X10072486Y-16024052D01*
X10062962Y-15976433D01*
X10062962Y-15938338D01*
X10072486Y-15890719D01*
X10082010Y-15862148D01*
X10091533Y-15843100D01*
X10110581Y-15814528D01*
X10120105Y-15805005D01*
X10282010Y-15833576D02*
X10243914Y-15833576D01*
X10224867Y-15843100D01*
X10215343Y-15852624D01*
X10196295Y-15881195D01*
X10186771Y-15919290D01*
X10186771Y-15995481D01*
X10196295Y-16014528D01*
X10205819Y-16024052D01*
X10224867Y-16033576D01*
X10262962Y-16033576D01*
X10282010Y-16024052D01*
X10291533Y-16014528D01*
X10301057Y-15995481D01*
X10301057Y-15947862D01*
X10291533Y-15928814D01*
X10282010Y-15919290D01*
X10262962Y-15909767D01*
X10224867Y-15909767D01*
X10205819Y-15919290D01*
X10196295Y-15928814D01*
X10186771Y-15947862D01*
X10472486Y-15833576D02*
X10434390Y-15833576D01*
X10415343Y-15843100D01*
X10405819Y-15852624D01*
X10386771Y-15881195D01*
X10377248Y-15919290D01*
X10377248Y-15995481D01*
X10386771Y-16014528D01*
X10396295Y-16024052D01*
X10415343Y-16033576D01*
X10453438Y-16033576D01*
X10472486Y-16024052D01*
X10482010Y-16014528D01*
X10491533Y-15995481D01*
X10491533Y-15947862D01*
X10482010Y-15928814D01*
X10472486Y-15919290D01*
X10453438Y-15909767D01*
X10415343Y-15909767D01*
X10396295Y-15919290D01*
X10386771Y-15928814D01*
X10377248Y-15947862D01*
X10729629Y-16033576D02*
X10729629Y-15833576D01*
X10815343Y-16033576D02*
X10815343Y-15928814D01*
X10805819Y-15909767D01*
X10786771Y-15900243D01*
X10758200Y-15900243D01*
X10739152Y-15909767D01*
X10729629Y-15919290D01*
X10939152Y-16033576D02*
X10920105Y-16024052D01*
X10910581Y-16014528D01*
X10901057Y-15995481D01*
X10901057Y-15938338D01*
X10910581Y-15919290D01*
X10920105Y-15909767D01*
X10939152Y-15900243D01*
X10967724Y-15900243D01*
X10986771Y-15909767D01*
X10996295Y-15919290D01*
X11005819Y-15938338D01*
X11005819Y-15995481D01*
X10996295Y-16014528D01*
X10986771Y-16024052D01*
X10967724Y-16033576D01*
X10939152Y-16033576D01*
X11120105Y-16033576D02*
X11101057Y-16024052D01*
X11091533Y-16005005D01*
X11091533Y-15833576D01*
X11272486Y-16024052D02*
X11253438Y-16033576D01*
X11215343Y-16033576D01*
X11196295Y-16024052D01*
X11186771Y-16005005D01*
X11186771Y-15928814D01*
X11196295Y-15909767D01*
X11215343Y-15900243D01*
X11253438Y-15900243D01*
X11272486Y-15909767D01*
X11282009Y-15928814D01*
X11282009Y-15947862D01*
X11186771Y-15966909D01*
X11358200Y-16024052D02*
X11377248Y-16033576D01*
X11415343Y-16033576D01*
X11434390Y-16024052D01*
X11443914Y-16005005D01*
X11443914Y-15995481D01*
X11434390Y-15976433D01*
X11415343Y-15966909D01*
X11386771Y-15966909D01*
X11367724Y-15957386D01*
X11358200Y-15938338D01*
X11358200Y-15928814D01*
X11367724Y-15909767D01*
X11386771Y-15900243D01*
X11415343Y-15900243D01*
X11434390Y-15909767D01*
X11510581Y-16109767D02*
X11520105Y-16100243D01*
X11539152Y-16071671D01*
X11548676Y-16052624D01*
X11558200Y-16024052D01*
X11567724Y-15976433D01*
X11567724Y-15938338D01*
X11558200Y-15890719D01*
X11548676Y-15862148D01*
X11539152Y-15843100D01*
X11520105Y-15814528D01*
X11510581Y-15805005D01*
D15*
X6534727Y-16239627D02*
X6534727Y-16174573D01*
X6469673Y-16174573D01*
X6469673Y-16239627D01*
X6534727Y-16239627D01*
D11*
X6843914Y-16097576D02*
X6862962Y-16097576D01*
X6882009Y-16107100D01*
X6891533Y-16116624D01*
X6901057Y-16135671D01*
X6910581Y-16173767D01*
X6910581Y-16221386D01*
X6901057Y-16259481D01*
X6891533Y-16278528D01*
X6882009Y-16288052D01*
X6862962Y-16297576D01*
X6843914Y-16297576D01*
X6824867Y-16288052D01*
X6815343Y-16278528D01*
X6805819Y-16259481D01*
X6796295Y-16221386D01*
X6796295Y-16173767D01*
X6805819Y-16135671D01*
X6815343Y-16116624D01*
X6824867Y-16107100D01*
X6843914Y-16097576D01*
X6996295Y-16278528D02*
X7005819Y-16288052D01*
X6996295Y-16297576D01*
X6986771Y-16288052D01*
X6996295Y-16278528D01*
X6996295Y-16297576D01*
X7101057Y-16297576D02*
X7139152Y-16297576D01*
X7158200Y-16288052D01*
X7167724Y-16278528D01*
X7186771Y-16249957D01*
X7196295Y-16211862D01*
X7196295Y-16135671D01*
X7186771Y-16116624D01*
X7177248Y-16107100D01*
X7158200Y-16097576D01*
X7120105Y-16097576D01*
X7101057Y-16107100D01*
X7091533Y-16116624D01*
X7082009Y-16135671D01*
X7082009Y-16183290D01*
X7091533Y-16202338D01*
X7101057Y-16211862D01*
X7120105Y-16221386D01*
X7158200Y-16221386D01*
X7177248Y-16211862D01*
X7186771Y-16202338D01*
X7196295Y-16183290D01*
X7272486Y-16116624D02*
X7282009Y-16107100D01*
X7301057Y-16097576D01*
X7348676Y-16097576D01*
X7367724Y-16107100D01*
X7377248Y-16116624D01*
X7386771Y-16135671D01*
X7386771Y-16154719D01*
X7377248Y-16183290D01*
X7262962Y-16297576D01*
X7386771Y-16297576D01*
X7510581Y-16097576D02*
X7529628Y-16097576D01*
X7548676Y-16107100D01*
X7558200Y-16116624D01*
X7567724Y-16135671D01*
X7577248Y-16173767D01*
X7577248Y-16221386D01*
X7567724Y-16259481D01*
X7558200Y-16278528D01*
X7548676Y-16288052D01*
X7529628Y-16297576D01*
X7510581Y-16297576D01*
X7491533Y-16288052D01*
X7482009Y-16278528D01*
X7472486Y-16259481D01*
X7462962Y-16221386D01*
X7462962Y-16173767D01*
X7472486Y-16135671D01*
X7482009Y-16116624D01*
X7491533Y-16107100D01*
X7510581Y-16097576D01*
X7662962Y-16297576D02*
X7662962Y-16164243D01*
X7662962Y-16183290D02*
X7672486Y-16173767D01*
X7691533Y-16164243D01*
X7720105Y-16164243D01*
X7739152Y-16173767D01*
X7748676Y-16192814D01*
X7748676Y-16297576D01*
X7748676Y-16192814D02*
X7758200Y-16173767D01*
X7777248Y-16164243D01*
X7805819Y-16164243D01*
X7824867Y-16173767D01*
X7834390Y-16192814D01*
X7834390Y-16297576D01*
X7929628Y-16297576D02*
X7929628Y-16164243D01*
X7929628Y-16183290D02*
X7939152Y-16173767D01*
X7958200Y-16164243D01*
X7986771Y-16164243D01*
X8005819Y-16173767D01*
X8015343Y-16192814D01*
X8015343Y-16297576D01*
X8015343Y-16192814D02*
X8024867Y-16173767D01*
X8043914Y-16164243D01*
X8072486Y-16164243D01*
X8091533Y-16173767D01*
X8101057Y-16192814D01*
X8101057Y-16297576D01*
X8491533Y-16088052D02*
X8320105Y-16345195D01*
X8748676Y-16097576D02*
X8767724Y-16097576D01*
X8786771Y-16107100D01*
X8796295Y-16116624D01*
X8805819Y-16135671D01*
X8815343Y-16173767D01*
X8815343Y-16221386D01*
X8805819Y-16259481D01*
X8796295Y-16278528D01*
X8786771Y-16288052D01*
X8767724Y-16297576D01*
X8748676Y-16297576D01*
X8729629Y-16288052D01*
X8720105Y-16278528D01*
X8710581Y-16259481D01*
X8701057Y-16221386D01*
X8701057Y-16173767D01*
X8710581Y-16135671D01*
X8720105Y-16116624D01*
X8729629Y-16107100D01*
X8748676Y-16097576D01*
X8901057Y-16278528D02*
X8910581Y-16288052D01*
X8901057Y-16297576D01*
X8891533Y-16288052D01*
X8901057Y-16278528D01*
X8901057Y-16297576D01*
X9034390Y-16097576D02*
X9053438Y-16097576D01*
X9072486Y-16107100D01*
X9082010Y-16116624D01*
X9091533Y-16135671D01*
X9101057Y-16173767D01*
X9101057Y-16221386D01*
X9091533Y-16259481D01*
X9082010Y-16278528D01*
X9072486Y-16288052D01*
X9053438Y-16297576D01*
X9034390Y-16297576D01*
X9015343Y-16288052D01*
X9005819Y-16278528D01*
X8996295Y-16259481D01*
X8986771Y-16221386D01*
X8986771Y-16173767D01*
X8996295Y-16135671D01*
X9005819Y-16116624D01*
X9015343Y-16107100D01*
X9034390Y-16097576D01*
X9167724Y-16097576D02*
X9291533Y-16097576D01*
X9224867Y-16173767D01*
X9253438Y-16173767D01*
X9272486Y-16183290D01*
X9282010Y-16192814D01*
X9291533Y-16211862D01*
X9291533Y-16259481D01*
X9282010Y-16278528D01*
X9272486Y-16288052D01*
X9253438Y-16297576D01*
X9196295Y-16297576D01*
X9177248Y-16288052D01*
X9167724Y-16278528D01*
X9462962Y-16097576D02*
X9424867Y-16097576D01*
X9405819Y-16107100D01*
X9396295Y-16116624D01*
X9377248Y-16145195D01*
X9367724Y-16183290D01*
X9367724Y-16259481D01*
X9377248Y-16278528D01*
X9386771Y-16288052D01*
X9405819Y-16297576D01*
X9443914Y-16297576D01*
X9462962Y-16288052D01*
X9472486Y-16278528D01*
X9482010Y-16259481D01*
X9482010Y-16211862D01*
X9472486Y-16192814D01*
X9462962Y-16183290D01*
X9443914Y-16173767D01*
X9405819Y-16173767D01*
X9386771Y-16183290D01*
X9377248Y-16192814D01*
X9367724Y-16211862D01*
X9558200Y-16116624D02*
X9567724Y-16107100D01*
X9586771Y-16097576D01*
X9634390Y-16097576D01*
X9653438Y-16107100D01*
X9662962Y-16116624D01*
X9672486Y-16135671D01*
X9672486Y-16154719D01*
X9662962Y-16183290D01*
X9548676Y-16297576D01*
X9672486Y-16297576D01*
X9748676Y-16097576D02*
X9748676Y-16135671D01*
X9824867Y-16097576D02*
X9824867Y-16135671D01*
X10120105Y-16373767D02*
X10110581Y-16364243D01*
X10091533Y-16335671D01*
X10082010Y-16316624D01*
X10072486Y-16288052D01*
X10062962Y-16240433D01*
X10062962Y-16202338D01*
X10072486Y-16154719D01*
X10082010Y-16126148D01*
X10091533Y-16107100D01*
X10110581Y-16078528D01*
X10120105Y-16069005D01*
X10282010Y-16164243D02*
X10282010Y-16297576D01*
X10234390Y-16088052D02*
X10186771Y-16230909D01*
X10310581Y-16230909D01*
X10539152Y-16297576D02*
X10539152Y-16097576D01*
X10624867Y-16297576D02*
X10624867Y-16192814D01*
X10615343Y-16173767D01*
X10596295Y-16164243D01*
X10567724Y-16164243D01*
X10548676Y-16173767D01*
X10539152Y-16183290D01*
X10748676Y-16297576D02*
X10729629Y-16288052D01*
X10720105Y-16278528D01*
X10710581Y-16259481D01*
X10710581Y-16202338D01*
X10720105Y-16183290D01*
X10729629Y-16173767D01*
X10748676Y-16164243D01*
X10777248Y-16164243D01*
X10796295Y-16173767D01*
X10805819Y-16183290D01*
X10815343Y-16202338D01*
X10815343Y-16259481D01*
X10805819Y-16278528D01*
X10796295Y-16288052D01*
X10777248Y-16297576D01*
X10748676Y-16297576D01*
X10929629Y-16297576D02*
X10910581Y-16288052D01*
X10901057Y-16269005D01*
X10901057Y-16097576D01*
X11082010Y-16288052D02*
X11062962Y-16297576D01*
X11024867Y-16297576D01*
X11005819Y-16288052D01*
X10996295Y-16269005D01*
X10996295Y-16192814D01*
X11005819Y-16173767D01*
X11024867Y-16164243D01*
X11062962Y-16164243D01*
X11082010Y-16173767D01*
X11091533Y-16192814D01*
X11091533Y-16211862D01*
X10996295Y-16230909D01*
X11167724Y-16288052D02*
X11186771Y-16297576D01*
X11224867Y-16297576D01*
X11243914Y-16288052D01*
X11253438Y-16269005D01*
X11253438Y-16259481D01*
X11243914Y-16240433D01*
X11224867Y-16230909D01*
X11196295Y-16230909D01*
X11177248Y-16221386D01*
X11167724Y-16202338D01*
X11167724Y-16192814D01*
X11177248Y-16173767D01*
X11196295Y-16164243D01*
X11224867Y-16164243D01*
X11243914Y-16173767D01*
X11320105Y-16373767D02*
X11329628Y-16364243D01*
X11348676Y-16335671D01*
X11358200Y-16316624D01*
X11367724Y-16288052D01*
X11377248Y-16240433D01*
X11377248Y-16202338D01*
X11367724Y-16154719D01*
X11358200Y-16126148D01*
X11348676Y-16107100D01*
X11329628Y-16078528D01*
X11320105Y-16069005D01*
D16*
X6498200Y-16521100D02*
X6548200Y-16471100D01*
X6498200Y-16421100D01*
X6448200Y-16471100D01*
X6498200Y-16521100D01*
D11*
X6910581Y-16561576D02*
X6796295Y-16561576D01*
X6853438Y-16561576D02*
X6853438Y-16361576D01*
X6834390Y-16390148D01*
X6815343Y-16409195D01*
X6796295Y-16418719D01*
X6996295Y-16542528D02*
X7005819Y-16552052D01*
X6996295Y-16561576D01*
X6986771Y-16552052D01*
X6996295Y-16542528D01*
X6996295Y-16561576D01*
X7129628Y-16361576D02*
X7148676Y-16361576D01*
X7167724Y-16371100D01*
X7177248Y-16380624D01*
X7186771Y-16399671D01*
X7196295Y-16437767D01*
X7196295Y-16485386D01*
X7186771Y-16523481D01*
X7177248Y-16542528D01*
X7167724Y-16552052D01*
X7148676Y-16561576D01*
X7129628Y-16561576D01*
X7110581Y-16552052D01*
X7101057Y-16542528D01*
X7091533Y-16523481D01*
X7082009Y-16485386D01*
X7082009Y-16437767D01*
X7091533Y-16399671D01*
X7101057Y-16380624D01*
X7110581Y-16371100D01*
X7129628Y-16361576D01*
X7320105Y-16361576D02*
X7339152Y-16361576D01*
X7358200Y-16371100D01*
X7367724Y-16380624D01*
X7377248Y-16399671D01*
X7386771Y-16437767D01*
X7386771Y-16485386D01*
X7377248Y-16523481D01*
X7367724Y-16542528D01*
X7358200Y-16552052D01*
X7339152Y-16561576D01*
X7320105Y-16561576D01*
X7301057Y-16552052D01*
X7291533Y-16542528D01*
X7282009Y-16523481D01*
X7272486Y-16485386D01*
X7272486Y-16437767D01*
X7282009Y-16399671D01*
X7291533Y-16380624D01*
X7301057Y-16371100D01*
X7320105Y-16361576D01*
X7510581Y-16361576D02*
X7529628Y-16361576D01*
X7548676Y-16371100D01*
X7558200Y-16380624D01*
X7567724Y-16399671D01*
X7577248Y-16437767D01*
X7577248Y-16485386D01*
X7567724Y-16523481D01*
X7558200Y-16542528D01*
X7548676Y-16552052D01*
X7529628Y-16561576D01*
X7510581Y-16561576D01*
X7491533Y-16552052D01*
X7482009Y-16542528D01*
X7472486Y-16523481D01*
X7462962Y-16485386D01*
X7462962Y-16437767D01*
X7472486Y-16399671D01*
X7482009Y-16380624D01*
X7491533Y-16371100D01*
X7510581Y-16361576D01*
X7662962Y-16561576D02*
X7662962Y-16428243D01*
X7662962Y-16447290D02*
X7672486Y-16437767D01*
X7691533Y-16428243D01*
X7720105Y-16428243D01*
X7739152Y-16437767D01*
X7748676Y-16456814D01*
X7748676Y-16561576D01*
X7748676Y-16456814D02*
X7758200Y-16437767D01*
X7777248Y-16428243D01*
X7805819Y-16428243D01*
X7824867Y-16437767D01*
X7834390Y-16456814D01*
X7834390Y-16561576D01*
X7929628Y-16561576D02*
X7929628Y-16428243D01*
X7929628Y-16447290D02*
X7939152Y-16437767D01*
X7958200Y-16428243D01*
X7986771Y-16428243D01*
X8005819Y-16437767D01*
X8015343Y-16456814D01*
X8015343Y-16561576D01*
X8015343Y-16456814D02*
X8024867Y-16437767D01*
X8043914Y-16428243D01*
X8072486Y-16428243D01*
X8091533Y-16437767D01*
X8101057Y-16456814D01*
X8101057Y-16561576D01*
X8491533Y-16352052D02*
X8320105Y-16609195D01*
X8748676Y-16361576D02*
X8767724Y-16361576D01*
X8786771Y-16371100D01*
X8796295Y-16380624D01*
X8805819Y-16399671D01*
X8815343Y-16437767D01*
X8815343Y-16485386D01*
X8805819Y-16523481D01*
X8796295Y-16542528D01*
X8786771Y-16552052D01*
X8767724Y-16561576D01*
X8748676Y-16561576D01*
X8729629Y-16552052D01*
X8720105Y-16542528D01*
X8710581Y-16523481D01*
X8701057Y-16485386D01*
X8701057Y-16437767D01*
X8710581Y-16399671D01*
X8720105Y-16380624D01*
X8729629Y-16371100D01*
X8748676Y-16361576D01*
X8901057Y-16542528D02*
X8910581Y-16552052D01*
X8901057Y-16561576D01*
X8891533Y-16552052D01*
X8901057Y-16542528D01*
X8901057Y-16561576D01*
X9034390Y-16361576D02*
X9053438Y-16361576D01*
X9072486Y-16371100D01*
X9082010Y-16380624D01*
X9091533Y-16399671D01*
X9101057Y-16437767D01*
X9101057Y-16485386D01*
X9091533Y-16523481D01*
X9082010Y-16542528D01*
X9072486Y-16552052D01*
X9053438Y-16561576D01*
X9034390Y-16561576D01*
X9015343Y-16552052D01*
X9005819Y-16542528D01*
X8996295Y-16523481D01*
X8986771Y-16485386D01*
X8986771Y-16437767D01*
X8996295Y-16399671D01*
X9005819Y-16380624D01*
X9015343Y-16371100D01*
X9034390Y-16361576D01*
X9167724Y-16361576D02*
X9291533Y-16361576D01*
X9224867Y-16437767D01*
X9253438Y-16437767D01*
X9272486Y-16447290D01*
X9282010Y-16456814D01*
X9291533Y-16475862D01*
X9291533Y-16523481D01*
X9282010Y-16542528D01*
X9272486Y-16552052D01*
X9253438Y-16561576D01*
X9196295Y-16561576D01*
X9177248Y-16552052D01*
X9167724Y-16542528D01*
X9386771Y-16561576D02*
X9424867Y-16561576D01*
X9443914Y-16552052D01*
X9453438Y-16542528D01*
X9472486Y-16513957D01*
X9482010Y-16475862D01*
X9482010Y-16399671D01*
X9472486Y-16380624D01*
X9462962Y-16371100D01*
X9443914Y-16361576D01*
X9405819Y-16361576D01*
X9386771Y-16371100D01*
X9377248Y-16380624D01*
X9367724Y-16399671D01*
X9367724Y-16447290D01*
X9377248Y-16466338D01*
X9386771Y-16475862D01*
X9405819Y-16485386D01*
X9443914Y-16485386D01*
X9462962Y-16475862D01*
X9472486Y-16466338D01*
X9482010Y-16447290D01*
X9653438Y-16428243D02*
X9653438Y-16561576D01*
X9605819Y-16352052D02*
X9558200Y-16494909D01*
X9682010Y-16494909D01*
X9748676Y-16361576D02*
X9748676Y-16399671D01*
X9824867Y-16361576D02*
X9824867Y-16399671D01*
X10120105Y-16637767D02*
X10110581Y-16628243D01*
X10091533Y-16599671D01*
X10082010Y-16580624D01*
X10072486Y-16552052D01*
X10062962Y-16504433D01*
X10062962Y-16466338D01*
X10072486Y-16418719D01*
X10082010Y-16390148D01*
X10091533Y-16371100D01*
X10110581Y-16342528D01*
X10120105Y-16333005D01*
X10301057Y-16561576D02*
X10186771Y-16561576D01*
X10243914Y-16561576D02*
X10243914Y-16361576D01*
X10224867Y-16390148D01*
X10205819Y-16409195D01*
X10186771Y-16418719D01*
X10491533Y-16561576D02*
X10377248Y-16561576D01*
X10434390Y-16561576D02*
X10434390Y-16361576D01*
X10415343Y-16390148D01*
X10396295Y-16409195D01*
X10377248Y-16418719D01*
X10729629Y-16561576D02*
X10729629Y-16361576D01*
X10815343Y-16561576D02*
X10815343Y-16456814D01*
X10805819Y-16437767D01*
X10786771Y-16428243D01*
X10758200Y-16428243D01*
X10739152Y-16437767D01*
X10729629Y-16447290D01*
X10939152Y-16561576D02*
X10920105Y-16552052D01*
X10910581Y-16542528D01*
X10901057Y-16523481D01*
X10901057Y-16466338D01*
X10910581Y-16447290D01*
X10920105Y-16437767D01*
X10939152Y-16428243D01*
X10967724Y-16428243D01*
X10986771Y-16437767D01*
X10996295Y-16447290D01*
X11005819Y-16466338D01*
X11005819Y-16523481D01*
X10996295Y-16542528D01*
X10986771Y-16552052D01*
X10967724Y-16561576D01*
X10939152Y-16561576D01*
X11120105Y-16561576D02*
X11101057Y-16552052D01*
X11091533Y-16533005D01*
X11091533Y-16361576D01*
X11272486Y-16552052D02*
X11253438Y-16561576D01*
X11215343Y-16561576D01*
X11196295Y-16552052D01*
X11186771Y-16533005D01*
X11186771Y-16456814D01*
X11196295Y-16437767D01*
X11215343Y-16428243D01*
X11253438Y-16428243D01*
X11272486Y-16437767D01*
X11282009Y-16456814D01*
X11282009Y-16475862D01*
X11186771Y-16494909D01*
X11358200Y-16552052D02*
X11377248Y-16561576D01*
X11415343Y-16561576D01*
X11434390Y-16552052D01*
X11443914Y-16533005D01*
X11443914Y-16523481D01*
X11434390Y-16504433D01*
X11415343Y-16494909D01*
X11386771Y-16494909D01*
X11367724Y-16485386D01*
X11358200Y-16466338D01*
X11358200Y-16456814D01*
X11367724Y-16437767D01*
X11386771Y-16428243D01*
X11415343Y-16428243D01*
X11434390Y-16437767D01*
X11510581Y-16637767D02*
X11520105Y-16628243D01*
X11539152Y-16599671D01*
X11548676Y-16580624D01*
X11558200Y-16552052D01*
X11567724Y-16504433D01*
X11567724Y-16466338D01*
X11558200Y-16418719D01*
X11548676Y-16390148D01*
X11539152Y-16371100D01*
X11520105Y-16342528D01*
X11510581Y-16333005D01*
D17*
X6438200Y-16680100D02*
X6548200Y-16790100D01*
X6548200Y-16680100D02*
X6438200Y-16790100D01*
X6548200Y-16735100D02*
G75*
G03*
X6548200Y-16735100I-55000J0D01*
G01*
D11*
X6910581Y-16825576D02*
X6796295Y-16825576D01*
X6853438Y-16825576D02*
X6853438Y-16625576D01*
X6834390Y-16654148D01*
X6815343Y-16673195D01*
X6796295Y-16682719D01*
X6996295Y-16806529D02*
X7005819Y-16816052D01*
X6996295Y-16825576D01*
X6986771Y-16816052D01*
X6996295Y-16806529D01*
X6996295Y-16825576D01*
X7196295Y-16825576D02*
X7082009Y-16825576D01*
X7139152Y-16825576D02*
X7139152Y-16625576D01*
X7120105Y-16654148D01*
X7101057Y-16673195D01*
X7082009Y-16682719D01*
X7320105Y-16625576D02*
X7339152Y-16625576D01*
X7358200Y-16635100D01*
X7367724Y-16644624D01*
X7377248Y-16663671D01*
X7386771Y-16701767D01*
X7386771Y-16749386D01*
X7377248Y-16787481D01*
X7367724Y-16806529D01*
X7358200Y-16816052D01*
X7339152Y-16825576D01*
X7320105Y-16825576D01*
X7301057Y-16816052D01*
X7291533Y-16806529D01*
X7282009Y-16787481D01*
X7272486Y-16749386D01*
X7272486Y-16701767D01*
X7282009Y-16663671D01*
X7291533Y-16644624D01*
X7301057Y-16635100D01*
X7320105Y-16625576D01*
X7510581Y-16625576D02*
X7529628Y-16625576D01*
X7548676Y-16635100D01*
X7558200Y-16644624D01*
X7567724Y-16663671D01*
X7577248Y-16701767D01*
X7577248Y-16749386D01*
X7567724Y-16787481D01*
X7558200Y-16806529D01*
X7548676Y-16816052D01*
X7529628Y-16825576D01*
X7510581Y-16825576D01*
X7491533Y-16816052D01*
X7482009Y-16806529D01*
X7472486Y-16787481D01*
X7462962Y-16749386D01*
X7462962Y-16701767D01*
X7472486Y-16663671D01*
X7482009Y-16644624D01*
X7491533Y-16635100D01*
X7510581Y-16625576D01*
X7662962Y-16825576D02*
X7662962Y-16692243D01*
X7662962Y-16711290D02*
X7672486Y-16701767D01*
X7691533Y-16692243D01*
X7720105Y-16692243D01*
X7739152Y-16701767D01*
X7748676Y-16720814D01*
X7748676Y-16825576D01*
X7748676Y-16720814D02*
X7758200Y-16701767D01*
X7777248Y-16692243D01*
X7805819Y-16692243D01*
X7824867Y-16701767D01*
X7834390Y-16720814D01*
X7834390Y-16825576D01*
X7929628Y-16825576D02*
X7929628Y-16692243D01*
X7929628Y-16711290D02*
X7939152Y-16701767D01*
X7958200Y-16692243D01*
X7986771Y-16692243D01*
X8005819Y-16701767D01*
X8015343Y-16720814D01*
X8015343Y-16825576D01*
X8015343Y-16720814D02*
X8024867Y-16701767D01*
X8043914Y-16692243D01*
X8072486Y-16692243D01*
X8091533Y-16701767D01*
X8101057Y-16720814D01*
X8101057Y-16825576D01*
X8491533Y-16616052D02*
X8320105Y-16873195D01*
X8748676Y-16625576D02*
X8767724Y-16625576D01*
X8786771Y-16635100D01*
X8796295Y-16644624D01*
X8805819Y-16663671D01*
X8815343Y-16701767D01*
X8815343Y-16749386D01*
X8805819Y-16787481D01*
X8796295Y-16806529D01*
X8786771Y-16816052D01*
X8767724Y-16825576D01*
X8748676Y-16825576D01*
X8729629Y-16816052D01*
X8720105Y-16806529D01*
X8710581Y-16787481D01*
X8701057Y-16749386D01*
X8701057Y-16701767D01*
X8710581Y-16663671D01*
X8720105Y-16644624D01*
X8729629Y-16635100D01*
X8748676Y-16625576D01*
X8901057Y-16806529D02*
X8910581Y-16816052D01*
X8901057Y-16825576D01*
X8891533Y-16816052D01*
X8901057Y-16806529D01*
X8901057Y-16825576D01*
X9034390Y-16625576D02*
X9053438Y-16625576D01*
X9072486Y-16635100D01*
X9082010Y-16644624D01*
X9091533Y-16663671D01*
X9101057Y-16701767D01*
X9101057Y-16749386D01*
X9091533Y-16787481D01*
X9082010Y-16806529D01*
X9072486Y-16816052D01*
X9053438Y-16825576D01*
X9034390Y-16825576D01*
X9015343Y-16816052D01*
X9005819Y-16806529D01*
X8996295Y-16787481D01*
X8986771Y-16749386D01*
X8986771Y-16701767D01*
X8996295Y-16663671D01*
X9005819Y-16644624D01*
X9015343Y-16635100D01*
X9034390Y-16625576D01*
X9272486Y-16692243D02*
X9272486Y-16825576D01*
X9224867Y-16616052D02*
X9177248Y-16758909D01*
X9301057Y-16758909D01*
X9358200Y-16625576D02*
X9482010Y-16625576D01*
X9415343Y-16701767D01*
X9443914Y-16701767D01*
X9462962Y-16711290D01*
X9472486Y-16720814D01*
X9482010Y-16739862D01*
X9482010Y-16787481D01*
X9472486Y-16806529D01*
X9462962Y-16816052D01*
X9443914Y-16825576D01*
X9386771Y-16825576D01*
X9367724Y-16816052D01*
X9358200Y-16806529D01*
X9548676Y-16625576D02*
X9672486Y-16625576D01*
X9605819Y-16701767D01*
X9634390Y-16701767D01*
X9653438Y-16711290D01*
X9662962Y-16720814D01*
X9672486Y-16739862D01*
X9672486Y-16787481D01*
X9662962Y-16806529D01*
X9653438Y-16816052D01*
X9634390Y-16825576D01*
X9577248Y-16825576D01*
X9558200Y-16816052D01*
X9548676Y-16806529D01*
X9748676Y-16625576D02*
X9748676Y-16663671D01*
X9824867Y-16625576D02*
X9824867Y-16663671D01*
X10120105Y-16901767D02*
X10110581Y-16892243D01*
X10091533Y-16863671D01*
X10082010Y-16844624D01*
X10072486Y-16816052D01*
X10062962Y-16768433D01*
X10062962Y-16730338D01*
X10072486Y-16682719D01*
X10082010Y-16654148D01*
X10091533Y-16635100D01*
X10110581Y-16606528D01*
X10120105Y-16597005D01*
X10224867Y-16711290D02*
X10205819Y-16701767D01*
X10196295Y-16692243D01*
X10186771Y-16673195D01*
X10186771Y-16663671D01*
X10196295Y-16644624D01*
X10205819Y-16635100D01*
X10224867Y-16625576D01*
X10262962Y-16625576D01*
X10282010Y-16635100D01*
X10291533Y-16644624D01*
X10301057Y-16663671D01*
X10301057Y-16673195D01*
X10291533Y-16692243D01*
X10282010Y-16701767D01*
X10262962Y-16711290D01*
X10224867Y-16711290D01*
X10205819Y-16720814D01*
X10196295Y-16730338D01*
X10186771Y-16749386D01*
X10186771Y-16787481D01*
X10196295Y-16806529D01*
X10205819Y-16816052D01*
X10224867Y-16825576D01*
X10262962Y-16825576D01*
X10282010Y-16816052D01*
X10291533Y-16806529D01*
X10301057Y-16787481D01*
X10301057Y-16749386D01*
X10291533Y-16730338D01*
X10282010Y-16720814D01*
X10262962Y-16711290D01*
X10539152Y-16825576D02*
X10539152Y-16625576D01*
X10624867Y-16825576D02*
X10624867Y-16720814D01*
X10615343Y-16701767D01*
X10596295Y-16692243D01*
X10567724Y-16692243D01*
X10548676Y-16701767D01*
X10539152Y-16711290D01*
X10748676Y-16825576D02*
X10729629Y-16816052D01*
X10720105Y-16806529D01*
X10710581Y-16787481D01*
X10710581Y-16730338D01*
X10720105Y-16711290D01*
X10729629Y-16701767D01*
X10748676Y-16692243D01*
X10777248Y-16692243D01*
X10796295Y-16701767D01*
X10805819Y-16711290D01*
X10815343Y-16730338D01*
X10815343Y-16787481D01*
X10805819Y-16806529D01*
X10796295Y-16816052D01*
X10777248Y-16825576D01*
X10748676Y-16825576D01*
X10929629Y-16825576D02*
X10910581Y-16816052D01*
X10901057Y-16797005D01*
X10901057Y-16625576D01*
X11082010Y-16816052D02*
X11062962Y-16825576D01*
X11024867Y-16825576D01*
X11005819Y-16816052D01*
X10996295Y-16797005D01*
X10996295Y-16720814D01*
X11005819Y-16701767D01*
X11024867Y-16692243D01*
X11062962Y-16692243D01*
X11082010Y-16701767D01*
X11091533Y-16720814D01*
X11091533Y-16739862D01*
X10996295Y-16758909D01*
X11167724Y-16816052D02*
X11186771Y-16825576D01*
X11224867Y-16825576D01*
X11243914Y-16816052D01*
X11253438Y-16797005D01*
X11253438Y-16787481D01*
X11243914Y-16768433D01*
X11224867Y-16758909D01*
X11196295Y-16758909D01*
X11177248Y-16749386D01*
X11167724Y-16730338D01*
X11167724Y-16720814D01*
X11177248Y-16701767D01*
X11196295Y-16692243D01*
X11224867Y-16692243D01*
X11243914Y-16701767D01*
X11320105Y-16901767D02*
X11329628Y-16892243D01*
X11348676Y-16863671D01*
X11358200Y-16844624D01*
X11367724Y-16816052D01*
X11377248Y-16768433D01*
X11377248Y-16730338D01*
X11367724Y-16682719D01*
X11358200Y-16654148D01*
X11348676Y-16635100D01*
X11329628Y-16606528D01*
X11320105Y-16597005D01*
D18*
X6418200Y-16934100D02*
X6548200Y-17064100D01*
X6548200Y-16934100D02*
X6418200Y-17064100D01*
X6483200Y-16934100D02*
X6483200Y-17064100D01*
X6418200Y-16999100D02*
X6548200Y-16999100D01*
D11*
X6910581Y-17089576D02*
X6796295Y-17089576D01*
X6853438Y-17089576D02*
X6853438Y-16889576D01*
X6834390Y-16918148D01*
X6815343Y-16937195D01*
X6796295Y-16946719D01*
X6996295Y-17070529D02*
X7005819Y-17080052D01*
X6996295Y-17089576D01*
X6986771Y-17080052D01*
X6996295Y-17070529D01*
X6996295Y-17089576D01*
X7072486Y-16889576D02*
X7196295Y-16889576D01*
X7129628Y-16965767D01*
X7158200Y-16965767D01*
X7177248Y-16975290D01*
X7186771Y-16984814D01*
X7196295Y-17003862D01*
X7196295Y-17051481D01*
X7186771Y-17070529D01*
X7177248Y-17080052D01*
X7158200Y-17089576D01*
X7101057Y-17089576D01*
X7082009Y-17080052D01*
X7072486Y-17070529D01*
X7320105Y-16889576D02*
X7339152Y-16889576D01*
X7358200Y-16899100D01*
X7367724Y-16908624D01*
X7377248Y-16927671D01*
X7386771Y-16965767D01*
X7386771Y-17013386D01*
X7377248Y-17051481D01*
X7367724Y-17070529D01*
X7358200Y-17080052D01*
X7339152Y-17089576D01*
X7320105Y-17089576D01*
X7301057Y-17080052D01*
X7291533Y-17070529D01*
X7282009Y-17051481D01*
X7272486Y-17013386D01*
X7272486Y-16965767D01*
X7282009Y-16927671D01*
X7291533Y-16908624D01*
X7301057Y-16899100D01*
X7320105Y-16889576D01*
X7510581Y-16889576D02*
X7529628Y-16889576D01*
X7548676Y-16899100D01*
X7558200Y-16908624D01*
X7567724Y-16927671D01*
X7577248Y-16965767D01*
X7577248Y-17013386D01*
X7567724Y-17051481D01*
X7558200Y-17070529D01*
X7548676Y-17080052D01*
X7529628Y-17089576D01*
X7510581Y-17089576D01*
X7491533Y-17080052D01*
X7482009Y-17070529D01*
X7472486Y-17051481D01*
X7462962Y-17013386D01*
X7462962Y-16965767D01*
X7472486Y-16927671D01*
X7482009Y-16908624D01*
X7491533Y-16899100D01*
X7510581Y-16889576D01*
X7662962Y-17089576D02*
X7662962Y-16956243D01*
X7662962Y-16975290D02*
X7672486Y-16965767D01*
X7691533Y-16956243D01*
X7720105Y-16956243D01*
X7739152Y-16965767D01*
X7748676Y-16984814D01*
X7748676Y-17089576D01*
X7748676Y-16984814D02*
X7758200Y-16965767D01*
X7777248Y-16956243D01*
X7805819Y-16956243D01*
X7824867Y-16965767D01*
X7834390Y-16984814D01*
X7834390Y-17089576D01*
X7929628Y-17089576D02*
X7929628Y-16956243D01*
X7929628Y-16975290D02*
X7939152Y-16965767D01*
X7958200Y-16956243D01*
X7986771Y-16956243D01*
X8005819Y-16965767D01*
X8015343Y-16984814D01*
X8015343Y-17089576D01*
X8015343Y-16984814D02*
X8024867Y-16965767D01*
X8043914Y-16956243D01*
X8072486Y-16956243D01*
X8091533Y-16965767D01*
X8101057Y-16984814D01*
X8101057Y-17089576D01*
X8491533Y-16880052D02*
X8320105Y-17137195D01*
X8748676Y-16889576D02*
X8767724Y-16889576D01*
X8786771Y-16899100D01*
X8796295Y-16908624D01*
X8805819Y-16927671D01*
X8815343Y-16965767D01*
X8815343Y-17013386D01*
X8805819Y-17051481D01*
X8796295Y-17070529D01*
X8786771Y-17080052D01*
X8767724Y-17089576D01*
X8748676Y-17089576D01*
X8729629Y-17080052D01*
X8720105Y-17070529D01*
X8710581Y-17051481D01*
X8701057Y-17013386D01*
X8701057Y-16965767D01*
X8710581Y-16927671D01*
X8720105Y-16908624D01*
X8729629Y-16899100D01*
X8748676Y-16889576D01*
X8901057Y-17070529D02*
X8910581Y-17080052D01*
X8901057Y-17089576D01*
X8891533Y-17080052D01*
X8901057Y-17070529D01*
X8901057Y-17089576D01*
X9034390Y-16889576D02*
X9053438Y-16889576D01*
X9072486Y-16899100D01*
X9082010Y-16908624D01*
X9091533Y-16927671D01*
X9101057Y-16965767D01*
X9101057Y-17013386D01*
X9091533Y-17051481D01*
X9082010Y-17070529D01*
X9072486Y-17080052D01*
X9053438Y-17089576D01*
X9034390Y-17089576D01*
X9015343Y-17080052D01*
X9005819Y-17070529D01*
X8996295Y-17051481D01*
X8986771Y-17013386D01*
X8986771Y-16965767D01*
X8996295Y-16927671D01*
X9005819Y-16908624D01*
X9015343Y-16899100D01*
X9034390Y-16889576D01*
X9282010Y-16889576D02*
X9186771Y-16889576D01*
X9177248Y-16984814D01*
X9186771Y-16975290D01*
X9205819Y-16965767D01*
X9253438Y-16965767D01*
X9272486Y-16975290D01*
X9282010Y-16984814D01*
X9291533Y-17003862D01*
X9291533Y-17051481D01*
X9282010Y-17070529D01*
X9272486Y-17080052D01*
X9253438Y-17089576D01*
X9205819Y-17089576D01*
X9186771Y-17080052D01*
X9177248Y-17070529D01*
X9482010Y-17089576D02*
X9367724Y-17089576D01*
X9424867Y-17089576D02*
X9424867Y-16889576D01*
X9405819Y-16918148D01*
X9386771Y-16937195D01*
X9367724Y-16946719D01*
X9558200Y-16908624D02*
X9567724Y-16899100D01*
X9586771Y-16889576D01*
X9634390Y-16889576D01*
X9653438Y-16899100D01*
X9662962Y-16908624D01*
X9672486Y-16927671D01*
X9672486Y-16946719D01*
X9662962Y-16975290D01*
X9548676Y-17089576D01*
X9672486Y-17089576D01*
X9748676Y-16889576D02*
X9748676Y-16927671D01*
X9824867Y-16889576D02*
X9824867Y-16927671D01*
X10120105Y-17165767D02*
X10110581Y-17156243D01*
X10091533Y-17127671D01*
X10082010Y-17108624D01*
X10072486Y-17080052D01*
X10062962Y-17032433D01*
X10062962Y-16994338D01*
X10072486Y-16946719D01*
X10082010Y-16918148D01*
X10091533Y-16899100D01*
X10110581Y-16870529D01*
X10120105Y-16861005D01*
X10301057Y-17089576D02*
X10186771Y-17089576D01*
X10243914Y-17089576D02*
X10243914Y-16889576D01*
X10224867Y-16918148D01*
X10205819Y-16937195D01*
X10186771Y-16946719D01*
X10377248Y-16908624D02*
X10386771Y-16899100D01*
X10405819Y-16889576D01*
X10453438Y-16889576D01*
X10472486Y-16899100D01*
X10482010Y-16908624D01*
X10491533Y-16927671D01*
X10491533Y-16946719D01*
X10482010Y-16975290D01*
X10367724Y-17089576D01*
X10491533Y-17089576D01*
X10729629Y-17089576D02*
X10729629Y-16889576D01*
X10815343Y-17089576D02*
X10815343Y-16984814D01*
X10805819Y-16965767D01*
X10786771Y-16956243D01*
X10758200Y-16956243D01*
X10739152Y-16965767D01*
X10729629Y-16975290D01*
X10939152Y-17089576D02*
X10920105Y-17080052D01*
X10910581Y-17070529D01*
X10901057Y-17051481D01*
X10901057Y-16994338D01*
X10910581Y-16975290D01*
X10920105Y-16965767D01*
X10939152Y-16956243D01*
X10967724Y-16956243D01*
X10986771Y-16965767D01*
X10996295Y-16975290D01*
X11005819Y-16994338D01*
X11005819Y-17051481D01*
X10996295Y-17070529D01*
X10986771Y-17080052D01*
X10967724Y-17089576D01*
X10939152Y-17089576D01*
X11120105Y-17089576D02*
X11101057Y-17080052D01*
X11091533Y-17061005D01*
X11091533Y-16889576D01*
X11272486Y-17080052D02*
X11253438Y-17089576D01*
X11215343Y-17089576D01*
X11196295Y-17080052D01*
X11186771Y-17061005D01*
X11186771Y-16984814D01*
X11196295Y-16965767D01*
X11215343Y-16956243D01*
X11253438Y-16956243D01*
X11272486Y-16965767D01*
X11282009Y-16984814D01*
X11282009Y-17003862D01*
X11186771Y-17022910D01*
X11358200Y-17080052D02*
X11377248Y-17089576D01*
X11415343Y-17089576D01*
X11434390Y-17080052D01*
X11443914Y-17061005D01*
X11443914Y-17051481D01*
X11434390Y-17032433D01*
X11415343Y-17022910D01*
X11386771Y-17022910D01*
X11367724Y-17013386D01*
X11358200Y-16994338D01*
X11358200Y-16984814D01*
X11367724Y-16965767D01*
X11386771Y-16956243D01*
X11415343Y-16956243D01*
X11434390Y-16965767D01*
X11510581Y-17165767D02*
X11520105Y-17156243D01*
X11539152Y-17127671D01*
X11548676Y-17108624D01*
X11558200Y-17080052D01*
X11567724Y-17032433D01*
X11567724Y-16994338D01*
X11558200Y-16946719D01*
X11548676Y-16918148D01*
X11539152Y-16899100D01*
X11520105Y-16870529D01*
X11510581Y-16861005D01*
X6348200Y-17163100D02*
X6548200Y-17363100D01*
X6548200Y-17163100D02*
X6348200Y-17363100D01*
X6518911Y-17333811D02*
X6518911Y-17192389D01*
X6377489Y-17192389D01*
X6377489Y-17333811D01*
X6518911Y-17333811D01*
X6796295Y-17172624D02*
X6805819Y-17163100D01*
X6824867Y-17153576D01*
X6872486Y-17153576D01*
X6891533Y-17163100D01*
X6901057Y-17172624D01*
X6910581Y-17191671D01*
X6910581Y-17210719D01*
X6901057Y-17239290D01*
X6786771Y-17353576D01*
X6910581Y-17353576D01*
X6996295Y-17334529D02*
X7005819Y-17344052D01*
X6996295Y-17353576D01*
X6986771Y-17344052D01*
X6996295Y-17334529D01*
X6996295Y-17353576D01*
X7072486Y-17153576D02*
X7196295Y-17153576D01*
X7129628Y-17229767D01*
X7158200Y-17229767D01*
X7177248Y-17239290D01*
X7186771Y-17248814D01*
X7196295Y-17267862D01*
X7196295Y-17315481D01*
X7186771Y-17334529D01*
X7177248Y-17344052D01*
X7158200Y-17353576D01*
X7101057Y-17353576D01*
X7082009Y-17344052D01*
X7072486Y-17334529D01*
X7262962Y-17153576D02*
X7386771Y-17153576D01*
X7320105Y-17229767D01*
X7348676Y-17229767D01*
X7367724Y-17239290D01*
X7377248Y-17248814D01*
X7386771Y-17267862D01*
X7386771Y-17315481D01*
X7377248Y-17334529D01*
X7367724Y-17344052D01*
X7348676Y-17353576D01*
X7291533Y-17353576D01*
X7272486Y-17344052D01*
X7262962Y-17334529D01*
X7510581Y-17153576D02*
X7529628Y-17153576D01*
X7548676Y-17163100D01*
X7558200Y-17172624D01*
X7567724Y-17191671D01*
X7577248Y-17229767D01*
X7577248Y-17277386D01*
X7567724Y-17315481D01*
X7558200Y-17334529D01*
X7548676Y-17344052D01*
X7529628Y-17353576D01*
X7510581Y-17353576D01*
X7491533Y-17344052D01*
X7482009Y-17334529D01*
X7472486Y-17315481D01*
X7462962Y-17277386D01*
X7462962Y-17229767D01*
X7472486Y-17191671D01*
X7482009Y-17172624D01*
X7491533Y-17163100D01*
X7510581Y-17153576D01*
X7662962Y-17353576D02*
X7662962Y-17220243D01*
X7662962Y-17239290D02*
X7672486Y-17229767D01*
X7691533Y-17220243D01*
X7720105Y-17220243D01*
X7739152Y-17229767D01*
X7748676Y-17248814D01*
X7748676Y-17353576D01*
X7748676Y-17248814D02*
X7758200Y-17229767D01*
X7777248Y-17220243D01*
X7805819Y-17220243D01*
X7824867Y-17229767D01*
X7834390Y-17248814D01*
X7834390Y-17353576D01*
X7929628Y-17353576D02*
X7929628Y-17220243D01*
X7929628Y-17239290D02*
X7939152Y-17229767D01*
X7958200Y-17220243D01*
X7986771Y-17220243D01*
X8005819Y-17229767D01*
X8015343Y-17248814D01*
X8015343Y-17353576D01*
X8015343Y-17248814D02*
X8024867Y-17229767D01*
X8043914Y-17220243D01*
X8072486Y-17220243D01*
X8091533Y-17229767D01*
X8101057Y-17248814D01*
X8101057Y-17353576D01*
X8491533Y-17144052D02*
X8320105Y-17401195D01*
X8748676Y-17153576D02*
X8767724Y-17153576D01*
X8786771Y-17163100D01*
X8796295Y-17172624D01*
X8805819Y-17191671D01*
X8815343Y-17229767D01*
X8815343Y-17277386D01*
X8805819Y-17315481D01*
X8796295Y-17334529D01*
X8786771Y-17344052D01*
X8767724Y-17353576D01*
X8748676Y-17353576D01*
X8729629Y-17344052D01*
X8720105Y-17334529D01*
X8710581Y-17315481D01*
X8701057Y-17277386D01*
X8701057Y-17229767D01*
X8710581Y-17191671D01*
X8720105Y-17172624D01*
X8729629Y-17163100D01*
X8748676Y-17153576D01*
X8901057Y-17334529D02*
X8910581Y-17344052D01*
X8901057Y-17353576D01*
X8891533Y-17344052D01*
X8901057Y-17334529D01*
X8901057Y-17353576D01*
X9034390Y-17153576D02*
X9053438Y-17153576D01*
X9072486Y-17163100D01*
X9082010Y-17172624D01*
X9091533Y-17191671D01*
X9101057Y-17229767D01*
X9101057Y-17277386D01*
X9091533Y-17315481D01*
X9082010Y-17334529D01*
X9072486Y-17344052D01*
X9053438Y-17353576D01*
X9034390Y-17353576D01*
X9015343Y-17344052D01*
X9005819Y-17334529D01*
X8996295Y-17315481D01*
X8986771Y-17277386D01*
X8986771Y-17229767D01*
X8996295Y-17191671D01*
X9005819Y-17172624D01*
X9015343Y-17163100D01*
X9034390Y-17153576D01*
X9196295Y-17353576D02*
X9234390Y-17353576D01*
X9253438Y-17344052D01*
X9262962Y-17334529D01*
X9282010Y-17305957D01*
X9291533Y-17267862D01*
X9291533Y-17191671D01*
X9282010Y-17172624D01*
X9272486Y-17163100D01*
X9253438Y-17153576D01*
X9215343Y-17153576D01*
X9196295Y-17163100D01*
X9186771Y-17172624D01*
X9177248Y-17191671D01*
X9177248Y-17239290D01*
X9186771Y-17258338D01*
X9196295Y-17267862D01*
X9215343Y-17277386D01*
X9253438Y-17277386D01*
X9272486Y-17267862D01*
X9282010Y-17258338D01*
X9291533Y-17239290D01*
X9482010Y-17353576D02*
X9367724Y-17353576D01*
X9424867Y-17353576D02*
X9424867Y-17153576D01*
X9405819Y-17182148D01*
X9386771Y-17201195D01*
X9367724Y-17210719D01*
X9548676Y-17153576D02*
X9682010Y-17153576D01*
X9596295Y-17353576D01*
X9748676Y-17153576D02*
X9748676Y-17191671D01*
X9824867Y-17153576D02*
X9824867Y-17191671D01*
X10120105Y-17429767D02*
X10110581Y-17420243D01*
X10091533Y-17391671D01*
X10082010Y-17372624D01*
X10072486Y-17344052D01*
X10062962Y-17296433D01*
X10062962Y-17258338D01*
X10072486Y-17210719D01*
X10082010Y-17182148D01*
X10091533Y-17163100D01*
X10110581Y-17134529D01*
X10120105Y-17125005D01*
X10186771Y-17172624D02*
X10196295Y-17163100D01*
X10215343Y-17153576D01*
X10262962Y-17153576D01*
X10282010Y-17163100D01*
X10291533Y-17172624D01*
X10301057Y-17191671D01*
X10301057Y-17210719D01*
X10291533Y-17239290D01*
X10177248Y-17353576D01*
X10301057Y-17353576D01*
X10539152Y-17353576D02*
X10539152Y-17153576D01*
X10624867Y-17353576D02*
X10624867Y-17248814D01*
X10615343Y-17229767D01*
X10596295Y-17220243D01*
X10567724Y-17220243D01*
X10548676Y-17229767D01*
X10539152Y-17239290D01*
X10748676Y-17353576D02*
X10729629Y-17344052D01*
X10720105Y-17334529D01*
X10710581Y-17315481D01*
X10710581Y-17258338D01*
X10720105Y-17239290D01*
X10729629Y-17229767D01*
X10748676Y-17220243D01*
X10777248Y-17220243D01*
X10796295Y-17229767D01*
X10805819Y-17239290D01*
X10815343Y-17258338D01*
X10815343Y-17315481D01*
X10805819Y-17334529D01*
X10796295Y-17344052D01*
X10777248Y-17353576D01*
X10748676Y-17353576D01*
X10929629Y-17353576D02*
X10910581Y-17344052D01*
X10901057Y-17325005D01*
X10901057Y-17153576D01*
X11082010Y-17344052D02*
X11062962Y-17353576D01*
X11024867Y-17353576D01*
X11005819Y-17344052D01*
X10996295Y-17325005D01*
X10996295Y-17248814D01*
X11005819Y-17229767D01*
X11024867Y-17220243D01*
X11062962Y-17220243D01*
X11082010Y-17229767D01*
X11091533Y-17248814D01*
X11091533Y-17267862D01*
X10996295Y-17286910D01*
X11167724Y-17344052D02*
X11186771Y-17353576D01*
X11224867Y-17353576D01*
X11243914Y-17344052D01*
X11253438Y-17325005D01*
X11253438Y-17315481D01*
X11243914Y-17296433D01*
X11224867Y-17286910D01*
X11196295Y-17286910D01*
X11177248Y-17277386D01*
X11167724Y-17258338D01*
X11167724Y-17248814D01*
X11177248Y-17229767D01*
X11196295Y-17220243D01*
X11224867Y-17220243D01*
X11243914Y-17229767D01*
X11320105Y-17429767D02*
X11329628Y-17420243D01*
X11348676Y-17391671D01*
X11358200Y-17372624D01*
X11367724Y-17344052D01*
X11377248Y-17296433D01*
X11377248Y-17258338D01*
X11367724Y-17210719D01*
X11358200Y-17182148D01*
X11348676Y-17163100D01*
X11329628Y-17134529D01*
X11320105Y-17125005D01*
M02*
